<?xml version="1.0" standalone="no"?>
<!DOCTYPE svg PUBLIC "-//W3C//DTD SVG 1.1//EN" "http://www.w3.org/Graphics/SVG/1.1/DTD/svg11.dtd" >
<svg xmlns="http://www.w3.org/2000/svg" xmlns:xlink="http://www.w3.org/1999/xlink" version="1.1">
<metadata>
Created by FontForge 20170731 at Wed Sep 15 22:07:13 2021
 By Aleksey,,,
Copyright (c) 2015 by Kostas Bartsokas. All rights reserved.
</metadata>
<defs>
<font id="AvertaOP-RegularItalic" horiz-adv-x="1200" >
  <font-face 
    font-family="Averta OP"
    font-weight="400"
    font-style="italic"
    font-stretch="normal"
    units-per-em="2048"
    panose-1="0 0 5 0 0 0 0 0 0 0"
    ascent="1638"
    descent="-410"
    x-height="997"
    cap-height="1454"
    bbox="-1411 -715 2769 2128"
    underline-thickness="77"
    underline-position="-246"
    slope="-7"
    unicode-range="U+0020-2E18"
  />
<missing-glyph horiz-adv-x="821" 
 />
    <glyph glyph-name=".notdef" horiz-adv-x="821" 
 />
    <glyph glyph-name=".null" horiz-adv-x="0" 
 />
    <glyph glyph-name="nonmarkingreturn" horiz-adv-x="682" 
 />
    <glyph glyph-name="space" unicode=" " horiz-adv-x="440" 
 />
    <glyph glyph-name="exclam" unicode="!" horiz-adv-x="507" 
d="M299 1507h180l-164 -1081h-118zM225 -14q-49 0 -80.5 32t-31.5 82q0 52 33.5 86.5t84.5 34.5q49 0 82 -32.5t33 -82.5q0 -52 -34 -86t-87 -34z" />
    <glyph glyph-name="quotedbl" unicode="&#x22;" horiz-adv-x="675" 
d="M260 1454h176l-166 -491h-131zM537 1454h176l-166 -491h-131z" />
    <glyph glyph-name="numbersign" unicode="#" horiz-adv-x="1189" 
d="M281 348h-213l14 125h233l86 332h-235l14 127h256l107 411h119l-107 -411h293l104 411h119l-106 -411h223l-17 -127h-241l-84 -332h241l-16 -125h-262l-109 -420h-118l110 420h-293l-108 -420h-119zM727 473l84 332h-291l-86 -332h293z" />
    <glyph glyph-name="dollar" unicode="$" horiz-adv-x="1083" 
d="M610 778q21 -12 65.5 -37t66 -37.5t59 -37t57 -41.5t45 -44.5t38 -53t21.5 -59.5t9 -71q0 -187 -118 -295t-304 -114l-29 -240h-125l31 248q-108 19 -199 76.5t-145 144.5l127 117q49 -92 131.5 -139.5t175.5 -47.5q121 0 199 64.5t78 163.5q0 23 -6 43t-21 38.5
t-28.5 31.5t-41 31t-46 29t-56 32t-59.5 34q-137 77 -184 112q-139 106 -147 247q-1 10 -1 20q0 156 107.5 258.5t273.5 114.5l30 254h125l-30 -258q88 -15 166 -61.5t135 -118.5l-123 -109q-53 71 -125 104t-146 33q-101 0 -167.5 -55.5t-65.5 -142.5q1 -36 14 -65
t47.5 -58.5t60 -46t85.5 -52.5q13 -8 20 -12z" />
    <glyph glyph-name="percent" unicode="%" horiz-adv-x="1994" 
d="M580 27l749 1456l133 -62l-751 -1454zM530 662q-159 0 -263.5 104.5t-104.5 267.5q0 182 119.5 306t293.5 124q162 0 267.5 -102t105.5 -266q0 -189 -121.5 -311.5t-296.5 -122.5zM535 793q115 0 193.5 83.5t78.5 215.5q0 108 -66.5 174.5t-169.5 66.5
q-111 0 -189.5 -85.5t-78.5 -211.5q0 -107 66 -175t166 -68zM1464 -12q-159 0 -263.5 104.5t-104.5 267.5q0 181 119.5 304.5t291.5 123.5q163 0 270 -102t107 -266q0 -189 -122 -310.5t-298 -121.5zM1468 119q115 0 194 83t79 214q0 109 -67 175t-171 66q-110 0 -188 -85.5
t-78 -211.5q0 -108 65 -174.5t166 -66.5z" />
    <glyph glyph-name="ampersand" unicode="&#x26;" horiz-adv-x="1497" 
d="M463 -12q-166 0 -269.5 101.5t-103.5 268.5q0 151 81 276.5t220 186.5q-53 38 -85 97.5t-32 130.5q0 182 123.5 300.5t302.5 118.5q85 0 151 -24t107 -65.5t65 -87.5t36 -101l-150 -47q-11 78 -60.5 127t-139.5 49q-122 0 -193.5 -72.5t-71.5 -193.5q0 -68 42 -117
t116 -49h883l-19 -148h-327q-17 -162 -65.5 -296t-130 -237t-204.5 -160.5t-276 -57.5zM487 143q140 0 248.5 83t168.5 215.5t75 297.5h-369q-95 0 -175.5 -54.5t-124.5 -138.5t-44 -173q0 -103 59 -166.5t162 -63.5z" />
    <glyph glyph-name="quotesingle" unicode="'" horiz-adv-x="399" 
d="M260 1454h176l-166 -491h-131z" />
    <glyph glyph-name="parenleft" unicode="(" horiz-adv-x="561" 
d="M238 -305q-113 286 -113 637q0 318 89.5 629.5t254.5 551.5l117 -53q-148 -235 -227.5 -525.5t-79.5 -580.5q0 -302 94 -596z" />
    <glyph glyph-name="parenright" unicode=")" horiz-adv-x="561" 
d="M6 -248q146 253 223.5 535t77.5 571q0 325 -98 598l133 64q121 -270 121 -643q0 -642 -340 -1176z" />
    <glyph glyph-name="asterisk" unicode="*" horiz-adv-x="790" 
d="M416 1051l-195 -131l-43 98l199 110l-174 117l67 94l164 -129l23 244h110l-39 -244l195 129l43 -94l-201 -115l176 -112l-67 -96l-162 129l-25 -244h-110z" />
    <glyph glyph-name="plus" unicode="+" horiz-adv-x="1103" 
d="M475 492h-356l18 149h357l49 406h153l-51 -406h356l-18 -149h-356l-49 -404h-152z" />
    <glyph glyph-name="comma" unicode="," horiz-adv-x="428" 
d="M92 225h176l-174 -493h-123z" />
    <glyph glyph-name="hyphen" unicode="-" horiz-adv-x="784" 
d="M143 711h549l-18 -160h-551z" />
    <glyph glyph-name="period" unicode="." horiz-adv-x="489" 
d="M193 -14q-49 0 -81 32t-32 82q0 52 34 86.5t85 34.5q49 0 81.5 -32.5t32.5 -82.5q0 -52 -33.5 -86t-86.5 -34z" />
    <glyph glyph-name="slash" unicode="/" horiz-adv-x="745" 
d="M-145 -170l921 1747l113 -64l-920 -1744z" />
    <glyph glyph-name="zero" unicode="0" horiz-adv-x="1191" 
d="M537 -12q-187 0 -296.5 137.5t-109.5 400.5q0 134 23 262.5t71 243t115.5 200.5t163.5 136.5t209 50.5q187 0 293 -137t106 -401q0 -136 -23 -265t-70.5 -243t-114.5 -200t-161.5 -135.5t-205.5 -49.5zM539 145q82 0 150 44.5t113.5 118t77.5 171t46 201t14 209.5
q0 373 -238 373q-81 0 -149 -45.5t-114 -119.5t-77.5 -172t-46 -200.5t-14.5 -206.5q0 -183 65 -278t173 -95z" />
    <glyph glyph-name="one" unicode="1" horiz-adv-x="735" 
d="M653 1407l-172 -1407h-168l138 1118q-118 -31 -238 -31l14 107q180 59 291 213h135z" />
    <glyph glyph-name="two" unicode="2" horiz-adv-x="987" 
d="M33 117l471 481q58 58 98.5 106t81 108t61.5 122.5t21 124.5q0 87 -46.5 144t-131.5 57q-87 0 -171 -53t-132 -148l-125 92q63 119 183 193.5t257 74.5q146 0 242 -95.5t96 -252.5q0 -147 -77 -280.5t-216 -274.5l-356 -356v-4h557l-21 -156h-802z" />
    <glyph glyph-name="three" unicode="3" horiz-adv-x="1015" 
d="M430 -12q-162 0 -265.5 80t-133.5 211l164 61q18 -94 76 -144.5t153 -50.5q137 0 219 86.5t82 225.5q0 93 -54.5 145.5t-172.5 52.5h-113l18 146h105q124 0 197 85t73 197q0 84 -52 131.5t-138 47.5q-163 0 -271 -152l-139 82q66 103 175.5 165t244.5 62q155 0 251.5 -81
t96.5 -230q0 -129 -60.5 -227t-166.5 -148v-2q178 -76 178 -295q0 -200 -132 -324t-335 -124z" />
    <glyph glyph-name="four" unicode="4" horiz-adv-x="1062" 
d="M999 530h-190l109 877h-140l-719 -909l-14 -119h578l-45 -379h167l46 379h188zM649 526h-387l459 553z" />
    <glyph glyph-name="five" unicode="5" horiz-adv-x="1052" 
d="M465 1251l-70 -395q110 37 205 37q163 0 256.5 -97.5t93.5 -273.5q0 -233 -143.5 -383.5t-364.5 -150.5q-137 0 -238.5 64t-154.5 181l144 91q33 -85 96.5 -133t150.5 -48q148 0 243 105t95 262q0 115 -60 175t-173 60q-135 0 -236 -81l-104 32l127 711h674l-21 -156
h-520z" />
    <glyph glyph-name="six" unicode="6" horiz-adv-x="1110" 
d="M504 -12q-175 0 -284 116t-109 318q0 171 56 338.5t154.5 305t243.5 239.5t314 143l30 -148q-218 -64 -368.5 -214t-214.5 -349l4 -2q66 72 159 112t195 40q136 0 228 -98t92 -265q0 -152 -62.5 -274t-177 -192t-260.5 -70zM510 145q134 0 229 106t95 265q0 99 -58 157
t-160 58q-99 0 -191.5 -57.5t-143.5 -149.5q-2 -27 -2 -82q0 -136 62.5 -216.5t168.5 -80.5z" />
    <glyph glyph-name="seven" unicode="7" horiz-adv-x="925" 
d="M121 12l620 1239h-585l18 156h774l-10 -119l-629 -1276h-188z" />
    <glyph glyph-name="eight" unicode="8" horiz-adv-x="1085" 
d="M465 -12q-178 0 -283.5 91t-105.5 245q0 148 80 266t221 168v2q-65 26 -109.5 88.5t-44.5 155.5q0 181 125.5 298t315.5 117q146 0 240.5 -80.5t94.5 -218.5q0 -123 -59.5 -218t-161.5 -136v-2q93 -27 149 -105.5t56 -195.5q0 -217 -144.5 -346t-373.5 -129zM586 834
q105 0 178.5 71.5t73.5 181.5q0 85 -52.5 133t-146.5 48q-108 0 -181 -73t-73 -181q0 -84 54.5 -132t146.5 -48zM492 141q134 0 225.5 89t91.5 223q0 107 -64.5 166t-175.5 59q-139 0 -229 -91t-90 -218q0 -106 66 -167t176 -61z" />
    <glyph glyph-name="nine" unicode="9" horiz-adv-x="1101" 
d="M240 94q209 57 363.5 213t219.5 359l-2 2q-70 -70 -159.5 -111t-188.5 -41q-145 0 -235.5 94.5t-90.5 257.5q0 237 147.5 394t367.5 157q174 0 278 -116t104 -324q0 -237 -100 -455.5t-279 -371.5t-399 -199zM526 672q99 0 190 56t154 155q4 58 4 84q-1 143 -62 219
t-169 76q-140 0 -232 -104t-92 -257q0 -108 52.5 -168.5t154.5 -60.5z" />
    <glyph glyph-name="colon" unicode=":" horiz-adv-x="491" 
d="M295 774q-49 0 -81 32.5t-32 82.5q0 52 34 86.5t85 34.5q49 0 82 -33t33 -82q0 -53 -34 -87t-87 -34zM197 -14q-49 0 -81 32t-32 82q0 52 34 86.5t85 34.5q49 0 81.5 -32.5t32.5 -82.5q0 -52 -33.5 -86t-86.5 -34z" />
    <glyph glyph-name="semicolon" unicode=";" horiz-adv-x="460" 
d="M279 774q-49 0 -81 32.5t-32 82.5q0 52 34 86.5t85 34.5q49 0 81.5 -32.5t32.5 -82.5q0 -53 -34 -87t-86 -34zM109 225h176l-174 -493h-123z" />
    <glyph glyph-name="less" unicode="&#x3c;" horiz-adv-x="1095" 
d="M119 506l14 123l887 422l-21 -164l-645 -318l566 -317l-19 -164z" />
    <glyph glyph-name="equal" unicode="=" horiz-adv-x="1116" 
d="M205 872h864l-18 -149h-865zM145 410h865l-19 -150h-864z" />
    <glyph glyph-name="greater" unicode="&#x3e;" horiz-adv-x="1093" 
d="M113 252l647 317l-567 318l18 164l784 -422l-14 -123l-887 -418z" />
    <glyph glyph-name="question" unicode="?" horiz-adv-x="858" 
d="M301 530q3 23 9.5 45.5t13 40t22 41t24 36t30.5 37.5t30.5 34.5t36 38t35.5 37.5q86 91 128 163t42 164t-47.5 141.5t-128.5 49.5q-69 0 -132 -35.5t-110 -101.5l-107 108q68 91 173 142t219 51q139 0 229 -85.5t90 -238.5q0 -123 -58.5 -222.5t-160.5 -199.5
q-49 -47 -68 -66t-50.5 -55.5t-46 -65.5t-19.5 -61l-17 -104h-149zM334 -14q-49 0 -81 32t-32 82q0 52 34 86.5t85 34.5q50 0 82.5 -32.5t32.5 -82.5q0 -52 -34 -86t-87 -34z" />
    <glyph glyph-name="at" unicode="@" horiz-adv-x="1843" 
d="M842 -287q-212 0 -379 91.5t-263 263.5t-96 397q0 78 15 160t48.5 168.5t83 165.5t123.5 149.5t164 122.5t211 82t259 30q167 0 306 -53.5t235 -149.5t149 -231.5t53 -296.5q0 -63 -11.5 -130t-41.5 -139t-74 -128t-116 -92.5t-162 -36.5q-77 0 -127.5 38.5t-71.5 104.5
q-26 47 -33 82h-4q-56 -93 -140.5 -146.5t-187.5 -53.5q-130 0 -212.5 89.5t-82.5 250.5q0 140 55 256.5t156 186t228 69.5q78 0 141.5 -23.5t101.5 -62.5l7 2l8 73h164l-56 -454q-7 -54 -14 -131q-2 -75 24.5 -111.5t86.5 -36.5q57 0 103 40t73 101t41 126.5t14 123.5
q0 177 -75 316t-215 218t-322 79q-159 0 -291.5 -47.5t-220 -124t-148.5 -177t-88 -203.5t-27 -206q0 -186 81.5 -330t219.5 -220.5t308 -76.5q243 0 442 107l59 -95q-216 -137 -501 -137zM827 260q107 0 203.5 107.5t114.5 259.5l14 106q-84 78 -213 78q-86 0 -153.5 -51
t-102.5 -129.5t-35 -165.5q0 -100 46.5 -152.5t125.5 -52.5z" />
    <glyph glyph-name="A" unicode="A" horiz-adv-x="1282" 
d="M666 1454h184l317 -1454h-182l-74 356h-575l-160 -356h-182zM881 510l-150 725h-4l-324 -725h478z" />
    <glyph glyph-name="B" unicode="B" horiz-adv-x="1228" 
d="M307 1454h451q173 0 271.5 -72t98.5 -227q0 -116 -66.5 -224t-182.5 -157v-2q106 -29 167.5 -104t61.5 -195q0 -227 -142.5 -350t-400.5 -123h-436zM664 829q126 0 205 80t79 215q0 89 -56 130.5t-177 41.5h-252l-57 -467h258zM571 158q166 0 261.5 82t95.5 237
q0 102 -65 150.5t-201 48.5h-275l-63 -518h247z" />
    <glyph glyph-name="C" unicode="C" horiz-adv-x="1384" 
d="M715 -12q-256 0 -414 160.5t-158 449.5q0 174 55 332.5t151 277.5t237 189.5t303 70.5q314 0 500 -307l-148 -102q-70 126 -157 183.5t-201 57.5q-162 0 -291.5 -101t-197.5 -260.5t-68 -340.5q0 -208 104.5 -326t292.5 -118q104 0 208.5 51t180.5 141l131 -115
q-102 -112 -239 -177.5t-289 -65.5z" />
    <glyph glyph-name="D" unicode="D" horiz-adv-x="1394" 
d="M307 1454h410q286 0 438 -158t152 -438q0 -253 -94 -447.5t-270 -302.5t-408 -108h-406zM551 158q171 0 302 90.5t201 248.5t70 359q0 205 -108.5 322.5t-310.5 117.5h-242l-139 -1138h227z" />
    <glyph glyph-name="E" unicode="E" horiz-adv-x="1144" 
d="M307 1454h811l-20 -158h-637l-60 -493h523l-21 -158h-522l-59 -487h675l-18 -158h-850z" />
    <glyph glyph-name="F" unicode="F" horiz-adv-x="1116" 
d="M307 1454h844l-21 -158h-667l-64 -516h568l-21 -159h-567l-76 -621h-174z" />
    <glyph glyph-name="G" unicode="G" horiz-adv-x="1445" 
d="M725 -12q-264 0 -423 159.5t-159 448.5q0 174 55 333.5t151.5 278.5t235.5 189.5t298 70.5q311 0 485 -241l-143 -109q-131 182 -348 182q-157 0 -284.5 -96.5t-197 -256t-69.5 -347.5q0 -212 106.5 -332.5t300.5 -120.5q195 0 354 123l41 320h-368l22 158h541l-68 -578
q-101 -87 -242 -134.5t-288 -47.5z" />
    <glyph glyph-name="H" unicode="H" horiz-adv-x="1398" 
d="M307 1454h174l-84 -684h670l84 684h174l-176 -1454h-176l76 612h-670l-76 -612h-174z" />
    <glyph glyph-name="I" unicode="I" horiz-adv-x="577" 
d="M317 1454h177l-179 -1454h-176z" />
    <glyph glyph-name="J" unicode="J" horiz-adv-x="958" 
d="M350 -12q-94 0 -182 49t-143 139l120 125q39 -66 93 -106.5t114 -40.5q221 0 266 346l117 954h176l-118 -962q-31 -253 -138.5 -378.5t-304.5 -125.5z" />
    <glyph glyph-name="K" unicode="K" horiz-adv-x="1236" 
d="M725 801l399 -801h-200l-328 672l-244 -279l-49 -393h-174l178 1454h174l-98 -792l6 -3l684 795h219z" />
    <glyph glyph-name="L" unicode="L" horiz-adv-x="1077" 
d="M307 1454h174l-157 -1296h641l-19 -158h-817z" />
    <glyph glyph-name="M" unicode="M" horiz-adv-x="1679" 
d="M307 1454h176l359 -940h4l586 940h174l-179 -1454h-174l131 1087l-6 3l-501 -797h-121l-312 821l-4 -2l-137 -1112h-174z" />
    <glyph glyph-name="N" unicode="N" horiz-adv-x="1452" 
d="M307 1454h174l576 -1157l6 2l141 1155h176l-180 -1454h-176l-575 1147h-5l-141 -1147h-174z" />
    <glyph glyph-name="O" unicode="O" horiz-adv-x="1556" 
d="M717 -12q-263 0 -419.5 161.5t-156.5 446.5q0 171 54.5 329t151 278.5t239 192.5t307.5 72q262 0 419.5 -161t157.5 -447q0 -175 -52.5 -333t-147.5 -278t-238.5 -190.5t-314.5 -70.5zM729 152q163 0 293 99t199 258.5t69 344.5q0 220 -110 335.5t-306 115.5
q-158 0 -286 -101.5t-196 -262t-68 -341.5q0 -216 108 -332t297 -116z" />
    <glyph glyph-name="P" unicode="P" horiz-adv-x="1183" 
d="M307 1454h469q383 0 383 -373q0 -243 -142 -383.5t-401 -140.5h-245l-68 -557h-174zM639 717q159 0 248.5 95t89.5 269q0 103 -65.5 159t-172.5 56h-276l-72 -579h248z" />
    <glyph glyph-name="Q" unicode="Q" horiz-adv-x="1591" 
d="M1473 860q0 -173 -51 -329.5t-146 -274.5l145 -160l-114 -125l-148 166q-189 -149 -440 -149q-263 0 -419.5 161.5t-156.5 446.5q0 171 54.5 328.5t151 278t239 192t307.5 71.5q263 0 420.5 -160t157.5 -446zM731 152q175 0 311 114l-137 154l113 119l137 -150
q137 198 137 465q0 220 -109.5 334.5t-305.5 114.5q-119 0 -223.5 -59.5t-175.5 -157t-111.5 -224.5t-40.5 -262q0 -216 108 -332t297 -116z" />
    <glyph glyph-name="R" unicode="R" horiz-adv-x="1247" 
d="M307 1454h475q383 0 383 -373q0 -194 -94.5 -325.5t-271.5 -173.5l280 -582h-196l-260 557h-252l-68 -557h-174zM645 717q158 0 249 97.5t91 266.5q0 103 -66 159t-174 56h-282l-72 -579h254z" />
    <glyph glyph-name="S" unicode="S" horiz-adv-x="1128" 
d="M532 -12q-147 0 -274.5 63t-200.5 176l131 119q55 -95 145.5 -145.5t190.5 -50.5q132 0 216.5 70.5t84.5 180.5q0 23 -7 43.5t-14.5 36.5t-27 34.5t-32 29.5t-43 30.5t-45.5 28t-55 31l-56 31.5q-143 82 -189 115q-144 105 -164 238q-4 24 -4 50q0 179 129 289t326 110
q119 0 227 -51t183 -143l-129 -113q-57 77 -135.5 112.5t-157.5 35.5q-115 0 -188.5 -62.5t-71.5 -156.5q0 -25 7.5 -48t16.5 -40.5t30.5 -38.5t36 -33t48 -33.5t51 -32t60.5 -35.5q21 -12 63 -35t64 -35.5t58.5 -34.5t56 -38t47 -39.5t42 -46t29.5 -50t21 -59.5t6 -67
q0 -138 -63.5 -238t-170 -149t-242.5 -49z" />
    <glyph glyph-name="T" unicode="T" horiz-adv-x="1083" 
d="M551 1296h-389l18 158h957l-19 -158h-393l-158 -1296h-174z" />
    <glyph glyph-name="U" unicode="U" horiz-adv-x="1363" 
d="M621 -12q-255 0 -365 166t-74 452l105 848h174l-105 -846q-17 -134 3.5 -233.5t88.5 -160t181 -60.5q351 0 403 438l107 862h174l-107 -864q-36 -306 -182.5 -454t-402.5 -148z" />
    <glyph glyph-name="V" unicode="V" horiz-adv-x="1269" 
d="M182 1454h185l237 -1212h4l529 1212h194l-669 -1454h-166z" />
    <glyph glyph-name="W" unicode="W" horiz-adv-x="1910" 
d="M188 1454h183l176 -1165h6l420 1165h194l148 -1145h4l453 1145h188l-596 -1454h-176l-152 1169h-4l-430 -1169h-176z" />
    <glyph glyph-name="X" unicode="X" horiz-adv-x="1224" 
d="M520 731l-344 723h197l280 -592h6l418 592h211l-528 -729l354 -725h-203l-284 592h-6l-431 -592h-202z" />
    <glyph glyph-name="Y" unicode="Y" horiz-adv-x="1136" 
d="M498 649l-346 805h192l256 -635h6l414 635h203l-549 -805l-82 -649h-174z" />
    <glyph glyph-name="Z" unicode="Z" horiz-adv-x="1179" 
d="M78 139l837 1151l-2 6h-659l18 158h887l-14 -139l-848 -1149l4 -8h705l-21 -158h-924z" />
    <glyph glyph-name="bracketleft" unicode="[" horiz-adv-x="614" 
d="M266 1493h373l-16 -129h-228l-186 -1532h225l-16 -129h-371z" />
    <glyph glyph-name="backslash" unicode="\" horiz-adv-x="765" 
d="M104 1513l136 62l495 -1745l-137 -61z" />
    <glyph glyph-name="bracketright" unicode="]" horiz-adv-x="618" 
d="M16 -168h232l188 1532h-231l14 129h379l-219 -1790h-379z" />
    <glyph glyph-name="asciicircum" unicode="^" horiz-adv-x="901" 
d="M500 1454h129l207 -430h-146l-135 315l-219 -315h-146z" />
    <glyph glyph-name="underscore" unicode="_" horiz-adv-x="964" 
d="M-78 -55h983l-12 -119h-983z" />
    <glyph glyph-name="grave" unicode="`" horiz-adv-x="948" 
d="M352 1399l185 -2l178 -289h-170z" />
    <glyph glyph-name="a" unicode="a" horiz-adv-x="1128" 
d="M428 -12q-165 0 -253.5 112.5t-88.5 288.5q0 121 36 233t100 198t159 138t205 52q84 0 158.5 -28t123.5 -79l4 2l13 90h162l-123 -995h-162l29 227l-7 2q-68 -115 -161 -178t-195 -63zM459 133q133 0 244 148t139 366l12 103q-46 54 -118.5 81t-139.5 27
q-77 0 -143.5 -40t-110 -106.5t-68 -151.5t-24.5 -175q0 -115 55 -183.5t154 -68.5z" />
    <glyph glyph-name="b" unicode="b" horiz-adv-x="1153" 
d="M508 -12q-233 0 -399 108l174 1411h161l-88 -729l4 -2q71 110 164 172t199 62q166 0 254 -118t88 -304q0 -115 -36 -221t-103.5 -191.5t-175.5 -136.5t-242 -51zM494 135q125 0 218.5 66t140 172t46.5 233q0 110 -54 181t-155 71q-142 0 -250.5 -144.5t-136.5 -365.5
l-22 -172q93 -41 213 -41z" />
    <glyph glyph-name="c" unicode="c" horiz-adv-x="995" 
d="M483 -12q-177 0 -286 108.5t-109 309.5q0 164 61.5 300t183 220t281.5 84q109 0 201 -42.5t148 -123.5l-129 -96q-74 110 -224 110q-159 0 -257.5 -128t-98.5 -314q0 -133 68.5 -206t171.5 -73q155 0 268 125l127 -92q-82 -91 -180 -136.5t-226 -45.5z" />
    <glyph glyph-name="d" unicode="d" horiz-adv-x="1150" 
d="M430 -12q-165 0 -253.5 112.5t-88.5 288.5q0 95 22.5 186.5t66 170t103.5 137.5t139.5 93t168.5 34q83 0 159.5 -27t129.5 -82l4 2l73 604h164l-186 -1507h-162l29 231l-6 2q-68 -117 -161.5 -181t-201.5 -64zM459 133q137 0 249 147.5t140 366.5l14 103
q-43 57 -116 82.5t-148 25.5q-102 0 -183 -69t-122 -176t-41 -228q0 -115 54 -183.5t153 -68.5z" />
    <glyph glyph-name="e" unicode="e" horiz-adv-x="966" 
d="M492 137q140 0 256 125l129 -92q-84 -92 -175.5 -137t-216.5 -45q-183 0 -290 110.5t-107 302.5q0 122 36.5 232.5t102 194t164.5 133t217 49.5q44 0 86.5 -9t82.5 -29.5t70.5 -50t49 -74t18.5 -97.5q0 -63 -27 -116t-77 -91t-112 -67.5t-140 -49.5t-152 -32.5
t-157 -20.5q7 -112 75 -174t167 -62zM600 860q-121 0 -219 -94t-125 -258q494 43 494 233q0 62 -44 90.5t-106 28.5z" />
    <glyph glyph-name="f" unicode="f" horiz-adv-x="612" 
d="M213 856h-104l16 141h106l27 215q37 310 281 310q118 0 209 -62l-46 -139q-67 49 -141 49q-59 0 -95.5 -41t-49.5 -149l-21 -183h238l-17 -141h-241l-105 -856h-161z" />
    <glyph glyph-name="g" unicode="g" horiz-adv-x="1134" 
d="M389 -418q-180 0 -330 90l54 144q139 -84 284 -84q80 0 138 16.5t110 59.5t85.5 126t49.5 207l17 125l-4 2q-71 -117 -165 -183.5t-198 -66.5q-165 0 -253.5 113t-88.5 289q0 87 22.5 173t66 160.5t103 132t139.5 91t169 33.5q83 0 158.5 -27.5t125.5 -79.5l2 2l13 92
h162l-107 -868q-16 -130 -53 -227.5t-86.5 -158t-117.5 -97t-138.5 -50.5t-157.5 -14zM459 166q128 0 240.5 134.5t138.5 322.5l16 127q-46 54 -118.5 81t-137.5 27q-103 0 -184 -67.5t-121.5 -167t-40.5 -205.5q0 -115 54.5 -183.5t152.5 -68.5z" />
    <glyph glyph-name="h" unicode="h" horiz-adv-x="1122" 
d="M281 1507h161l-90 -739h4q74 115 179.5 178.5t216.5 63.5q152 0 212.5 -100.5t32.5 -309.5l-79 -600h-164l80 588q20 143 -13.5 207.5t-120.5 64.5q-78 0 -163 -61.5t-150 -172t-80 -237.5l-49 -389h-162z" />
    <glyph glyph-name="i" unicode="i" horiz-adv-x="491" 
d="M348 1182q-50 0 -82.5 32.5t-32.5 81.5q0 51 34 85t85 34q50 0 82.5 -32.5t32.5 -82.5q0 -51 -34 -84.5t-85 -33.5zM225 997h164l-123 -997h-164z" />
    <glyph glyph-name="j" unicode="j" horiz-adv-x="436" 
d="M311 1182q-49 0 -81.5 32t-32.5 82q0 51 33.5 85t84.5 34q49 0 82 -32.5t33 -82.5q0 -51 -34 -84.5t-85 -33.5zM-59 -418q-90 0 -158 43l41 131q40 -30 94 -30q58 0 91 43.5t46 156.5l131 1071h164l-135 -1091q-20 -165 -87.5 -244.5t-186.5 -79.5z" />
    <glyph glyph-name="k" unicode="k" horiz-adv-x="1019" 
d="M860 -10q-24 -3 -47 0q-43 4 -73.5 20.5t-58.5 59t-42.5 72.5t-45.5 105l-9 21l-49 113q-122 -96 -252 -158l-25 -223h-162l185 1507h161l-135 -1104l4 -2q187 110 317 269.5t181 326.5h166q-67 -277 -313 -512l71 -170q45 -110 80 -147.5t94 -50.5z" />
    <glyph glyph-name="l" unicode="l" horiz-adv-x="483" 
d="M291 1507h162l-185 -1507h-162z" />
    <glyph glyph-name="m" unicode="m" horiz-adv-x="1689" 
d="M221 997h162l-27 -217l4 -2q73 110 167.5 171t189.5 61q213 0 239 -228h7q71 108 166 168t200 60q148 0 208 -101t32 -309l-80 -600h-164l80 588q35 272 -121 272q-47 0 -103.5 -34t-108.5 -92.5t-92.5 -147t-53.5 -187.5l-54 -399h-161l77 588q38 272 -118 272
q-49 0 -107 -37t-110 -98t-92 -149.5t-52 -182.5l-49 -393h-164z" />
    <glyph glyph-name="n" unicode="n" horiz-adv-x="1122" 
d="M219 997h162l-27 -225l4 -2q76 114 180 177t214 63q152 0 212.5 -100.5t32.5 -309.5l-79 -600h-162l78 588q20 143 -13.5 207.5t-120.5 64.5q-122 0 -245.5 -138t-147.5 -329l-49 -393h-162z" />
    <glyph glyph-name="o" unicode="o" horiz-adv-x="1114" 
d="M500 -12q-190 0 -301 110.5t-111 307.5q0 120 36.5 229t102.5 192.5t166 133t219 49.5q189 0 301.5 -108t112.5 -302q0 -173 -60.5 -310.5t-181.5 -219.5t-284 -82zM504 137q157 0 256.5 127.5t99.5 321.5q0 141 -73.5 206.5t-182.5 65.5q-102 0 -183.5 -60.5t-125 -159
t-43.5 -214.5q0 -130 67.5 -208.5t184.5 -78.5z" />
    <glyph glyph-name="p" unicode="p" horiz-adv-x="1150" 
d="M219 997h162l-29 -231l4 -2q148 246 377 246q106 0 182.5 -56t113 -146t36.5 -202q0 -161 -61 -301t-178.5 -228.5t-266.5 -88.5q-188 0 -285 100l-4 -2l-61 -492h-162zM522 135q114 0 202 65.5t132.5 169.5t44.5 226q0 115 -53 190.5t-150 75.5q-139 0 -253 -145.5
t-142 -358.5l-14 -108q35 -59 100 -87t133 -28z" />
    <glyph glyph-name="q" unicode="q" horiz-adv-x="1130" 
d="M793 231l-7 2q-68 -116 -161.5 -180.5t-194.5 -64.5q-166 0 -255 112.5t-89 288.5q0 121 36 233t100 198t159 138t205 52q83 0 157.5 -26.5t124.5 -76.5l4 2l13 88h162l-173 -1403h-161zM459 133q132 0 243.5 148.5t139.5 361.5l12 107q-46 55 -118.5 82.5t-139.5 27.5
q-102 0 -182.5 -69t-121 -176.5t-40.5 -229.5q0 -115 54 -183.5t153 -68.5z" />
    <glyph glyph-name="r" unicode="r" horiz-adv-x="669" 
d="M221 997h162l-29 -223h4q134 211 338 236l-20 -191q-148 7 -245.5 -110.5t-121.5 -313.5l-49 -395h-164z" />
    <glyph glyph-name="s" unicode="s" horiz-adv-x="849" 
d="M379 -12q-108 0 -201.5 42t-150.5 117l108 109q103 -125 244 -125q88 0 144.5 37.5t56.5 103.5q0 37 -29 67.5t-56.5 45t-101.5 46.5q-5 3 -8 4t-7.5 3t-8.5 4q-54 24 -94 48t-76 58t-55 78t-19 97q0 127 97 207t233 80q202 0 321 -136l-108 -110q-86 102 -217 102
q-69 0 -114.5 -36.5t-45.5 -98.5q0 -50 45 -86.5t133 -77.5q121 -56 163 -85q112 -77 113 -191q0 -146 -101.5 -224.5t-264.5 -78.5z" />
    <glyph glyph-name="t" unicode="t" horiz-adv-x="686" 
d="M334 -12q-117 0 -165 75.5t-32 208.5l72 584h-111l15 141h112l43 328l164 31l-43 -359h281l-15 -141h-282l-70 -557q-19 -156 84 -156q76 0 164 60l22 -146q-107 -69 -239 -69z" />
    <glyph glyph-name="u" unicode="u" horiz-adv-x="1093" 
d="M387 -12q-157 0 -224.5 96t-39.5 305l84 608h162l-80 -594q-19 -148 18.5 -207t126.5 -59q51 0 109.5 33t109.5 88t90 135.5t50 167.5l53 436h164l-123 -997h-162l27 225h-4q-62 -109 -156 -173t-205 -64z" />
    <glyph glyph-name="v" unicode="v" horiz-adv-x="1011" 
d="M399 -12q-165 0 -232.5 107.5t-39.5 326.5l72 575h163l-71 -561q-20 -162 11.5 -230.5t113.5 -68.5q48 0 99 27.5t99 78.5t88 134t62 184q42 203 6 436h166q42 -250 -10 -483q-30 -135 -87.5 -239t-129 -165t-150 -91.5t-160.5 -30.5z" />
    <glyph glyph-name="w" unicode="w" horiz-adv-x="1591" 
d="M373 -12q-147 0 -212 102.5t-36 315.5l78 591h162l-74 -581q-9 -82 -5 -136t25 -85.5t48.5 -44.5t66.5 -13t85 25.5t92.5 74.5t83.5 134.5t50 191.5l54 434h163l-73 -587q-19 -150 15 -211.5t110 -61.5q96 0 196.5 113t140.5 311q43 206 7 436h166q41 -247 -11 -483
q-30 -135 -86.5 -239t-127.5 -165t-147.5 -91.5t-154.5 -30.5q-119 0 -188.5 63.5t-77.5 173.5h-4q-54 -105 -157.5 -171t-188.5 -66z" />
    <glyph glyph-name="x" unicode="x" horiz-adv-x="948" 
d="M379 506l-260 491h188l180 -366h5l268 366h198l-385 -499l263 -498h-187l-184 371h-4l-279 -371h-188z" />
    <glyph glyph-name="y" unicode="y" horiz-adv-x="1091" 
d="M1008 997l-105 -868q-16 -131 -53.5 -229t-86 -158t-114 -96.5t-130.5 -50t-142 -13.5q-177 0 -330 90l53 144q141 -84 279 -84q57 0 102 9.5t90 36.5t77.5 72t57.5 118.5t37 172.5l11 82l-4 2q-65 -110 -160 -173.5t-207 -63.5q-158 0 -225.5 95.5t-38.5 305.5l82 608
h161l-77 -594q-19 -148 18 -207t127 -59q115 0 230.5 132.5t136.5 310.5l51 417h160z" />
    <glyph glyph-name="z" unicode="z" horiz-adv-x="913" 
d="M743 -53q-65 20 -138 31.5t-185 16t-176 5t-226 0.5l13 119l602 735v2h-481l16 141h704l-12 -116l-606 -736v-4q189 -4 312.5 -15.5t221.5 -43.5z" />
    <glyph glyph-name="braceleft" unicode="{" horiz-adv-x="657" 
d="M354 -295q-87 0 -139 63t-39 166l55 441q5 29 3.5 55.5t-10.5 46.5t-39 33t-81 16l11 129q52 4 86 18t50.5 39.5t23 47.5t10.5 55l55 455q12 97 73 160t154 63h109l-14 -117h-50q-57 0 -92.5 -42t-42.5 -99l-55 -442q-9 -89 -37.5 -135t-89.5 -66v-4q56 -19 73 -62
t5 -143l-49 -406q-11 -83 10.5 -119t81.5 -36h55l-16 -117h-101z" />
    <glyph glyph-name="bar" unicode="|" horiz-adv-x="614" 
d="M358 1509h144l-213 -1745h-144z" />
    <glyph glyph-name="braceright" unicode="}" horiz-adv-x="659" 
d="M23 -178h49q63 0 94.5 39t42.5 123l49 405q12 101 38.5 141.5t90.5 61.5v4q-53 18 -70.5 66.5t-5.5 136.5l51 442q7 59 -15.5 97t-80.5 38h-53l14 117h103q92 0 140.5 -66.5t37.5 -162.5l-57 -455q-6 -27 -4 -53t10 -47t38.5 -35.5t82.5 -18.5l-11 -129
q-43 -2 -73.5 -12.5t-47.5 -24t-28 -36t-14.5 -40.5t-6.5 -46l-53 -439q-13 -103 -76.5 -163t-150.5 -60h-111z" />
    <glyph glyph-name="asciitilde" unicode="~" horiz-adv-x="1077" 
d="M717 434q-38 0 -75 11t-53.5 19.5t-49.5 27.5q-90 55 -142 55q-88 0 -155 -111l-115 53q44 99 109.5 156t146.5 57q21 0 41 -3t32.5 -6t31 -11t24.5 -11.5t24.5 -14t20.5 -11.5q34 -21 52.5 -30.5t43.5 -18t47 -8.5q44 0 84 29.5t66 80.5l117 -47q-43 -101 -109.5 -159
t-140.5 -58z" />
    <glyph glyph-name="uni00A0" unicode="&#xa0;" horiz-adv-x="440" 
 />
    <glyph glyph-name="exclamdown" unicode="&#xa1;" horiz-adv-x="495" 
d="M279 1012q49 0 80.5 -32.5t31.5 -82.5q0 -52 -34 -86.5t-85 -34.5q-49 0 -81.5 32.5t-32.5 82.5q0 53 34 87t87 34zM205 -510h-180l163 1081h119z" />
    <glyph glyph-name="cent" unicode="&#xa2;" horiz-adv-x="1017" 
d="M510 248q160 0 276 125l127 -92q-136 -154 -325 -179l-27 -211h-117l27 209q-160 9 -258 118t-98 292q0 155 56.5 287t165.5 219t253 102l26 219h117l-26 -221q88 -9 161.5 -50t118.5 -110l-129 -96q-35 55 -92.5 83t-120.5 28q-162 0 -263 -129.5t-101 -321.5
q0 -123 67 -197.5t162 -74.5z" />
    <glyph glyph-name="sterling" unicode="&#xa3;" horiz-adv-x="1046" 
d="M57 158h138l67 547h-112l16 124h110l17 129q12 102 41.5 182t68.5 131t89 84.5t101 47.5t107 14q108 0 195 -54.5t137 -150.5l-108 -112q-33 74 -87.5 113.5t-119.5 39.5q-216 0 -252 -321l-14 -103h299l-17 -124h-297l-67 -547h579l-20 -158h-891z" />
    <glyph glyph-name="currency" unicode="&#xa4;" horiz-adv-x="950" 
d="M858 840q0 -158 -100 -279l121 -153l-88 -80l-123 153q-91 -59 -207 -59q-114 0 -195 59l-153 -151l-76 80l160 155q-37 67 -37 160q0 168 96 291l-125 158l90 77l121 -151q97 65 211 65q115 0 192 -65l154 153l76 -77l-160 -160q43 -70 43 -176zM279 743
q0 -91 53 -146.5t143 -55.5q112 0 187 83.5t75 202.5q0 99 -54.5 159.5t-141.5 60.5q-112 0 -187 -88.5t-75 -215.5z" />
    <glyph glyph-name="yen" unicode="&#xa5;" horiz-adv-x="1064" 
d="M713 723h237l-14 -113h-297l-6 -10l-19 -143h301l-14 -113h-301l-43 -344h-174l43 344h-309l14 113h307l19 143l-4 10h-303l14 113h246l-269 684h201l223 -633h4l375 633h207z" />
    <glyph glyph-name="brokenbar" unicode="&#xa6;" horiz-adv-x="614" 
d="M418 823l-47 -387l-39 -317h-144l127 1040h144l-39 -319z" />
    <glyph glyph-name="section" unicode="&#xa7;" horiz-adv-x="1028" 
d="M610 866q138 -63 179 -90q105 -67 122 -169q4 -23 4 -48q0 -105 -53 -179.5t-147 -117.5q106 -75 106 -209q0 -164 -111.5 -265t-289.5 -101q-116 0 -213.5 48t-163.5 142l107 115q48 -75 123 -112.5t151 -37.5q96 0 157.5 53.5t61.5 141.5q0 36 -12.5 63t-44.5 51
t-63.5 41t-93.5 46q-9 4 -13 6q-42 20 -65 31.5t-58 32t-54.5 36t-43 39.5t-35.5 48t-20.5 56t-8.5 68q0 98 53 173t144 116q-101 81 -101 211q0 154 108 252t267 98q103 0 199 -41.5t153 -106.5l-104 -114q-98 104 -240 104q-92 0 -148 -49t-56 -133q0 -35 11.5 -61
t40.5 -50t61 -42t91 -46zM586 338q74 22 118 76t44 125q0 28 -10 50.5t-23 38t-46 35t-58 31.5t-81 37q-13 6 -36.5 17.5t-36.5 17.5q-72 -17 -115 -72t-43 -123q0 -23 5 -41.5t20.5 -36t27.5 -29t43 -29.5t49.5 -27.5t63.5 -32.5q49 -25 78 -37z" />
    <glyph glyph-name="dieresis" unicode="&#xa8;" horiz-adv-x="964" 
d="M399 1149q-49 0 -81.5 32.5t-32.5 82.5q0 51 34.5 84.5t86.5 33.5q48 0 80 -32.5t32 -81.5q0 -51 -34 -85t-85 -34zM750 1149q-51 0 -84 32.5t-33 82.5q0 51 35 84.5t86 33.5q48 0 80 -32.5t32 -81.5q0 -51 -33 -85t-83 -34z" />
    <glyph glyph-name="copyright" unicode="&#xa9;" horiz-adv-x="1437" 
d="M715 25q-170 0 -313 85t-225.5 229t-82.5 312t82.5 312t226.5 229.5t314 85.5q172 0 315 -85t224 -229t81 -313q0 -125 -48 -240t-130.5 -200t-198.5 -135.5t-245 -50.5zM715 141q139 0 255.5 69.5t182.5 186.5t66 254q0 138 -65.5 255t-181 186t-255.5 69t-256 -69.5
t-182 -187t-66 -255.5q0 -136 66 -253t181.5 -186t254.5 -69zM731 313q-143 0 -238.5 88.5t-95.5 245.5q0 144 88.5 240t245.5 96q158 0 260 -127l-80 -68q-73 93 -180 93q-102 0 -161.5 -64.5t-59.5 -169.5q0 -106 60.5 -167.5t160.5 -61.5q112 0 180 88l80 -68
q-102 -125 -260 -125z" />
    <glyph glyph-name="ordfeminine" unicode="&#xaa;" horiz-adv-x="759" 
d="M354 801q-92 0 -151.5 64t-59.5 184q0 151 92.5 258.5t227.5 107.5q96 0 158 -55h4l8 47h117l-74 -598h-119l14 117h-4q-87 -125 -213 -125zM375 915q75 0 144 74t85 193l6 59q-16 29 -55.5 45.5t-79.5 16.5q-92 0 -150.5 -76.5t-58.5 -177.5q0 -64 29 -99t80 -35z" />
    <glyph glyph-name="guillemotleft" unicode="&#xab;" horiz-adv-x="909" 
d="M90 502l289 452h158l-285 -452l174 -449h-158zM436 502l291 452h156l-285 -452l172 -449h-156z" />
    <glyph glyph-name="logicalnot" unicode="&#xac;" horiz-adv-x="1069" 
d="M819 659h-678l17 150h827l-57 -471h-148z" />
    <glyph glyph-name="registered" unicode="&#xae;" horiz-adv-x="1437" 
d="M717 1278q172 0 315 -85t224 -229t81 -313q0 -125 -48 -240t-130.5 -200t-198.5 -135.5t-245 -50.5q-170 0 -313 85t-225.5 229t-82.5 312t82.5 312t226.5 229.5t314 85.5zM715 141q139 0 255.5 69.5t182.5 186.5t66 254q0 138 -65.5 255t-181 186t-255.5 69t-256 -69.5
t-182 -187t-66 -255.5q0 -136 66 -253t181.5 -186t254.5 -69zM961 778q0 -157 -144 -198l176 -256h-125l-168 245h-96v-245h-102v663h237q112 0 167 -57t55 -152zM606 666h109q71 0 104 31.5t33 82.5q0 50 -34 79.5t-93 29.5h-119v-223z" />
    <glyph glyph-name="macron" unicode="&#xaf;" horiz-adv-x="854" 
d="M260 1329h537l-17 -141h-536z" />
    <glyph glyph-name="degree" unicode="&#xb0;" horiz-adv-x="772" 
d="M434 911q-108 0 -169.5 63t-61.5 165q0 137 85 232t214 95q104 0 169.5 -65t65.5 -176q0 -127 -85.5 -220.5t-217.5 -93.5zM446 1028q75 0 126 54t51 132q0 63 -35 101.5t-96 38.5q-75 0 -125 -57.5t-50 -143.5q0 -59 33.5 -92t95.5 -33z" />
    <glyph glyph-name="plusminus" unicode="&#xb1;" horiz-adv-x="1114" 
d="M516 729h-356l18 150h357l49 405h153l-51 -405h356l-18 -150h-356l-50 -403h-151zM86 147h864l-18 -149h-864z" />
    <glyph glyph-name="uni00B2" unicode="&#xb2;" horiz-adv-x="641" 
d="M115 989l293 283q70 67 106.5 120.5t36.5 114.5q0 50 -26.5 79.5t-73.5 29.5q-45 0 -90.5 -27.5t-77.5 -81.5l-99 82q44 71 119 114.5t162 43.5q101 0 164 -60t63 -161q0 -91 -42.5 -164.5t-127.5 -153.5l-198 -186l2 -2h315l-14 -127h-523z" />
    <glyph glyph-name="uni00B3" unicode="&#xb3;" horiz-adv-x="649" 
d="M377 881q-105 0 -175 52t-91 132l129 45q23 -104 131 -104q71 0 114 46t43 115q0 47 -33.5 76t-93.5 29h-63l12 108h72q59 0 100 43.5t41 102.5q0 46 -28 71t-74 25q-94 0 -148 -86l-110 70q38 63 107 102t153 39q104 0 168.5 -52.5t64.5 -146.5q0 -72 -35 -128t-98 -87
v-6q109 -48 109 -172q0 -125 -83.5 -199.5t-211.5 -74.5z" />
    <glyph glyph-name="acute" unicode="&#xb4;" horiz-adv-x="942" 
d="M629 1397l184 2l-262 -291h-170z" />
    <glyph glyph-name="uni00B5" unicode="&#xb5;" horiz-adv-x="1124" 
d="M1055 25q-61 -37 -150 -37t-130 54t-38 144q-53 -95 -130.5 -146.5t-170.5 -51.5q-136 0 -182 108l-4 -2q4 -124 -10 -219l-37 -281h-160l172 1403h162l-74 -596q-17 -137 28 -200.5t122 -63.5q112 0 203.5 96t113.5 273l61 491h162l-90 -718q-10 -79 2.5 -111.5
t65.5 -32.5q25 0 55 6z" />
    <glyph glyph-name="paragraph" unicode="&#xb6;" horiz-adv-x="940" 
d="M725 1221h-117l-149 -1221h-111l92 723q-125 0 -202.5 66.5t-77.5 183.5q0 152 102 257t275 105h309l-201 -1642h-108z" />
    <glyph glyph-name="periodcentered" unicode="&#xb7;" horiz-adv-x="487" 
d="M252 379q-49 0 -81 32.5t-32 82.5q0 52 34 86t85 34q50 0 82.5 -32.5t32.5 -81.5q0 -52 -34.5 -86.5t-86.5 -34.5z" />
    <glyph glyph-name="cedilla" unicode="&#xb8;" horiz-adv-x="628" 
d="M147 -385q-43 0 -90 12l6 88q30 -12 72 -12q58 0 94.5 25t36.5 71q0 63 -141 66l4 61l49 86h103l-50 -80l2 -2q148 -10 148 -131q0 -87 -65 -135.5t-169 -48.5z" />
    <glyph glyph-name="uni00B9" unicode="&#xb9;" horiz-adv-x="514" 
d="M537 1737l-105 -844h-137l82 661l-152 -106l-57 108l260 181h109z" />
    <glyph glyph-name="ordmasculine" unicode="&#xba;" horiz-adv-x="704" 
d="M393 803q-113 0 -180.5 66t-67.5 186q0 94 36.5 175t111 133t172.5 52q110 0 178 -62.5t68 -183.5q0 -96 -35.5 -178t-109.5 -135t-173 -53zM397 915q77 0 131 70.5t54 173.5q0 73 -35.5 108.5t-89.5 35.5q-77 0 -131 -70t-54 -166q0 -68 34 -110t91 -42z" />
    <glyph glyph-name="guillemotright" unicode="&#xbb;" horiz-adv-x="905" 
d="M313 502l-176 452h158l178 -452l-287 -449h-157zM662 502l-177 452h158l178 -452l-286 -449h-158z" />
    <glyph glyph-name="onequarter" unicode="&#xbc;" horiz-adv-x="1417" 
d="M1176 1421l-752 -1454l-131 60l751 1456zM260 612l82 662l-152 -107l-57 109l260 180h109l-105 -844h-137zM1341 262l-16 -123h-111l-16 -139h-139l18 139h-340l11 92l444 613h111l-72 -582h110zM1108 254l45 360l-252 -360h207z" />
    <glyph glyph-name="onehalf" unicode="&#xbd;" horiz-adv-x="1488" 
d="M1176 1421l-752 -1454l-131 60l751 1456zM260 612l82 662l-152 -107l-57 109l260 180h109l-105 -844h-137zM1063 127h315l-14 -127h-522l10 96l293 283q70 67 106.5 120.5t36.5 114.5q0 50 -26.5 79.5t-73.5 29.5q-45 0 -90.5 -27.5t-77.5 -81.5l-98 82
q44 71 118.5 114.5t161.5 43.5q101 0 164.5 -60t63.5 -161q0 -91 -42.5 -164.5t-127.5 -153.5l-199 -186z" />
    <glyph glyph-name="threequarters" unicode="&#xbe;" horiz-adv-x="1515" 
d="M1274 1421l-752 -1454l-131 60l752 1456zM637 874q0 -125 -83.5 -199.5t-211.5 -74.5q-105 0 -175 52t-91 132l129 45q23 -104 131 -104q71 0 114.5 46.5t43.5 115.5q0 47 -33.5 75.5t-93.5 28.5h-64l12 109h72q59 0 100 43t41 102q0 46 -28 71t-74 25q-93 0 -147 -86
l-111 70q38 63 107 102t153 39q104 0 169 -52t65 -146q0 -72 -35.5 -128t-98.5 -87v-6q52 -23 80.5 -68t28.5 -105zM1440 262l-17 -123h-110l-17 -139h-139l19 139h-340l10 92l444 613h111l-72 -582h111zM1206 254l45 360l-252 -360h207z" />
    <glyph glyph-name="questiondown" unicode="&#xbf;" horiz-adv-x="811" 
d="M530 1010q49 0 81 -32.5t32 -82.5q0 -52 -34 -86.5t-85 -34.5q-49 0 -81.5 32.5t-32.5 82.5q0 53 34 87t86 34zM563 465q-3 -26 -9 -49.5t-21 -49.5t-23 -41t-33.5 -44.5t-33 -38.5t-41.5 -44t-40 -42q-56 -60 -88 -102t-56.5 -102t-24.5 -124q0 -92 47.5 -141t128.5 -49
q143 0 241 137l107 -109q-68 -91 -172.5 -141.5t-218.5 -50.5q-139 0 -229.5 85t-90.5 238q0 123 58.5 222.5t160.5 199.5q43 41 55 53t44 45.5t43.5 51.5t25 45t17.5 53l16 104h149z" />
    <glyph glyph-name="Agrave" unicode="&#xc0;" horiz-adv-x="1282" 
d="M502 1866h182l184 -264h-166zM666 1454h184l317 -1454h-182l-74 356h-575l-160 -356h-182zM881 510l-150 725h-4l-324 -725h478z" />
    <glyph glyph-name="Aacute" unicode="&#xc1;" horiz-adv-x="1282" 
d="M948 1866h189l-267 -264h-165zM666 1454h184l317 -1454h-182l-74 356h-575l-160 -356h-182zM881 510l-150 725h-4l-324 -725h478z" />
    <glyph glyph-name="Acircumflex" unicode="&#xc2;" horiz-adv-x="1282" 
d="M737 1855h158l180 -253h-157l-113 153h-4l-156 -153h-160zM666 1454h184l317 -1454h-182l-74 356h-575l-160 -356h-182zM881 510l-150 725h-4l-324 -725h478z" />
    <glyph glyph-name="Atilde" unicode="&#xc3;" horiz-adv-x="1282" 
d="M944 1599q-32 0 -66 14t-50 25t-44 33q-60 49 -98 49q-73 0 -123 -116l-104 53q86 184 215 184q18 0 34.5 -3t27.5 -6.5t26 -11.5t21 -12t21 -14.5t19 -13.5q23 -19 36 -29t33.5 -19.5t37.5 -9.5q34 0 66 30.5t55 84.5l104 -41q-38 -93 -94 -145t-117 -52zM666 1454h184
l317 -1454h-182l-74 356h-575l-160 -356h-182zM881 510l-150 725h-4l-324 -725h478z" />
    <glyph glyph-name="Adieresis" unicode="&#xc4;" horiz-adv-x="1282" 
d="M623 1624q-49 0 -82 33t-33 82q0 51 34.5 85t86.5 34q47 0 79.5 -33t32.5 -82q0 -51 -33.5 -85t-84.5 -34zM973 1624q-51 0 -84 32.5t-33 82.5q0 51 35 85t86 34q48 0 80.5 -33t32.5 -82q0 -51 -33.5 -85t-83.5 -34zM666 1454h184l317 -1454h-182l-74 356h-575l-160 -356
h-182zM881 510l-150 725h-4l-324 -725h478z" />
    <glyph glyph-name="Aring" unicode="&#xc5;" horiz-adv-x="1282" 
d="M797 1577q-80 0 -134.5 54.5t-54.5 135.5q0 82 56.5 137.5t140.5 55.5q79 0 133.5 -54t54.5 -134q0 -84 -55.5 -139.5t-140.5 -55.5zM799 1683q38 0 64 25.5t26 63.5q0 35 -24.5 59t-61.5 24q-38 0 -64 -25.5t-26 -62.5t24.5 -60.5t61.5 -23.5zM666 1454h184l317 -1454
h-182l-74 356h-575l-160 -356h-182zM881 510l-150 725h-4l-324 -725h478z" />
    <glyph glyph-name="AE" unicode="&#xc6;" horiz-adv-x="1757" 
d="M821 1454h910l-21 -158h-641l-61 -493h534l-20 -158h-533l-59 -487h678l-19 -158h-850l45 356h-428l-213 -356h-190zM803 510l92 758h-4l-449 -758h361z" />
    <glyph glyph-name="Ccedilla" unicode="&#xc7;" horiz-adv-x="1384" 
d="M723 154q104 0 208.5 51t180.5 141l131 -115q-100 -110 -234 -175t-282 -68l-35 -56l2 -2q148 -10 148 -131q0 -87 -65 -135.5t-169 -48.5q-44 0 -90 12l6 88q30 -12 72 -12q58 0 94.5 25t36.5 71q0 63 -141 66l4 61l39 68q-222 27 -354 184t-132 420q0 174 55 332.5
t151 277.5t237 189.5t303 70.5q314 0 500 -307l-148 -102q-70 126 -157 183.5t-201 57.5q-162 0 -291.5 -101t-197.5 -260.5t-68 -340.5q0 -208 104.5 -326t292.5 -118z" />
    <glyph glyph-name="Egrave" unicode="&#xc8;" horiz-adv-x="1144" 
d="M549 1868h182l184 -264h-165zM307 1454h811l-20 -158h-637l-60 -493h523l-21 -158h-522l-59 -487h675l-18 -158h-850z" />
    <glyph glyph-name="Eacute" unicode="&#xc9;" horiz-adv-x="1144" 
d="M811 1868h188l-266 -264h-166zM307 1454h811l-20 -158h-637l-60 -493h523l-21 -158h-522l-59 -487h675l-18 -158h-850z" />
    <glyph glyph-name="Ecircumflex" unicode="&#xca;" horiz-adv-x="1144" 
d="M698 1858h158l180 -254h-157l-113 153h-4l-156 -153h-160zM307 1454h811l-20 -158h-637l-60 -493h523l-21 -158h-522l-59 -487h675l-18 -158h-850z" />
    <glyph glyph-name="Edieresis" unicode="&#xcb;" horiz-adv-x="1144" 
d="M584 1626q-50 0 -82.5 33t-32.5 82q0 51 34.5 85t86.5 34q47 0 79.5 -33t32.5 -82q0 -51 -33.5 -85t-84.5 -34zM934 1626q-51 0 -84 32.5t-33 82.5q0 51 35 85t86 34q48 0 80.5 -33t32.5 -82q0 -51 -33.5 -85t-83.5 -34zM307 1454h811l-20 -158h-637l-60 -493h523
l-21 -158h-522l-59 -487h675l-18 -158h-850z" />
    <glyph glyph-name="Igrave" unicode="&#xcc;" horiz-adv-x="577" 
d="M145 1866h183l184 -264h-166zM317 1454h177l-179 -1454h-176z" />
    <glyph glyph-name="Iacute" unicode="&#xcd;" horiz-adv-x="577" 
d="M596 1866h188l-266 -264h-166zM317 1454h177l-179 -1454h-176z" />
    <glyph glyph-name="Icircumflex" unicode="&#xce;" horiz-adv-x="577" 
d="M379 1855h158l180 -253h-158l-113 153h-4l-155 -153h-160zM317 1454h177l-179 -1454h-176z" />
    <glyph glyph-name="Idieresis" unicode="&#xcf;" horiz-adv-x="577" 
d="M264 1624q-49 0 -81.5 32.5t-32.5 82.5q0 51 34 85t86 34q48 0 80.5 -33t32.5 -82q0 -51 -34 -85t-85 -34zM614 1624q-51 0 -83.5 32.5t-32.5 82.5q0 51 34.5 85t85.5 34q48 0 80.5 -33t32.5 -82q0 -51 -33.5 -85t-83.5 -34zM317 1454h177l-179 -1454h-176z" />
    <glyph glyph-name="Eth" unicode="&#xd0;" horiz-adv-x="1398" 
d="M717 1454q286 0 438 -158t152 -438q0 -253 -94 -447.5t-270 -302.5t-408 -108h-406l80 649h-135l24 154h129l80 651h410zM551 158q171 0 302 90.5t201 248.5t70 359q0 205 -108.5 322.5t-310.5 117.5h-242l-60 -493h328l-22 -154h-326l-59 -491h227z" />
    <glyph glyph-name="Ntilde" unicode="&#xd1;" horiz-adv-x="1452" 
d="M1034 1599q-32 0 -66 14t-50 25t-44 33q-60 49 -98 49q-73 0 -123 -116l-104 53q86 184 215 184q18 0 34.5 -3t27.5 -6.5t26 -11.5t21 -12t21 -14.5t19 -13.5q23 -19 36 -29t33.5 -19.5t37.5 -9.5q34 0 66 30.5t55 84.5l104 -41q-38 -93 -94 -145t-117 -52zM307 1454h174
l576 -1157l6 2l141 1155h176l-180 -1454h-176l-575 1147h-5l-141 -1147h-174z" />
    <glyph glyph-name="Ograve" unicode="&#xd2;" horiz-adv-x="1556" 
d="M674 1866h182l184 -264h-166zM717 -12q-263 0 -419.5 161.5t-156.5 446.5q0 171 54.5 329t151 278.5t239 192.5t307.5 72q262 0 419.5 -161t157.5 -447q0 -175 -52.5 -333t-147.5 -278t-238.5 -190.5t-314.5 -70.5zM729 152q163 0 293 99t199 258.5t69 344.5
q0 220 -110 335.5t-306 115.5q-158 0 -286 -101.5t-196 -262t-68 -341.5q0 -216 108 -332t297 -116z" />
    <glyph glyph-name="Oacute" unicode="&#xd3;" horiz-adv-x="1556" 
d="M1098 1866h188l-266 -264h-166zM717 -12q-263 0 -419.5 161.5t-156.5 446.5q0 171 54.5 329t151 278.5t239 192.5t307.5 72q262 0 419.5 -161t157.5 -447q0 -175 -52.5 -333t-147.5 -278t-238.5 -190.5t-314.5 -70.5zM729 152q163 0 293 99t199 258.5t69 344.5
q0 220 -110 335.5t-306 115.5q-158 0 -286 -101.5t-196 -262t-68 -341.5q0 -216 108 -332t297 -116z" />
    <glyph glyph-name="Ocircumflex" unicode="&#xd4;" horiz-adv-x="1556" 
d="M911 1855h158l180 -253h-157l-113 153h-4l-156 -153h-160zM717 -12q-263 0 -419.5 161.5t-156.5 446.5q0 171 54.5 329t151 278.5t239 192.5t307.5 72q262 0 419.5 -161t157.5 -447q0 -175 -52.5 -333t-147.5 -278t-238.5 -190.5t-314.5 -70.5zM729 152q163 0 293 99
t199 258.5t69 344.5q0 220 -110 335.5t-306 115.5q-158 0 -286 -101.5t-196 -262t-68 -341.5q0 -216 108 -332t297 -116z" />
    <glyph glyph-name="Otilde" unicode="&#xd5;" horiz-adv-x="1556" 
d="M1118 1599q-32 0 -66 14t-50 25t-44 33q-60 49 -98 49q-73 0 -123 -116l-104 53q86 184 215 184q18 0 34.5 -3t27.5 -6.5t26 -11.5t21 -12t21 -14.5t19 -13.5q23 -19 36 -29t33.5 -19.5t37.5 -9.5q34 0 66 30.5t55 84.5l104 -41q-38 -93 -94 -145t-117 -52zM717 -12
q-263 0 -419.5 161.5t-156.5 446.5q0 171 54.5 329t151 278.5t239 192.5t307.5 72q262 0 419.5 -161t157.5 -447q0 -175 -52.5 -333t-147.5 -278t-238.5 -190.5t-314.5 -70.5zM729 152q163 0 293 99t199 258.5t69 344.5q0 220 -110 335.5t-306 115.5q-158 0 -286 -101.5
t-196 -262t-68 -341.5q0 -216 108 -332t297 -116z" />
    <glyph glyph-name="Odieresis" unicode="&#xd6;" horiz-adv-x="1556" 
d="M797 1624q-49 0 -82 33t-33 82q0 51 34.5 85t86.5 34q47 0 79.5 -33t32.5 -82q0 -51 -33.5 -85t-84.5 -34zM1147 1624q-51 0 -84 32.5t-33 82.5q0 51 35 85t86 34q48 0 80.5 -33t32.5 -82q0 -51 -33.5 -85t-83.5 -34zM717 -12q-263 0 -419.5 161.5t-156.5 446.5
q0 171 54.5 329t151 278.5t239 192.5t307.5 72q262 0 419.5 -161t157.5 -447q0 -175 -52.5 -333t-147.5 -278t-238.5 -190.5t-314.5 -70.5zM729 152q163 0 293 99t199 258.5t69 344.5q0 220 -110 335.5t-306 115.5q-158 0 -286 -101.5t-196 -262t-68 -341.5q0 -216 108 -332
t297 -116z" />
    <glyph glyph-name="multiply" unicode="&#xd7;" horiz-adv-x="983" 
d="M86 262l307 305l-233 305l121 105l229 -305l307 305l98 -105l-309 -307l232 -305l-117 -102l-232 303l-305 -303z" />
    <glyph glyph-name="Oslash" unicode="&#xd8;" horiz-adv-x="1564" 
d="M1372 1241q103 -153 103 -381q0 -140 -33 -270t-98 -239t-154.5 -190.5t-210.5 -127t-258 -45.5q-237 0 -389 131l-152 -164l-90 90l158 170q-103 153 -103 381q0 171 54.5 329t151 278.5t239 192.5t307.5 72q239 0 391 -133l150 160l88 -88zM328 600q0 -142 49 -246
l792 852q-108 99 -290 99q-119 0 -223.5 -59.5t-175.5 -158t-111.5 -225.5t-40.5 -262zM1294 854q0 146 -51 248l-790 -852q104 -98 280 -98q163 0 293 99t199 258.5t69 344.5z" />
    <glyph glyph-name="Ugrave" unicode="&#xd9;" horiz-adv-x="1363" 
d="M551 1864h182l185 -265h-166zM621 -12q-255 0 -365 166t-74 452l105 848h174l-105 -846q-17 -134 3.5 -233.5t88.5 -160t181 -60.5q351 0 403 438l107 862h174l-107 -864q-36 -306 -182.5 -454t-402.5 -148z" />
    <glyph glyph-name="Uacute" unicode="&#xda;" horiz-adv-x="1363" 
d="M958 1866h189l-266 -264h-166zM621 -12q-255 0 -365 166t-74 452l105 848h174l-105 -846q-17 -134 3.5 -233.5t88.5 -160t181 -60.5q351 0 403 438l107 862h174l-107 -864q-36 -306 -182.5 -454t-402.5 -148z" />
    <glyph glyph-name="Ucircumflex" unicode="&#xdb;" horiz-adv-x="1363" 
d="M780 1855h158l180 -253h-157l-113 153h-4l-156 -153h-160zM621 -12q-255 0 -365 166t-74 452l105 848h174l-105 -846q-17 -134 3.5 -233.5t88.5 -160t181 -60.5q351 0 403 438l107 862h174l-107 -864q-36 -306 -182.5 -454t-402.5 -148z" />
    <glyph glyph-name="Udieresis" unicode="&#xdc;" horiz-adv-x="1363" 
d="M666 1624q-50 0 -82.5 33t-32.5 82q0 51 34.5 85t86.5 34q47 0 79.5 -33t32.5 -82q0 -51 -33.5 -85t-84.5 -34zM1016 1624q-51 0 -84 32.5t-33 82.5q0 51 35 85t86 34q48 0 80.5 -33t32.5 -82q0 -51 -33.5 -85t-83.5 -34zM621 -12q-255 0 -365 166t-74 452l105 848h174
l-105 -846q-17 -134 3.5 -233.5t88.5 -160t181 -60.5q351 0 403 438l107 862h174l-107 -864q-36 -306 -182.5 -454t-402.5 -148z" />
    <glyph glyph-name="Yacute" unicode="&#xdd;" horiz-adv-x="1136" 
d="M846 1866h188l-266 -264h-166zM498 649l-346 805h192l256 -635h6l414 635h203l-549 -805l-82 -649h-174z" />
    <glyph glyph-name="Thorn" unicode="&#xde;" horiz-adv-x="1218" 
d="M307 1454h174l-35 -285h324q195 0 292 -96.5t97 -275.5q0 -241 -142.5 -383t-400.5 -142h-280l-33 -272h-174zM639 430q158 0 248 98t90 269q0 103 -65.5 158t-174.5 55h-309l-72 -580h283z" />
    <glyph glyph-name="germandbls" unicode="&#xdf;" horiz-adv-x="1224" 
d="M805 -12q-117 0 -211 43t-150 116l111 107q97 -123 250 -123q85 0 138 41.5t54 108.5q0 20 -4.5 36t-19 32.5t-24 26t-39.5 28t-42.5 25.5t-54.5 30q-63 35 -99 59t-74 59t-54 75.5t-15 90.5q1 39 14 72.5t41.5 64t50.5 50t65 51.5t61 47q115 93 115 193q0 67 -58.5 109
t-159.5 42q-54 0 -102 -14.5t-91.5 -45.5t-73.5 -88t-40 -134l-133 -1090h-164l140 1112q24 200 150.5 305t303.5 105q187 0 289 -81.5t102 -215.5q0 -93 -47.5 -160t-136.5 -133q-94 -65 -118 -89q-41 -41 -44 -81q-1 -45 34.5 -81t129.5 -91q122 -70 159 -99
q95 -76 102 -184q1 -10 1 -20q0 -143 -98.5 -221t-257.5 -78z" />
    <glyph glyph-name="agrave" unicode="&#xe0;" horiz-adv-x="1128" 
d="M424 1432l184 -2l178 -289h-170zM428 -12q-165 0 -253.5 112.5t-88.5 288.5q0 121 36 233t100 198t159 138t205 52q84 0 158.5 -28t123.5 -79l4 2l13 90h162l-123 -995h-162l29 227l-7 2q-68 -115 -161 -178t-195 -63zM459 133q133 0 244 148t139 366l12 103
q-46 54 -118.5 81t-139.5 27q-77 0 -143.5 -40t-110 -106.5t-68 -151.5t-24.5 -175q0 -115 55 -183.5t154 -68.5z" />
    <glyph glyph-name="aacute" unicode="&#xe1;" horiz-adv-x="1128" 
d="M799 1430l184 2l-262 -291h-170zM428 -12q-165 0 -253.5 112.5t-88.5 288.5q0 121 36 233t100 198t159 138t205 52q84 0 158.5 -28t123.5 -79l4 2l13 90h162l-123 -995h-162l29 227l-7 2q-68 -115 -161 -178t-195 -63zM459 133q133 0 244 148t139 366l12 103
q-46 54 -118.5 81t-139.5 27q-77 0 -143.5 -40t-110 -106.5t-68 -151.5t-24.5 -175q0 -115 55 -183.5t154 -68.5z" />
    <glyph glyph-name="acircumflex" unicode="&#xe2;" horiz-adv-x="1128" 
d="M633 1432h155l185 -293h-162l-104 184h-5l-149 -184h-168zM428 -12q-165 0 -253.5 112.5t-88.5 288.5q0 121 36 233t100 198t159 138t205 52q84 0 158.5 -28t123.5 -79l4 2l13 90h162l-123 -995h-162l29 227l-7 2q-68 -115 -161 -178t-195 -63zM459 133q133 0 244 148
t139 366l12 103q-46 54 -118.5 81t-139.5 27q-77 0 -143.5 -40t-110 -106.5t-68 -151.5t-24.5 -175q0 -115 55 -183.5t154 -68.5z" />
    <glyph glyph-name="atilde" unicode="&#xe3;" horiz-adv-x="1128" 
d="M840 1153q-17 0 -34 4t-29 8.5t-28 14t-23 14.5t-23 16.5t-19 14.5q-59 49 -98 49q-77 0 -127 -117l-105 53q83 197 217 197q17 0 33.5 -3t27 -6t25.5 -11.5t20 -12t20.5 -15t17.5 -13.5q7 -5 21 -16t22 -16.5t19.5 -12.5t22 -10t21.5 -3q75 0 125 115l105 -41
q-38 -100 -93.5 -154.5t-117.5 -54.5zM428 -12q-165 0 -253.5 112.5t-88.5 288.5q0 121 36 233t100 198t159 138t205 52q84 0 158.5 -28t123.5 -79l4 2l13 90h162l-123 -995h-162l29 227l-7 2q-68 -115 -161 -178t-195 -63zM459 133q133 0 244 148t139 366l12 103
q-46 54 -118.5 81t-139.5 27q-77 0 -143.5 -40t-110 -106.5t-68 -151.5t-24.5 -175q0 -115 55 -183.5t154 -68.5z" />
    <glyph glyph-name="adieresis" unicode="&#xe4;" horiz-adv-x="1128" 
d="M522 1182q-50 0 -82 32t-32 82q0 51 34 85t86 34q48 0 80.5 -33t32.5 -82q0 -51 -34 -84.5t-85 -33.5zM872 1182q-51 0 -83.5 32t-32.5 82q0 51 35 85t86 34q47 0 79.5 -33t32.5 -82q0 -51 -33.5 -84.5t-83.5 -33.5zM428 -12q-165 0 -253.5 112.5t-88.5 288.5
q0 121 36 233t100 198t159 138t205 52q84 0 158.5 -28t123.5 -79l4 2l13 90h162l-123 -995h-162l29 227l-7 2q-68 -115 -161 -178t-195 -63zM459 133q133 0 244 148t139 366l12 103q-46 54 -118.5 81t-139.5 27q-77 0 -143.5 -40t-110 -106.5t-68 -151.5t-24.5 -175
q0 -115 55 -183.5t154 -68.5z" />
    <glyph glyph-name="aring" unicode="&#xe5;" horiz-adv-x="1128" 
d="M698 1118q-80 0 -134 54.5t-54 136.5t56 137t141 55q79 0 133.5 -54.5t54.5 -133.5q0 -83 -56 -139t-141 -56zM700 1225q39 0 65 25t26 63q0 35 -24.5 59.5t-61.5 24.5q-38 0 -64.5 -25.5t-26.5 -62.5t24.5 -60.5t61.5 -23.5zM428 -12q-165 0 -253.5 112.5t-88.5 288.5
q0 121 36 233t100 198t159 138t205 52q84 0 158.5 -28t123.5 -79l4 2l13 90h162l-123 -995h-162l29 227l-7 2q-68 -115 -161 -178t-195 -63zM459 133q133 0 244 148t139 366l12 103q-46 54 -118.5 81t-139.5 27q-77 0 -143.5 -40t-110 -106.5t-68 -151.5t-24.5 -175
q0 -115 55 -183.5t154 -68.5z" />
    <glyph glyph-name="ae" unicode="&#xe6;" horiz-adv-x="1419" 
d="M995 139q54 0 116.5 29.5t111.5 93.5l129 -92q-70 -87 -164 -133.5t-199 -46.5q-138 0 -229 65t-123 187q-47 -118 -127.5 -187t-179.5 -69q-129 0 -205.5 104t-73.5 266q2 124 39.5 239t104.5 204.5t168 143.5t219 54q154 0 252 -73q119 86 278 86q122 0 201.5 -68
t79.5 -176q0 -113 -85 -198t-227 -132.5t-331 -62.5q7 -113 73.5 -173.5t171.5 -60.5zM1096 860q-123 0 -219.5 -99.5t-120.5 -260.5q214 22 342.5 90.5t128.5 169.5q0 49 -37.5 74.5t-93.5 25.5zM350 133q145 0 244 336q32 213 135 352q-53 27 -133 27q-89 0 -163 -45.5
t-120 -119t-71 -162.5t-25 -181q0 -97 37.5 -152t95.5 -55z" />
    <glyph glyph-name="ccedilla" unicode="&#xe7;" horiz-adv-x="995" 
d="M494 137q155 0 268 125l127 -92q-157 -171 -373 -182l-35 -56l2 -2q148 -10 148 -131q0 -87 -65 -135.5t-169 -48.5q-43 0 -90 12l6 88q30 -12 72 -12q58 0 94.5 25t36.5 71q0 63 -141 66l4 61l37 66q-150 21 -239 127.5t-89 286.5q0 164 61.5 300t183 220t281.5 84
q109 0 201 -42.5t148 -123.5l-129 -96q-74 110 -224 110q-159 0 -257.5 -128t-98.5 -314q0 -133 68.5 -206t171.5 -73z" />
    <glyph glyph-name="egrave" unicode="&#xe8;" horiz-adv-x="966" 
d="M580 1141l-193 291l184 -2l179 -289h-170zM492 137q140 0 256 125l129 -92q-84 -92 -175.5 -137t-216.5 -45q-183 0 -290 110.5t-107 302.5q0 122 36.5 232.5t102 194t164.5 133t217 49.5q44 0 86.5 -9t82.5 -29.5t70.5 -50t49 -74t18.5 -97.5q0 -63 -27 -116t-77 -91
t-112 -67.5t-140 -49.5t-152 -32.5t-157 -20.5q7 -112 75 -174t167 -62zM600 860q-121 0 -219 -94t-125 -258q494 43 494 233q0 62 -44 90.5t-106 28.5z" />
    <glyph glyph-name="eacute" unicode="&#xe9;" horiz-adv-x="966" 
d="M698 1141h-170l248 289l185 2zM915 750q0 -63 -27 -116t-77 -91t-112 -67.5t-140 -49.5t-152 -32.5t-157 -20.5q7 -112 75 -174t167 -62q140 0 256 125l129 -92q-84 -92 -175.5 -137t-216.5 -45q-183 0 -290 110.5t-107 302.5q0 122 36.5 232.5t102 194t164.5 133
t217 49.5q44 0 86.5 -9t82.5 -29.5t70.5 -50t49 -74t18.5 -97.5zM256 508q494 43 494 233q0 62 -44 90.5t-106 28.5q-121 0 -219 -94t-125 -258z" />
    <glyph glyph-name="ecircumflex" unicode="&#xea;" horiz-adv-x="966" 
d="M467 1139h-168l248 293h155l185 -293h-162l-104 184h-5zM492 137q140 0 256 125l129 -92q-84 -92 -175.5 -137t-216.5 -45q-183 0 -290 110.5t-107 302.5q0 122 36.5 232.5t102 194t164.5 133t217 49.5q44 0 86.5 -9t82.5 -29.5t70.5 -50t49 -74t18.5 -97.5
q0 -63 -27 -116t-77 -91t-112 -67.5t-140 -49.5t-152 -32.5t-157 -20.5q7 -112 75 -174t167 -62zM600 860q-121 0 -219 -94t-125 -258q494 43 494 233q0 62 -44 90.5t-106 28.5z" />
    <glyph glyph-name="edieresis" unicode="&#xeb;" horiz-adv-x="966" 
d="M436 1182q-50 0 -82 32t-32 82q0 51 34 85t86 34q48 0 80.5 -33t32.5 -82q0 -51 -34 -84.5t-85 -33.5zM786 1182q-51 0 -83.5 32t-32.5 82q0 51 35 85t86 34q47 0 79.5 -33t32.5 -82q0 -51 -33.5 -84.5t-83.5 -33.5zM492 137q140 0 256 125l129 -92q-84 -92 -175.5 -137
t-216.5 -45q-183 0 -290 110.5t-107 302.5q0 122 36.5 232.5t102 194t164.5 133t217 49.5q44 0 86.5 -9t82.5 -29.5t70.5 -50t49 -74t18.5 -97.5q0 -63 -27 -116t-77 -91t-112 -67.5t-140 -49.5t-152 -32.5t-157 -20.5q7 -112 75 -174t167 -62zM600 860q-121 0 -219 -94
t-125 -258q494 43 494 233q0 62 -44 90.5t-106 28.5z" />
    <glyph glyph-name="igrave" unicode="&#xec;" horiz-adv-x="493" 
d="M111 1446l182 -2l113 -289h-170zM225 997h164l-123 -997h-164z" />
    <glyph glyph-name="iacute" unicode="&#xed;" horiz-adv-x="491" 
d="M502 1430l184 2l-262 -291h-170zM225 997h164l-123 -997h-164z" />
    <glyph glyph-name="icircumflex" unicode="&#xee;" horiz-adv-x="491" 
d="M279 1432h155l184 -293h-161l-105 184h-4l-149 -184h-168zM225 997h164l-123 -997h-164z" />
    <glyph glyph-name="idieresis" unicode="&#xef;" horiz-adv-x="491" 
d="M180 1182q-48 0 -80 32.5t-32 81.5q0 51 33 85t83 34q45 0 77 -33t32 -82q0 -50 -33.5 -84t-79.5 -34zM512 1182q-48 0 -80.5 32.5t-32.5 81.5q0 51 33.5 85t83.5 34q45 0 77 -33t32 -82q0 -50 -33.5 -84t-79.5 -34zM225 997h164l-123 -997h-164z" />
    <glyph glyph-name="eth" unicode="&#xf0;" horiz-adv-x="1112" 
d="M913 1122q115 -213 115 -479q0 -132 -33.5 -248.5t-97.5 -208t-167 -145t-232 -53.5q-185 0 -298.5 111t-113.5 296q0 158 65.5 292.5t180.5 214t254 79.5q150 0 256 -88q-26 94 -64 164q-36 69 -94 133l-111 -123l-92 80l113 125q-87 68 -209 127l76 117
q121 -48 231 -134l148 166l94 -78l-152 -170q79 -86 131 -178zM502 137q94 0 166.5 46t115 124t64 171t20.5 196q0 39 -2 57q-91 103 -243 103q-160 0 -266.5 -122t-106.5 -298q0 -129 71 -203t181 -74z" />
    <glyph glyph-name="ntilde" unicode="&#xf1;" horiz-adv-x="1122" 
d="M829 1153q-20 0 -38 4t-37.5 14.5t-27.5 15.5t-29.5 21t-22.5 17q-59 49 -99 49q-76 0 -126 -117l-105 53q83 197 217 197q17 0 33.5 -3t27 -6t25.5 -11.5t20 -12t20.5 -15t17.5 -13.5q7 -5 21 -16t22 -16.5t19.5 -12.5t22 -10t21.5 -3q75 0 125 115l104 -41
q-38 -100 -93.5 -154.5t-117.5 -54.5zM219 997h162l-27 -225l4 -2q76 114 180 177t214 63q152 0 212.5 -100.5t32.5 -309.5l-79 -600h-162l78 588q20 143 -13.5 207.5t-120.5 64.5q-122 0 -245.5 -138t-147.5 -329l-49 -393h-162z" />
    <glyph glyph-name="ograve" unicode="&#xf2;" horiz-adv-x="1114" 
d="M391 1432l184 -2l179 -289h-170zM500 -12q-190 0 -301 110.5t-111 307.5q0 120 36.5 229t102.5 192.5t166 133t219 49.5q189 0 301.5 -108t112.5 -302q0 -173 -60.5 -310.5t-181.5 -219.5t-284 -82zM504 137q157 0 256.5 127.5t99.5 321.5q0 141 -73.5 206.5t-182.5 65.5
q-102 0 -183.5 -60.5t-125 -159t-43.5 -214.5q0 -130 67.5 -208.5t184.5 -78.5z" />
    <glyph glyph-name="oacute" unicode="&#xf3;" horiz-adv-x="1114" 
d="M813 1430l184 2l-262 -291h-170zM500 -12q-190 0 -301 110.5t-111 307.5q0 120 36.5 229t102.5 192.5t166 133t219 49.5q189 0 301.5 -108t112.5 -302q0 -173 -60.5 -310.5t-181.5 -219.5t-284 -82zM504 137q157 0 256.5 127.5t99.5 321.5q0 141 -73.5 206.5t-182.5 65.5
q-102 0 -183.5 -60.5t-125 -159t-43.5 -214.5q0 -130 67.5 -208.5t184.5 -78.5z" />
    <glyph glyph-name="ocircumflex" unicode="&#xf4;" horiz-adv-x="1114" 
d="M600 1432h156l184 -293h-162l-104 184h-4l-150 -184h-168zM500 -12q-190 0 -301 110.5t-111 307.5q0 120 36.5 229t102.5 192.5t166 133t219 49.5q189 0 301.5 -108t112.5 -302q0 -173 -60.5 -310.5t-181.5 -219.5t-284 -82zM504 137q157 0 256.5 127.5t99.5 321.5
q0 141 -73.5 206.5t-182.5 65.5q-102 0 -183.5 -60.5t-125 -159t-43.5 -214.5q0 -130 67.5 -208.5t184.5 -78.5z" />
    <glyph glyph-name="otilde" unicode="&#xf5;" horiz-adv-x="1114" 
d="M807 1153q-17 0 -34 4t-29 8.5t-28 14t-23 14.5t-23 16.5t-19 14.5q-59 49 -98 49q-77 0 -127 -117l-104 53q83 197 217 197q17 0 33.5 -3t27 -6.5t24.5 -11.5t20 -12t20 -14.5l18 -13.5q7 -5 21 -16t22 -16.5t19.5 -12.5t22 -10t21.5 -3q75 0 125 115l105 -41
q-38 -100 -93.5 -154.5t-117.5 -54.5zM500 -12q-190 0 -301 110.5t-111 307.5q0 120 36.5 229t102.5 192.5t166 133t219 49.5q189 0 301.5 -108t112.5 -302q0 -173 -60.5 -310.5t-181.5 -219.5t-284 -82zM504 137q157 0 256.5 127.5t99.5 321.5q0 141 -73.5 206.5
t-182.5 65.5q-102 0 -183.5 -60.5t-125 -159t-43.5 -214.5q0 -130 67.5 -208.5t184.5 -78.5z" />
    <glyph glyph-name="odieresis" unicode="&#xf6;" horiz-adv-x="1114" 
d="M489 1182q-49 0 -81.5 32t-32.5 82q0 51 34.5 85t86.5 34q47 0 79.5 -33t32.5 -82q0 -51 -34 -84.5t-85 -33.5zM840 1182q-51 0 -84 32t-33 82q0 51 35 85t86 34q47 0 79.5 -33t32.5 -82q0 -51 -33 -84.5t-83 -33.5zM500 -12q-190 0 -301 110.5t-111 307.5
q0 120 36.5 229t102.5 192.5t166 133t219 49.5q189 0 301.5 -108t112.5 -302q0 -173 -60.5 -310.5t-181.5 -219.5t-284 -82zM504 137q157 0 256.5 127.5t99.5 321.5q0 141 -73.5 206.5t-182.5 65.5q-102 0 -183.5 -60.5t-125 -159t-43.5 -214.5q0 -130 67.5 -208.5
t184.5 -78.5z" />
    <glyph glyph-name="divide" unicode="&#xf7;" horiz-adv-x="1107" 
d="M635 846q-49 0 -82 33t-33 82q0 51 34 84.5t85 33.5q50 0 82.5 -32.5t32.5 -81.5q0 -51 -34 -85t-85 -34zM170 641h864l-18 -149h-864zM541 39q-49 0 -82 32.5t-33 82.5q0 51 34 84.5t85 33.5q49 0 81.5 -32t32.5 -82q0 -51 -33.5 -85t-84.5 -34z" />
    <glyph glyph-name="oslash" unicode="&#xf8;" horiz-adv-x="1118" 
d="M965 840q61 -99 61 -240q0 -173 -60.5 -310.5t-181.5 -219.5t-284 -82q-167 0 -273 86l-110 -115l-78 76l115 119q-66 101 -66 252q0 120 36.5 229t102.5 192.5t166 133t219 49.5q171 0 281 -90l106 110l76 -76zM252 424q0 -80 27 -141l499 518q-65 57 -174 57
q-102 0 -183.5 -60.5t-125 -159t-43.5 -214.5zM860 586q0 67 -20 125l-498 -518q66 -56 162 -56q157 0 256.5 127.5t99.5 321.5z" />
    <glyph glyph-name="ugrave" unicode="&#xf9;" horiz-adv-x="1093" 
d="M369 1432l184 -2l178 -289h-170zM387 -12q-157 0 -224.5 96t-39.5 305l84 608h162l-80 -594q-19 -148 18.5 -207t126.5 -59q51 0 109.5 33t109.5 88t90 135.5t50 167.5l53 436h164l-123 -997h-162l27 225h-4q-62 -109 -156 -173t-205 -64z" />
    <glyph glyph-name="uacute" unicode="&#xfa;" horiz-adv-x="1093" 
d="M774 1430l184 2l-262 -291h-170zM387 -12q-157 0 -224.5 96t-39.5 305l84 608h162l-80 -594q-19 -148 18.5 -207t126.5 -59q51 0 109.5 33t109.5 88t90 135.5t50 167.5l53 436h164l-123 -997h-162l27 225h-4q-62 -109 -156 -173t-205 -64z" />
    <glyph glyph-name="ucircumflex" unicode="&#xfb;" horiz-adv-x="1093" 
d="M575 1432h156l184 -293h-161l-105 184h-4l-149 -184h-168zM387 -12q-157 0 -224.5 96t-39.5 305l84 608h162l-80 -594q-19 -148 18.5 -207t126.5 -59q51 0 109.5 33t109.5 88t90 135.5t50 167.5l53 436h164l-123 -997h-162l27 225h-4q-62 -109 -156 -173t-205 -64z" />
    <glyph glyph-name="udieresis" unicode="&#xfc;" horiz-adv-x="1093" 
d="M465 1182q-50 0 -82.5 32.5t-32.5 81.5q0 51 34.5 85t86.5 34q48 0 80.5 -33t32.5 -82q0 -51 -34 -84.5t-85 -33.5zM815 1182q-51 0 -84 32t-33 82q0 51 35 85t86 34q48 0 80.5 -33t32.5 -82q0 -51 -33.5 -84.5t-83.5 -33.5zM387 -12q-157 0 -224.5 96t-39.5 305l84 608
h162l-80 -594q-19 -148 18.5 -207t126.5 -59q51 0 109.5 33t109.5 88t90 135.5t50 167.5l53 436h164l-123 -997h-162l27 225h-4q-62 -109 -156 -173t-205 -64z" />
    <glyph glyph-name="yacute" unicode="&#xfd;" horiz-adv-x="1091" 
d="M694 1141h-170l248 289l184 2zM1008 997l-105 -868q-16 -131 -53.5 -229t-86 -158t-114 -96.5t-130.5 -50t-142 -13.5q-177 0 -330 90l53 144q141 -84 279 -84q57 0 102 9.5t90 36.5t77.5 72t57.5 118.5t37 172.5l11 82l-4 2q-65 -110 -160 -173.5t-207 -63.5
q-158 0 -225.5 95.5t-38.5 305.5l82 608h161l-77 -594q-19 -148 18 -207t127 -59q115 0 230.5 132.5t136.5 310.5l51 417h160z" />
    <glyph glyph-name="thorn" unicode="&#xfe;" horiz-adv-x="1150" 
d="M281 1507h161l-90 -741l4 -2q148 246 377 246q106 0 182.5 -56t113 -146t36.5 -202q0 -161 -61 -301t-178.5 -228.5t-266.5 -88.5q-188 0 -285 100l-4 -2l-61 -492h-162zM522 135q114 0 202 65.5t132.5 169.5t44.5 226q0 114 -53 189t-150 75q-139 0 -253 -145t-142 -357
l-14 -108q35 -59 100 -87t133 -28z" />
    <glyph glyph-name="ydieresis" unicode="&#xff;" horiz-adv-x="1091" 
d="M463 1182q-50 0 -82.5 32.5t-32.5 81.5q0 51 34.5 85t86.5 34q48 0 80.5 -33t32.5 -82q0 -51 -34 -84.5t-85 -33.5zM813 1182q-51 0 -84 32t-33 82q0 51 35 85t86 34q48 0 80.5 -33t32.5 -82q0 -51 -33.5 -84.5t-83.5 -33.5zM1008 997l-105 -868q-16 -131 -53.5 -229
t-86 -158t-114 -96.5t-130.5 -50t-142 -13.5q-177 0 -330 90l53 144q141 -84 279 -84q57 0 102 9.5t90 36.5t77.5 72t57.5 118.5t37 172.5l11 82l-4 2q-65 -110 -160 -173.5t-207 -63.5q-158 0 -225.5 95.5t-38.5 305.5l82 608h161l-77 -594q-19 -148 18 -207t127 -59
q115 0 230.5 132.5t136.5 310.5l51 417h160z" />
    <glyph glyph-name="Amacron" unicode="&#x100;" horiz-adv-x="1282" 
d="M541 1794h536l-16 -137h-537zM666 1454h184l317 -1454h-182l-74 356h-575l-160 -356h-182zM881 510l-150 725h-4l-324 -725h478z" />
    <glyph glyph-name="amacron" unicode="&#x101;" horiz-adv-x="1128" 
d="M438 1362h537l-17 -141h-536zM428 -12q-165 0 -253.5 112.5t-88.5 288.5q0 121 36 233t100 198t159 138t205 52q84 0 158.5 -28t123.5 -79l4 2l13 90h162l-123 -995h-162l29 227l-7 2q-68 -115 -161 -178t-195 -63zM459 133q133 0 244 148t139 366l12 103
q-46 54 -118.5 81t-139.5 27q-77 0 -143.5 -40t-110 -106.5t-68 -151.5t-24.5 -175q0 -115 55 -183.5t154 -68.5z" />
    <glyph glyph-name="Abreve" unicode="&#x102;" horiz-adv-x="1282" 
d="M784 1589q-125 0 -187.5 71t-51.5 195h129q-7 -58 22 -98.5t95 -40.5q65 0 113 42t61 97h129q-25 -121 -108.5 -193.5t-201.5 -72.5zM666 1454h184l317 -1454h-182l-74 356h-575l-160 -356h-182zM881 510l-150 725h-4l-324 -725h478z" />
    <glyph glyph-name="abreve" unicode="&#x103;" horiz-adv-x="1128" 
d="M682 1133q-126 0 -188 74.5t-52 213.5l129 -2q-6 -72 21.5 -115.5t93.5 -43.5q68 0 115 46t61 115l129 -2q-25 -134 -108 -210t-201 -76zM428 -12q-165 0 -253.5 112.5t-88.5 288.5q0 121 36 233t100 198t159 138t205 52q84 0 158.5 -28t123.5 -79l4 2l13 90h162
l-123 -995h-162l29 227l-7 2q-68 -115 -161 -178t-195 -63zM459 133q133 0 244 148t139 366l12 103q-46 54 -118.5 81t-139.5 27q-77 0 -143.5 -40t-110 -106.5t-68 -151.5t-24.5 -175q0 -115 55 -183.5t154 -68.5z" />
    <glyph glyph-name="Aogonek" unicode="&#x104;" horiz-adv-x="1282" 
d="M1159 0q-81 -32 -131 -86.5t-53 -110.5q0 -33 18.5 -52t53.5 -19q56 0 92 20l4 -108q-49 -25 -133 -25q-85 0 -129 39t-41 111q1 63 41.5 124.5t103.5 108.5l-74 354h-575l-160 -356h-182l672 1454h184l317 -1454h-8zM881 510l-150 725h-4l-324 -725h478z" />
    <glyph glyph-name="aogonek" unicode="&#x105;" horiz-adv-x="1128" 
d="M1047 995l-123 -995h-4q-81 -32 -131.5 -86.5t-53.5 -110.5q0 -33 18.5 -52t53.5 -19q56 0 92 20l4 -108q-49 -25 -133 -25q-85 0 -129 39t-41 111q1 68 47 133.5t117 113.5l27 211l-7 2q-68 -115 -161 -178t-195 -63q-165 0 -253.5 112.5t-88.5 288.5q0 121 36 233
t100 198t159 138t205 52q84 0 158.5 -28t123.5 -79l4 2l13 90h162zM459 133q133 0 244 148t139 366l12 103q-46 54 -118.5 81t-139.5 27q-77 0 -143.5 -40t-110 -106.5t-68 -151.5t-24.5 -175q0 -115 55 -183.5t154 -68.5z" />
    <glyph glyph-name="Cacute" unicode="&#x106;" horiz-adv-x="1384" 
d="M1067 1866h188l-266 -264h-166zM715 -12q-256 0 -414 160.5t-158 449.5q0 174 55 332.5t151 277.5t237 189.5t303 70.5q314 0 500 -307l-148 -102q-70 126 -157 183.5t-201 57.5q-162 0 -291.5 -101t-197.5 -260.5t-68 -340.5q0 -208 104.5 -326t292.5 -118
q104 0 208.5 51t180.5 141l131 -115q-102 -112 -239 -177.5t-289 -65.5z" />
    <glyph glyph-name="cacute" unicode="&#x107;" horiz-adv-x="995" 
d="M791 1430l184 2l-262 -291h-170zM483 -12q-177 0 -286 108.5t-109 309.5q0 164 61.5 300t183 220t281.5 84q109 0 201 -42.5t148 -123.5l-129 -96q-74 110 -224 110q-159 0 -257.5 -128t-98.5 -314q0 -133 68.5 -206t171.5 -73q155 0 268 125l127 -92
q-82 -91 -180 -136.5t-226 -45.5z" />
    <glyph glyph-name="Ccircumflex" unicode="&#x108;" horiz-adv-x="1384" 
d="M901 1855h158l180 -253h-158l-112 153h-4l-156 -153h-160zM715 -12q-256 0 -414 160.5t-158 449.5q0 174 55 332.5t151 277.5t237 189.5t303 70.5q314 0 500 -307l-148 -102q-70 126 -157 183.5t-201 57.5q-162 0 -291.5 -101t-197.5 -260.5t-68 -340.5
q0 -208 104.5 -326t292.5 -118q104 0 208.5 51t180.5 141l131 -115q-102 -112 -239 -177.5t-289 -65.5z" />
    <glyph glyph-name="ccircumflex" unicode="&#x109;" horiz-adv-x="995" 
d="M606 1432h156l184 -293h-162l-104 184h-4l-150 -184h-168zM483 -12q-177 0 -286 108.5t-109 309.5q0 164 61.5 300t183 220t281.5 84q109 0 201 -42.5t148 -123.5l-129 -96q-74 110 -224 110q-159 0 -257.5 -128t-98.5 -314q0 -133 68.5 -206t171.5 -73q155 0 268 125
l127 -92q-82 -91 -180 -136.5t-226 -45.5z" />
    <glyph glyph-name="Cdotaccent" unicode="&#x10a;" horiz-adv-x="1384" 
d="M963 1624q-49 0 -82 33t-33 82q0 51 34 85t85 34q49 0 81.5 -32.5t32.5 -82.5q0 -51 -33.5 -85t-84.5 -34zM715 -12q-256 0 -414 160.5t-158 449.5q0 174 55 332.5t151 277.5t237 189.5t303 70.5q314 0 500 -307l-148 -102q-70 126 -157 183.5t-201 57.5
q-162 0 -291.5 -101t-197.5 -260.5t-68 -340.5q0 -208 104.5 -326t292.5 -118q104 0 208.5 51t180.5 141l131 -115q-102 -112 -239 -177.5t-289 -65.5z" />
    <glyph glyph-name="cdotaccent" unicode="&#x10b;" horiz-adv-x="995" 
d="M676 1182q-50 0 -82.5 32.5t-32.5 81.5q0 51 34 85t85 34q50 0 82.5 -32.5t32.5 -82.5q0 -51 -34 -84.5t-85 -33.5zM483 -12q-177 0 -286 108.5t-109 309.5q0 164 61.5 300t183 220t281.5 84q109 0 201 -42.5t148 -123.5l-129 -96q-74 110 -224 110q-159 0 -257.5 -128
t-98.5 -314q0 -133 68.5 -206t171.5 -73q155 0 268 125l127 -92q-82 -91 -180 -136.5t-226 -45.5z" />
    <glyph glyph-name="Ccaron" unicode="&#x10c;" horiz-adv-x="1384" 
d="M686 1855h158l110 -153h7l155 153h160l-252 -253h-160zM715 -12q-256 0 -414 160.5t-158 449.5q0 174 55 332.5t151 277.5t237 189.5t303 70.5q314 0 500 -307l-148 -102q-70 126 -157 183.5t-201 57.5q-162 0 -291.5 -101t-197.5 -260.5t-68 -340.5q0 -208 104.5 -326
t292.5 -118q104 0 208.5 51t180.5 141l131 -115q-102 -112 -239 -177.5t-289 -65.5z" />
    <glyph glyph-name="ccaron" unicode="&#x10d;" horiz-adv-x="995" 
d="M397 1421h156l106 -176h7l153 176h158l-248 -284h-160zM483 -12q-177 0 -286 108.5t-109 309.5q0 164 61.5 300t183 220t281.5 84q109 0 201 -42.5t148 -123.5l-129 -96q-74 110 -224 110q-159 0 -257.5 -128t-98.5 -314q0 -133 68.5 -206t171.5 -73q155 0 268 125
l127 -92q-82 -91 -180 -136.5t-226 -45.5z" />
    <glyph glyph-name="Dcaron" unicode="&#x10e;" horiz-adv-x="1394" 
d="M571 1855h158l111 -153h6l155 153h160l-252 -253h-159zM307 1454h410q286 0 438 -158t152 -438q0 -253 -94 -447.5t-270 -302.5t-408 -108h-406zM551 158q171 0 302 90.5t201 248.5t70 359q0 205 -108.5 322.5t-310.5 117.5h-242l-139 -1138h227z" />
    <glyph glyph-name="dcaron" unicode="&#x10f;" horiz-adv-x="1245" 
d="M1309 1581h170l-144 -377h-125zM430 -12q-165 0 -253.5 112.5t-88.5 288.5q0 95 22.5 186.5t66 170t103.5 137.5t139.5 93t168.5 34q83 0 159.5 -27t129.5 -82l4 2l73 604h164l-186 -1507h-162l29 231l-6 2q-68 -117 -161.5 -181t-201.5 -64zM459 133q137 0 249 147.5
t140 366.5l14 103q-43 57 -116 82.5t-148 25.5q-102 0 -183 -69t-122 -176t-41 -228q0 -115 54 -183.5t153 -68.5z" />
    <glyph glyph-name="Dcroat" unicode="&#x110;" horiz-adv-x="1398" 
d="M717 1454q286 0 438 -158t152 -438q0 -253 -94 -447.5t-270 -302.5t-408 -108h-406l80 649h-135l24 154h129l80 651h410zM551 158q171 0 302 90.5t201 248.5t70 359q0 205 -108.5 322.5t-310.5 117.5h-242l-60 -493h328l-22 -154h-326l-59 -491h227z" />
    <glyph glyph-name="dcroat" unicode="&#x111;" horiz-adv-x="1118" 
d="M1188 1169h-111l-145 -1169h-162l29 231l-6 2q-68 -117 -161.5 -181t-201.5 -64q-165 0 -253.5 112.5t-88.5 288.5q0 95 22.5 186.5t66 170t103.5 137.5t139.5 93t168.5 34q83 0 159.5 -27t129.5 -82l4 2l32 266h-383l15 117h383l26 221h164l-26 -221h112zM862 750
q-43 57 -116 82.5t-148 25.5q-102 0 -183 -69t-122 -176t-41 -228q0 -115 54 -183.5t153 -68.5q137 0 249 147.5t140 366.5z" />
    <glyph glyph-name="Emacron" unicode="&#x112;" horiz-adv-x="1144" 
d="M502 1796h536l-16 -137h-537zM307 1454h811l-20 -158h-637l-60 -493h523l-21 -158h-522l-59 -487h675l-18 -158h-850z" />
    <glyph glyph-name="emacron" unicode="&#x113;" horiz-adv-x="966" 
d="M872 1221h-536l16 141h537zM492 137q140 0 256 125l129 -92q-84 -92 -175.5 -137t-216.5 -45q-183 0 -290 110.5t-107 302.5q0 122 36.5 232.5t102 194t164.5 133t217 49.5q44 0 86.5 -9t82.5 -29.5t70.5 -50t49 -74t18.5 -97.5q0 -63 -27 -116t-77 -91t-112 -67.5
t-140 -49.5t-152 -32.5t-157 -20.5q7 -112 75 -174t167 -62zM600 860q-121 0 -219 -94t-125 -258q494 43 494 233q0 62 -44 90.5t-106 28.5z" />
    <glyph glyph-name="Ebreve" unicode="&#x114;" horiz-adv-x="1144" 
d="M745 1591q-125 0 -187.5 71.5t-51.5 195.5h129q-7 -58 22 -99t95 -41q65 0 113 42.5t61 97.5h129q-25 -121 -108.5 -194t-201.5 -73zM307 1454h811l-20 -158h-637l-60 -493h523l-21 -158h-522l-59 -487h675l-18 -158h-850z" />
    <glyph glyph-name="ebreve" unicode="&#x115;" horiz-adv-x="966" 
d="M596 1133q-126 0 -188 74.5t-52 213.5l129 -2q-6 -72 21.5 -115.5t93.5 -43.5q68 0 115 46t61 115l129 -2q-25 -134 -108 -210t-201 -76zM492 137q140 0 256 125l129 -92q-84 -92 -175.5 -137t-216.5 -45q-183 0 -290 110.5t-107 302.5q0 122 36.5 232.5t102 194
t164.5 133t217 49.5q44 0 86.5 -9t82.5 -29.5t70.5 -50t49 -74t18.5 -97.5q0 -63 -27 -116t-77 -91t-112 -67.5t-140 -49.5t-152 -32.5t-157 -20.5q7 -112 75 -174t167 -62zM600 860q-121 0 -219 -94t-125 -258q494 43 494 233q0 62 -44 90.5t-106 28.5z" />
    <glyph glyph-name="Edotaccent" unicode="&#x116;" horiz-adv-x="1144" 
d="M760 1626q-50 0 -82.5 33t-32.5 82q0 51 34 85t85 34q50 0 82.5 -33t32.5 -82q0 -51 -34 -85t-85 -34zM307 1454h811l-20 -158h-637l-60 -493h523l-21 -158h-522l-59 -487h675l-18 -158h-850z" />
    <glyph glyph-name="edotaccent" unicode="&#x117;" horiz-adv-x="966" 
d="M616 1182q-50 0 -82 32t-32 82q0 51 34 85t85 34q49 0 81.5 -32.5t32.5 -82.5q0 -51 -34 -84.5t-85 -33.5zM492 137q140 0 256 125l129 -92q-84 -92 -175.5 -137t-216.5 -45q-183 0 -290 110.5t-107 302.5q0 122 36.5 232.5t102 194t164.5 133t217 49.5q44 0 86.5 -9
t82.5 -29.5t70.5 -50t49 -74t18.5 -97.5q0 -63 -27 -116t-77 -91t-112 -67.5t-140 -49.5t-152 -32.5t-157 -20.5q7 -112 75 -174t167 -62zM600 860q-121 0 -219 -94t-125 -258q494 43 494 233q0 62 -44 90.5t-106 28.5z" />
    <glyph glyph-name="Eogonek" unicode="&#x118;" horiz-adv-x="1144" 
d="M461 1296l-60 -493h523l-21 -158h-522l-59 -487h675l-18 -158h-4q-81 -32 -131 -86.5t-53 -110.5q0 -33 18 -52t53 -19q56 0 92 20l4 -108q-49 -25 -133 -25q-85 0 -129 39t-41 111q1 63 40.5 123.5t101.5 107.5h-668l178 1454h811l-20 -158h-637z" />
    <glyph glyph-name="eogonek" unicode="&#x119;" horiz-adv-x="966" 
d="M492 137q140 0 256 125l129 -92q-119 -128 -246 -164q-86 -31 -142.5 -88.5t-56.5 -116.5q0 -69 76 -69q50 0 86 20l4 -108q-51 -25 -133 -25q-83 0 -126.5 37t-43.5 108q0 62 36.5 123t94.5 103l-2 2q-156 17 -246 125t-90 284q0 122 36.5 232.5t102 194t164.5 133
t217 49.5q44 0 86.5 -9t82.5 -29.5t70.5 -50t49 -74t18.5 -97.5q0 -63 -27 -116t-77 -91t-112 -67.5t-140 -49.5t-152 -32.5t-157 -20.5q7 -112 75 -174t167 -62zM600 860q-121 0 -219 -94t-125 -258q494 43 494 233q0 62 -44 90.5t-106 28.5z" />
    <glyph glyph-name="Ecaron" unicode="&#x11a;" horiz-adv-x="1144" 
d="M483 1858h158l111 -154h6l155 154h160l-252 -254h-159zM307 1454h811l-20 -158h-637l-60 -493h523l-21 -158h-522l-59 -487h675l-18 -158h-850z" />
    <glyph glyph-name="ecaron" unicode="&#x11b;" horiz-adv-x="966" 
d="M510 1137l-172 284h156l106 -176h6l154 176h158l-248 -284h-160zM915 750q0 -63 -27 -116t-77 -91t-112 -67.5t-140 -49.5t-152 -32.5t-157 -20.5q7 -112 75 -174t167 -62q140 0 256 125l129 -92q-84 -92 -175.5 -137t-216.5 -45q-183 0 -290 110.5t-107 302.5
q0 122 36.5 232.5t102 194t164.5 133t217 49.5q44 0 86.5 -9t82.5 -29.5t70.5 -50t49 -74t18.5 -97.5zM256 508q494 43 494 233q0 62 -44 90.5t-106 28.5q-121 0 -219 -94t-125 -258z" />
    <glyph glyph-name="Gcircumflex" unicode="&#x11c;" horiz-adv-x="1445" 
d="M870 1855h158l180 -253h-157l-113 153h-4l-156 -153h-160zM725 -12q-264 0 -423 159.5t-159 448.5q0 174 55 333.5t151.5 278.5t235.5 189.5t298 70.5q311 0 485 -241l-143 -109q-131 182 -348 182q-157 0 -284.5 -96.5t-197 -256t-69.5 -347.5q0 -212 106.5 -332.5
t300.5 -120.5q195 0 354 123l41 320h-368l22 158h541l-68 -578q-101 -87 -242 -134.5t-288 -47.5z" />
    <glyph glyph-name="gcircumflex" unicode="&#x11d;" horiz-adv-x="1134" 
d="M618 1432h156l184 -293h-161l-105 184h-4l-149 -184h-168zM389 -418q-180 0 -330 90l54 144q139 -84 284 -84q80 0 138 16.5t110 59.5t85.5 126t49.5 207l17 125l-4 2q-71 -117 -165 -183.5t-198 -66.5q-165 0 -253.5 113t-88.5 289q0 87 22.5 173t66 160.5t103 132
t139.5 91t169 33.5q83 0 158.5 -27.5t125.5 -79.5l2 2l13 92h162l-107 -868q-16 -130 -53 -227.5t-86.5 -158t-117.5 -97t-138.5 -50.5t-157.5 -14zM459 166q128 0 240.5 134.5t138.5 322.5l16 127q-46 54 -118.5 81t-137.5 27q-103 0 -184 -67.5t-121.5 -167t-40.5 -205.5
q0 -115 54.5 -183.5t152.5 -68.5z" />
    <glyph glyph-name="Gbreve" unicode="&#x11e;" horiz-adv-x="1445" 
d="M918 1589q-125 0 -188 71t-52 195h129q-7 -58 22 -98.5t95 -40.5q65 0 113 42t61 97h129q-25 -121 -108 -193.5t-201 -72.5zM725 -12q-264 0 -423 159.5t-159 448.5q0 174 55 333.5t151.5 278.5t235.5 189.5t298 70.5q311 0 485 -241l-143 -109q-131 182 -348 182
q-157 0 -284.5 -96.5t-197 -256t-69.5 -347.5q0 -212 106.5 -332.5t300.5 -120.5q195 0 354 123l41 320h-368l22 158h541l-68 -578q-101 -87 -242 -134.5t-288 -47.5z" />
    <glyph glyph-name="gbreve" unicode="&#x11f;" horiz-adv-x="1134" 
d="M668 1133q-126 0 -188 74.5t-52 213.5l129 -2q-6 -72 21.5 -115.5t93.5 -43.5q68 0 115 46t61 115l129 -2q-25 -134 -108 -210t-201 -76zM389 -418q-180 0 -330 90l54 144q139 -84 284 -84q80 0 138 16.5t110 59.5t85.5 126t49.5 207l17 125l-4 2q-71 -117 -165 -183.5
t-198 -66.5q-165 0 -253.5 113t-88.5 289q0 87 22.5 173t66 160.5t103 132t139.5 91t169 33.5q83 0 158.5 -27.5t125.5 -79.5l2 2l13 92h162l-107 -868q-16 -130 -53 -227.5t-86.5 -158t-117.5 -97t-138.5 -50.5t-157.5 -14zM459 166q128 0 240.5 134.5t138.5 322.5l16 127
q-46 54 -118.5 81t-137.5 27q-103 0 -184 -67.5t-121.5 -167t-40.5 -205.5q0 -115 54.5 -183.5t152.5 -68.5z" />
    <glyph glyph-name="Gdotaccent" unicode="&#x120;" horiz-adv-x="1445" 
d="M932 1624q-50 0 -82.5 33t-32.5 82q0 51 34 85t85 34q50 0 82.5 -33t32.5 -82q0 -51 -34 -85t-85 -34zM725 -12q-264 0 -423 159.5t-159 448.5q0 174 55 333.5t151.5 278.5t235.5 189.5t298 70.5q311 0 485 -241l-143 -109q-131 182 -348 182q-157 0 -284.5 -96.5
t-197 -256t-69.5 -347.5q0 -212 106.5 -332.5t300.5 -120.5q195 0 354 123l41 320h-368l22 158h541l-68 -578q-101 -87 -242 -134.5t-288 -47.5z" />
    <glyph glyph-name="gdotaccent" unicode="&#x121;" horiz-adv-x="1134" 
d="M688 1182q-50 0 -82.5 32.5t-32.5 81.5q0 51 34 85t85 34q50 0 82.5 -32.5t32.5 -82.5q0 -51 -34 -84.5t-85 -33.5zM389 -418q-180 0 -330 90l54 144q139 -84 284 -84q80 0 138 16.5t110 59.5t85.5 126t49.5 207l17 125l-4 2q-71 -117 -165 -183.5t-198 -66.5
q-165 0 -253.5 113t-88.5 289q0 87 22.5 173t66 160.5t103 132t139.5 91t169 33.5q83 0 158.5 -27.5t125.5 -79.5l2 2l13 92h162l-107 -868q-16 -130 -53 -227.5t-86.5 -158t-117.5 -97t-138.5 -50.5t-157.5 -14zM459 166q128 0 240.5 134.5t138.5 322.5l16 127
q-46 54 -118.5 81t-137.5 27q-103 0 -184 -67.5t-121.5 -167t-40.5 -205.5q0 -115 54.5 -183.5t152.5 -68.5z" />
    <glyph glyph-name="uni0122" unicode="&#x122;" horiz-adv-x="1445" 
d="M725 -12q-264 0 -423 159.5t-159 448.5q0 174 55 333.5t151.5 278.5t235.5 189.5t298 70.5q311 0 485 -241l-143 -109q-131 182 -348 182q-157 0 -284.5 -96.5t-197 -256t-69.5 -347.5q0 -212 106.5 -332.5t300.5 -120.5q195 0 354 123l41 320h-368l22 158h541l-68 -578
q-101 -87 -242 -134.5t-288 -47.5zM496 -334q70 18 100.5 58t30.5 120q0 8 -1 22.5t-1 22.5h145v-43q0 -123 -62.5 -196.5t-187.5 -83.5z" />
    <glyph glyph-name="uni0123" unicode="&#x123;" horiz-adv-x="1134" 
d="M883 1364q-70 -18 -100.5 -58t-30.5 -120q0 -8 1 -22.5t1 -22.5h-146v43q0 123 62.5 196.5t187.5 83.5zM389 -418q-180 0 -330 90l54 144q139 -84 284 -84q80 0 138 16.5t110 59.5t85.5 126t49.5 207l17 125l-4 2q-71 -117 -165 -183.5t-198 -66.5q-165 0 -253.5 113
t-88.5 289q0 87 22.5 173t66 160.5t103 132t139.5 91t169 33.5q83 0 158.5 -27.5t125.5 -79.5l2 2l13 92h162l-107 -868q-16 -130 -53 -227.5t-86.5 -158t-117.5 -97t-138.5 -50.5t-157.5 -14zM459 166q128 0 240.5 134.5t138.5 322.5l16 127q-46 54 -118.5 81t-137.5 27
q-103 0 -184 -67.5t-121.5 -167t-40.5 -205.5q0 -115 54.5 -183.5t152.5 -68.5z" />
    <glyph glyph-name="Hcircumflex" unicode="&#x124;" horiz-adv-x="1398" 
d="M795 1855h157l181 -253h-158l-113 153h-4l-156 -153h-159zM307 1454h174l-84 -684h670l84 684h174l-176 -1454h-176l76 612h-670l-76 -612h-174z" />
    <glyph glyph-name="hcircumflex" unicode="&#x125;" horiz-adv-x="1122" 
d="M602 1878h158l180 -254h-158l-112 154h-4l-156 -154h-160zM281 1507h161l-90 -739h4q74 115 179.5 178.5t216.5 63.5q152 0 212.5 -100.5t32.5 -309.5l-79 -600h-164l80 588q20 143 -13.5 207.5t-120.5 64.5q-78 0 -163 -61.5t-150 -172t-80 -237.5l-49 -389h-162z" />
    <glyph glyph-name="Hbar" unicode="&#x126;" horiz-adv-x="1402" 
d="M1386 1077h-102l-131 -1077h-176l76 612h-670l-76 -612h-174l131 1077h-110l16 125h111l30 252h174l-30 -252h669l31 252h174l-31 -252h103zM1108 1077h-670l-37 -307h670z" />
    <glyph glyph-name="hbar" unicode="&#x127;" horiz-adv-x="1122" 
d="M752 1010q152 0 212.5 -100.5t32.5 -309.5l-79 -600h-164l80 588q20 143 -13.5 207.5t-120.5 64.5q-78 0 -163 -61.5t-150 -172t-80 -237.5l-49 -389h-162l144 1169h-138l15 117h137l27 221h161l-26 -221h368l-14 -117h-369l-49 -401h4q74 115 179.5 178.5t216.5 63.5z
" />
    <glyph glyph-name="Itilde" unicode="&#x128;" horiz-adv-x="577" 
d="M586 1599q-32 0 -66 14t-50 25t-44 33q-60 49 -98 49q-73 0 -123 -116l-105 53q86 184 215 184q18 0 35 -3t27.5 -6t26 -11.5t21 -12t21.5 -15t19 -13.5q24 -20 36 -29t32.5 -19t37.5 -10q34 0 66 30.5t55 84.5l105 -41q-38 -93 -94 -145t-117 -52zM317 1454h177
l-179 -1454h-176z" />
    <glyph glyph-name="itilde" unicode="&#x129;" horiz-adv-x="491" 
d="M473 1157q-16 0 -31.5 3.5t-25.5 7.5t-24.5 13.5t-20 14t-20 16.5t-17.5 15q-58 51 -96 51q-67 0 -121 -117l-97 51q82 189 207 189q15 0 28.5 -1.5t26.5 -6t20.5 -7t20 -11.5t16 -11t17.5 -13t15 -12q6 -4 20 -15.5t21 -16.5t18 -12t21 -10t20 -3q32 0 63 30t54 85
l98 -41q-38 -94 -94.5 -146.5t-118.5 -52.5zM225 997h164l-123 -997h-164z" />
    <glyph glyph-name="Imacron" unicode="&#x12a;" horiz-adv-x="577" 
d="M182 1794h537l-17 -137h-536zM317 1454h177l-179 -1454h-176z" />
    <glyph glyph-name="imacron" unicode="&#x12b;" horiz-adv-x="491" 
d="M84 1362h537l-17 -141h-536zM225 997h164l-123 -997h-164z" />
    <glyph glyph-name="Ibreve" unicode="&#x12c;" horiz-adv-x="577" 
d="M426 1589q-125 0 -188 71t-52 195h129q-7 -58 22 -98.5t95 -40.5q65 0 113 42t61 97h129q-25 -121 -108 -193.5t-201 -72.5zM317 1454h177l-179 -1454h-176z" />
    <glyph glyph-name="ibreve" unicode="&#x12d;" horiz-adv-x="491" 
d="M336 1135q-106 0 -167.5 76t-51.5 210l123 -2q-8 -75 17 -120.5t83 -45.5q60 0 97 47t42 121l131 -2q-23 -132 -96.5 -208t-177.5 -76zM225 997h164l-123 -997h-164z" />
    <glyph glyph-name="Iogonek" unicode="&#x12e;" horiz-adv-x="577" 
d="M494 1454l-179 -1454h-2q-81 -32 -131 -86.5t-53 -110.5q0 -33 18.5 -52t53.5 -19q56 0 92 20l4 -108q-49 -25 -133 -25q-85 0 -129 39t-41 111q1 63 41.5 124.5t103.5 108.5l178 1452h177z" />
    <glyph glyph-name="iogonek" unicode="&#x12f;" horiz-adv-x="491" 
d="M352 1415q50 0 82.5 -32.5t32.5 -82.5q0 -51 -34 -84.5t-85 -33.5q-50 0 -82.5 32.5t-32.5 81.5q0 51 34 85t85 34zM225 997h164l-123 -997h-4q-81 -32 -131 -86.5t-53 -110.5q0 -33 18.5 -52t53.5 -19q56 0 92 20l4 -108q-49 -25 -133 -25q-85 0 -129 39t-41 111
q1 67 46 131.5t115 113.5z" />
    <glyph glyph-name="Idotaccent" unicode="&#x130;" horiz-adv-x="577" 
d="M440 1624q-49 0 -81.5 32.5t-32.5 82.5q0 51 33.5 85t84.5 34q50 0 82.5 -33t32.5 -82q0 -51 -34 -85t-85 -34zM317 1454h177l-179 -1454h-176z" />
    <glyph glyph-name="dotlessi" unicode="&#x131;" horiz-adv-x="491" 
d="M225 997h164l-123 -997h-164z" />
    <glyph glyph-name="IJ" unicode="&#x132;" horiz-adv-x="1536" 
d="M317 1454h177l-179 -1454h-176zM928 -12q-94 0 -182.5 49t-143.5 139l121 125q39 -66 93 -106.5t114 -40.5q221 0 266 346l117 954h176l-119 -962q-31 -253 -138 -378.5t-304 -125.5z" />
    <glyph glyph-name="ij" unicode="&#x133;" horiz-adv-x="927" 
d="M348 1182q-50 0 -82.5 32.5t-32.5 81.5q0 51 34 85t85 34q50 0 82.5 -32.5t32.5 -82.5q0 -51 -34 -84.5t-85 -33.5zM803 1182q-50 0 -82.5 32.5t-32.5 81.5q0 51 34 85t85 34q49 0 82 -32.5t33 -82.5q0 -51 -34 -84.5t-85 -33.5zM225 997h164l-123 -997h-164zM432 -418
q-90 0 -158 43l41 131q40 -30 95 -30q58 0 91 43.5t46 156.5l131 1071h164l-135 -1091q-20 -165 -88 -244.5t-187 -79.5z" />
    <glyph glyph-name="Jcircumflex" unicode="&#x134;" horiz-adv-x="958" 
d="M795 1855h157l181 -253h-158l-113 153h-4l-156 -153h-159zM350 -12q-94 0 -182 49t-143 139l120 125q39 -66 93 -106.5t114 -40.5q221 0 266 346l117 954h176l-118 -962q-31 -253 -138.5 -378.5t-304.5 -125.5z" />
    <glyph glyph-name="jcircumflex" unicode="&#x135;" horiz-adv-x="436" 
d="M242 1432h155l185 -293h-162l-105 184h-4l-149 -184h-168zM-59 -418q-90 0 -158 43l41 131q40 -30 94 -30q58 0 91 43.5t46 156.5l131 1071h164l-135 -1091q-20 -165 -87.5 -244.5t-186.5 -79.5z" />
    <glyph glyph-name="uni0136" unicode="&#x136;" horiz-adv-x="1236" 
d="M725 801l399 -801h-200l-328 672l-244 -279l-49 -393h-174l178 1454h174l-98 -792l6 -3l684 795h219zM489 -156q0 8 -1 22.5t-1 22.5h146v-43q0 -123 -62.5 -196.5t-187.5 -83.5l-25 100q70 18 100.5 58t30.5 120z" />
    <glyph glyph-name="uni0137" unicode="&#x137;" horiz-adv-x="1019" 
d="M860 -10q-24 -3 -47 0q-43 4 -73.5 20.5t-58.5 59t-42.5 72.5t-45.5 105l-9 21l-49 113q-122 -96 -252 -158l-25 -223h-162l185 1507h161l-135 -1104l4 -2q187 110 317 269.5t181 326.5h166q-67 -277 -313 -512l71 -170q45 -110 80 -147.5t94 -50.5zM242 -334
q70 18 100.5 58t30.5 120q0 8 -1 22.5t-1 22.5h145v-43q0 -123 -62.5 -196.5t-187.5 -83.5z" />
    <glyph glyph-name="kgreenlandic" unicode="&#x138;" horiz-adv-x="1019" 
d="M860 -10q-25 -3 -47 0q-43 4 -73.5 20.5t-58.5 59t-42.5 72.5t-45.5 105l-9 21l-49 113q-122 -96 -252 -158l-25 -223h-162l123 997h160l-72 -589l6 -5q187 111 316 269t180 325h166q-67 -277 -313 -512l71 -170q45 -110 80 -147.5t94 -50.5z" />
    <glyph glyph-name="Lacute" unicode="&#x139;" horiz-adv-x="1077" 
d="M776 1866h189l-267 -264h-166zM307 1454h174l-157 -1296h641l-19 -158h-817z" />
    <glyph glyph-name="lacute" unicode="&#x13a;" horiz-adv-x="483" 
d="M557 1892h188l-266 -264h-166zM291 1507h162l-185 -1507h-162z" />
    <glyph glyph-name="uni013B" unicode="&#x13b;" horiz-adv-x="1077" 
d="M307 1454h174l-157 -1296h641l-19 -158h-817zM313 -334q70 18 100.5 58t30.5 120q0 8 -1 22.5t-1 22.5h146v-43q0 -123 -62.5 -196.5t-187.5 -83.5z" />
    <glyph glyph-name="uni013C" unicode="&#x13c;" horiz-adv-x="483" 
d="M291 1507h162l-185 -1507h-162zM-29 -334q70 18 100.5 58t30.5 120q0 8 -1 22.5t-1 22.5h146v-43q0 -123 -62.5 -196.5t-187.5 -83.5z" />
    <glyph glyph-name="Lcaron" unicode="&#x13d;" horiz-adv-x="1077" 
d="M752 1581h170l-144 -377h-125zM307 1454h174l-157 -1296h641l-19 -158h-817z" />
    <glyph glyph-name="lcaron" unicode="&#x13e;" horiz-adv-x="591" 
d="M662 1581h167l-141 -377h-127zM291 1507h162l-185 -1507h-162z" />
    <glyph glyph-name="Ldot" unicode="&#x13f;" horiz-adv-x="1077" 
d="M307 1454h174l-157 -1296h641l-19 -158h-817zM815 575q-49 0 -81 32.5t-32 82.5q0 52 34 86.5t85 34.5q49 0 82 -32.5t33 -82.5q0 -52 -34 -86.5t-87 -34.5z" />
    <glyph glyph-name="ldot" unicode="&#x140;" horiz-adv-x="735" 
d="M291 1507h162l-185 -1507h-162zM612 403q-49 0 -80.5 32.5t-31.5 82.5q0 52 33.5 86.5t84.5 34.5q50 0 82.5 -32.5t32.5 -82.5q0 -52 -34.5 -86.5t-86.5 -34.5z" />
    <glyph glyph-name="Lslash" unicode="&#x141;" horiz-adv-x="1089" 
d="M977 158l-19 -158h-817l72 580l-172 -74l20 149l170 74l88 725h175l-78 -645l215 92l-19 -147l-215 -95l-61 -501h641z" />
    <glyph glyph-name="lslash" unicode="&#x142;" horiz-adv-x="559" 
d="M537 690l-158 -65l-76 -625h-162l68 553l-152 -64l17 136l151 63l101 819h161l-92 -747l158 65z" />
    <glyph glyph-name="Nacute" unicode="&#x143;" horiz-adv-x="1452" 
d="M940 1866h188l-266 -264h-166zM307 1454h174l576 -1157l6 2l141 1155h176l-180 -1454h-176l-575 1147h-5l-141 -1147h-174z" />
    <glyph glyph-name="nacute" unicode="&#x144;" horiz-adv-x="1122" 
d="M766 1430l184 2l-262 -291h-170zM219 997h162l-27 -225l4 -2q76 114 180 177t214 63q152 0 212.5 -100.5t32.5 -309.5l-79 -600h-162l78 588q20 143 -13.5 207.5t-120.5 64.5q-122 0 -245.5 -138t-147.5 -329l-49 -393h-162z" />
    <glyph glyph-name="uni0145" unicode="&#x145;" horiz-adv-x="1452" 
d="M307 1454h174l576 -1157l6 2l141 1155h176l-180 -1454h-176l-575 1147h-5l-141 -1147h-174zM451 -334q70 18 100.5 58t30.5 120q0 8 -1 22.5t-1 22.5h145v-43q0 -123 -62.5 -196.5t-187.5 -83.5z" />
    <glyph glyph-name="uni0146" unicode="&#x146;" horiz-adv-x="1122" 
d="M219 997h162l-27 -225l4 -2q76 114 180 177t214 63q152 0 212.5 -100.5t32.5 -309.5l-79 -600h-162l78 588q20 143 -13.5 207.5t-120.5 64.5q-122 0 -245.5 -138t-147.5 -329l-49 -393h-162zM289 -334q70 18 100.5 58t30.5 120q0 8 -1 22.5t-1 22.5h145v-43
q0 -123 -62.5 -196.5t-187.5 -83.5z" />
    <glyph glyph-name="Ncaron" unicode="&#x147;" horiz-adv-x="1452" 
d="M612 1855h158l111 -153h6l155 153h160l-252 -253h-159zM307 1454h174l576 -1157l6 2l141 1155h176l-180 -1454h-176l-575 1147h-5l-141 -1147h-174z" />
    <glyph glyph-name="ncaron" unicode="&#x148;" horiz-adv-x="1122" 
d="M414 1421h155l107 -176h6l154 176h157l-248 -284h-159zM219 997h162l-27 -225l4 -2q76 114 180 177t214 63q152 0 212.5 -100.5t32.5 -309.5l-79 -600h-162l78 588q20 143 -13.5 207.5t-120.5 64.5q-122 0 -245.5 -138t-147.5 -329l-49 -393h-162z" />
    <glyph glyph-name="napostrophe" unicode="&#x149;" horiz-adv-x="1339" 
d="M174 1454h170l-143 -397h-125zM436 997h162l-27 -225l4 -2q76 114 180 177t214 63q152 0 212.5 -100.5t32.5 -309.5l-79 -600h-162l78 588q20 143 -13 207.5t-120 64.5q-122 0 -246 -138t-148 -329l-49 -393h-162z" />
    <glyph glyph-name="Eng" unicode="&#x14a;" horiz-adv-x="1452" 
d="M1380 1454l-182 -1472q-27 -213 -129.5 -304.5t-275.5 -91.5q-72 0 -127 17l24 143q54 -14 96 -14q107 0 163 58t73 192l2 14l-575 1151h-5l-141 -1147h-174l178 1454h174l576 -1157l6 2l141 1155h176z" />
    <glyph glyph-name="eng" unicode="&#x14b;" horiz-adv-x="1112" 
d="M530 -418q-52 0 -102 17l27 129q35 -9 61 -9q96 0 154.5 68.5t81.5 239.5l73 561q18 143 -15 207.5t-118 64.5q-57 0 -120 -36t-117 -97t-94.5 -148.5t-53.5 -183.5l-47 -395h-164l123 997h162l-27 -225h4q72 113 172.5 175.5t210.5 62.5q153 0 214.5 -100.5t33.5 -309.5
l-80 -600q-29 -216 -124.5 -317t-254.5 -101z" />
    <glyph glyph-name="Omacron" unicode="&#x14c;" horiz-adv-x="1556" 
d="M715 1794h536l-16 -137h-537zM717 -12q-263 0 -419.5 161.5t-156.5 446.5q0 171 54.5 329t151 278.5t239 192.5t307.5 72q262 0 419.5 -161t157.5 -447q0 -175 -52.5 -333t-147.5 -278t-238.5 -190.5t-314.5 -70.5zM729 152q163 0 293 99t199 258.5t69 344.5
q0 220 -110 335.5t-306 115.5q-158 0 -286 -101.5t-196 -262t-68 -341.5q0 -216 108 -332t297 -116z" />
    <glyph glyph-name="omacron" unicode="&#x14d;" horiz-adv-x="1114" 
d="M406 1362h536l-16 -141h-537zM500 -12q-190 0 -301 110.5t-111 307.5q0 120 36.5 229t102.5 192.5t166 133t219 49.5q189 0 301.5 -108t112.5 -302q0 -173 -60.5 -310.5t-181.5 -219.5t-284 -82zM504 137q157 0 256.5 127.5t99.5 321.5q0 141 -73.5 206.5t-182.5 65.5
q-102 0 -183.5 -60.5t-125 -159t-43.5 -214.5q0 -130 67.5 -208.5t184.5 -78.5z" />
    <glyph glyph-name="Obreve" unicode="&#x14e;" horiz-adv-x="1556" 
d="M958 1589q-125 0 -187.5 71t-51.5 195h129q-7 -58 22 -98.5t95 -40.5q65 0 113 42t61 97h129q-25 -121 -108.5 -193.5t-201.5 -72.5zM717 -12q-263 0 -419.5 161.5t-156.5 446.5q0 171 54.5 329t151 278.5t239 192.5t307.5 72q262 0 419.5 -161t157.5 -447
q0 -175 -52.5 -333t-147.5 -278t-238.5 -190.5t-314.5 -70.5zM729 152q163 0 293 99t199 258.5t69 344.5q0 220 -110 335.5t-306 115.5q-158 0 -286 -101.5t-196 -262t-68 -341.5q0 -216 108 -332t297 -116z" />
    <glyph glyph-name="obreve" unicode="&#x14f;" horiz-adv-x="1114" 
d="M649 1133q-126 0 -187.5 74.5t-51.5 213.5l129 -2q-6 -72 21 -115.5t93 -43.5q68 0 115 46t61 115l129 -2q-25 -134 -108 -210t-201 -76zM500 -12q-190 0 -301 110.5t-111 307.5q0 120 36.5 229t102.5 192.5t166 133t219 49.5q189 0 301.5 -108t112.5 -302
q0 -173 -60.5 -310.5t-181.5 -219.5t-284 -82zM504 137q157 0 256.5 127.5t99.5 321.5q0 141 -73.5 206.5t-182.5 65.5q-102 0 -183.5 -60.5t-125 -159t-43.5 -214.5q0 -130 67.5 -208.5t184.5 -78.5z" />
    <glyph glyph-name="Ohungarumlaut" unicode="&#x150;" horiz-adv-x="1556" 
d="M954 1880l176 2l-264 -291h-161zM1280 1880l176 2l-264 -291h-160zM717 -12q-263 0 -419.5 161.5t-156.5 446.5q0 171 54.5 329t151 278.5t239 192.5t307.5 72q262 0 419.5 -161t157.5 -447q0 -175 -52.5 -333t-147.5 -278t-238.5 -190.5t-314.5 -70.5zM729 152
q163 0 293 99t199 258.5t69 344.5q0 220 -110 335.5t-306 115.5q-158 0 -286 -101.5t-196 -262t-68 -341.5q0 -216 108 -332t297 -116z" />
    <glyph glyph-name="ohungarumlaut" unicode="&#x151;" horiz-adv-x="1114" 
d="M655 1430l176 2l-264 -291h-161zM981 1430l176 2l-264 -291h-160zM500 -12q-190 0 -301 110.5t-111 307.5q0 120 36.5 229t102.5 192.5t166 133t219 49.5q189 0 301.5 -108t112.5 -302q0 -173 -60.5 -310.5t-181.5 -219.5t-284 -82zM504 137q157 0 256.5 127.5
t99.5 321.5q0 141 -73.5 206.5t-182.5 65.5q-102 0 -183.5 -60.5t-125 -159t-43.5 -214.5q0 -130 67.5 -208.5t184.5 -78.5z" />
    <glyph glyph-name="OE" unicode="&#x152;" horiz-adv-x="1798" 
d="M1120 1296l-61 -493h516l-19 -158h-516l-59 -487h670l-21 -158h-915q-261 0 -417.5 161t-156.5 439q0 137 34.5 265.5t100.5 234.5t156.5 185.5t209.5 124t253 44.5h877l-21 -158h-631zM807 164l137 1126l-67 2q-160 0 -288 -96.5t-196.5 -253t-68.5 -338.5
q0 -210 107 -325t296 -115h80z" />
    <glyph glyph-name="oe" unicode="&#x153;" horiz-adv-x="1503" 
d="M1092 137q51 0 113.5 30.5t111.5 94.5l127 -92q-70 -88 -163 -135t-194 -47q-115 0 -199.5 55.5t-127.5 157.5h-6q-60 -100 -149.5 -156.5t-196.5 -56.5q-160 0 -253.5 109.5t-93.5 293.5q0 168 58.5 308t170.5 225.5t255 85.5q99 0 174.5 -54t109.5 -157h9
q66 100 160.5 155.5t209.5 55.5q122 0 199.5 -62.5t77.5 -169.5q0 -88 -46.5 -160.5t-131.5 -124.5t-191.5 -88t-238.5 -59q13 -99 72.5 -154t142.5 -55zM721 575q4 131 -45 208t-135 77q-87 0 -159.5 -63.5t-113.5 -168.5t-41 -225q0 -129 55.5 -197.5t137.5 -68.5
q119 0 208 126t93 312zM1192 860q-112 0 -203.5 -104t-111.5 -275q199 40 321.5 110.5t122.5 168.5q0 48 -37 74t-92 26z" />
    <glyph glyph-name="Racute" unicode="&#x154;" horiz-adv-x="1247" 
d="M821 1866h189l-267 -264h-165zM307 1454h475q383 0 383 -373q0 -194 -94.5 -325.5t-271.5 -173.5l280 -582h-196l-260 557h-252l-68 -557h-174zM645 717q158 0 249 97.5t91 266.5q0 103 -66 159t-174 56h-282l-72 -579h254z" />
    <glyph glyph-name="racute" unicode="&#x155;" horiz-adv-x="669" 
d="M563 1430l185 2l-263 -291h-170zM221 997h162l-29 -223h4q134 211 338 236l-20 -191q-148 7 -245.5 -110.5t-121.5 -313.5l-49 -395h-164z" />
    <glyph glyph-name="uni0156" unicode="&#x156;" horiz-adv-x="1247" 
d="M307 1454h475q383 0 383 -373q0 -194 -94.5 -325.5t-271.5 -173.5l280 -582h-196l-260 557h-252l-68 -557h-174zM645 717q158 0 249 97.5t91 266.5q0 103 -66 159t-174 56h-282l-72 -579h254zM346 -334q70 18 100.5 58t30.5 120q0 8 -1 22.5t-1 22.5h146v-43
q0 -123 -62.5 -196.5t-187.5 -83.5z" />
    <glyph glyph-name="uni0157" unicode="&#x157;" horiz-adv-x="669" 
d="M221 997h162l-29 -223h4q134 211 338 236l-20 -191q-148 7 -245.5 -110.5t-121.5 -313.5l-49 -395h-164zM-39 -334q70 18 100.5 58t30.5 120q0 8 -1 22.5t-1 22.5h146v-43q0 -123 -62.5 -196.5t-187.5 -83.5z" />
    <glyph glyph-name="Rcaron" unicode="&#x158;" horiz-adv-x="1247" 
d="M494 1855h157l111 -153h6l156 153h159l-252 -253h-159zM307 1454h475q383 0 383 -373q0 -194 -94.5 -325.5t-271.5 -173.5l280 -582h-196l-260 557h-252l-68 -557h-174zM645 717q158 0 249 97.5t91 266.5q0 103 -66 159t-174 56h-282l-72 -579h254z" />
    <glyph glyph-name="rcaron" unicode="&#x159;" horiz-adv-x="669" 
d="M242 1421h155l107 -176h6l154 176h157l-248 -284h-159zM221 997h162l-29 -223h4q134 211 338 236l-20 -191q-148 7 -245.5 -110.5t-121.5 -313.5l-49 -395h-164z" />
    <glyph glyph-name="Sacute" unicode="&#x15a;" horiz-adv-x="1128" 
d="M856 1866h188l-266 -264h-166zM532 -12q-147 0 -274.5 63t-200.5 176l131 119q55 -95 145.5 -145.5t190.5 -50.5q132 0 216.5 70.5t84.5 180.5q0 23 -7 43.5t-14.5 36.5t-27 34.5t-32 29.5t-43 30.5t-45.5 28t-55 31l-56 31.5q-143 82 -189 115q-144 105 -164 238
q-4 24 -4 50q0 179 129 289t326 110q119 0 227 -51t183 -143l-129 -113q-57 77 -135.5 112.5t-157.5 35.5q-115 0 -188.5 -62.5t-71.5 -156.5q0 -25 7.5 -48t16.5 -40.5t30.5 -38.5t36 -33t48 -33.5t51 -32t60.5 -35.5q21 -12 63 -35t64 -35.5t58.5 -34.5t56 -38t47 -39.5
t42 -46t29.5 -50t21 -59.5t6 -67q0 -138 -63.5 -238t-170 -149t-242.5 -49z" />
    <glyph glyph-name="sacute" unicode="&#x15b;" horiz-adv-x="849" 
d="M649 1430l185 2l-263 -291h-170zM379 -12q-108 0 -201.5 42t-150.5 117l108 109q103 -125 244 -125q88 0 144.5 37.5t56.5 103.5q0 37 -29 67.5t-56.5 45t-101.5 46.5q-5 3 -8 4t-7.5 3t-8.5 4q-54 24 -94 48t-76 58t-55 78t-19 97q0 127 97 207t233 80q202 0 321 -136
l-108 -110q-86 102 -217 102q-69 0 -114.5 -36.5t-45.5 -98.5q0 -50 45 -86.5t133 -77.5q121 -56 163 -85q112 -77 113 -191q0 -146 -101.5 -224.5t-264.5 -78.5z" />
    <glyph glyph-name="Scircumflex" unicode="&#x15c;" horiz-adv-x="1128" 
d="M633 1855h158l180 -253h-158l-113 153h-4l-155 -153h-160zM532 -12q-147 0 -274.5 63t-200.5 176l131 119q55 -95 145.5 -145.5t190.5 -50.5q132 0 216.5 70.5t84.5 180.5q0 23 -7 43.5t-14.5 36.5t-27 34.5t-32 29.5t-43 30.5t-45.5 28t-55 31l-56 31.5
q-143 82 -189 115q-144 105 -164 238q-4 24 -4 50q0 179 129 289t326 110q119 0 227 -51t183 -143l-129 -113q-57 77 -135.5 112.5t-157.5 35.5q-115 0 -188.5 -62.5t-71.5 -156.5q0 -25 7.5 -48t16.5 -40.5t30.5 -38.5t36 -33t48 -33.5t51 -32t60.5 -35.5q21 -12 63 -35
t64 -35.5t58.5 -34.5t56 -38t47 -39.5t42 -46t29.5 -50t21 -59.5t6 -67q0 -138 -63.5 -238t-170 -149t-242.5 -49z" />
    <glyph glyph-name="scircumflex" unicode="&#x15d;" horiz-adv-x="849" 
d="M457 1432h155l185 -293h-162l-105 184h-4l-149 -184h-168zM379 -12q-108 0 -201.5 42t-150.5 117l108 109q103 -125 244 -125q88 0 144.5 37.5t56.5 103.5q0 37 -29 67.5t-56.5 45t-101.5 46.5q-5 3 -8 4t-7.5 3t-8.5 4q-54 24 -94 48t-76 58t-55 78t-19 97q0 127 97 207
t233 80q202 0 321 -136l-108 -110q-86 102 -217 102q-69 0 -114.5 -36.5t-45.5 -98.5q0 -50 45 -86.5t133 -77.5q121 -56 163 -85q112 -77 113 -191q0 -146 -101.5 -224.5t-264.5 -78.5z" />
    <glyph glyph-name="Scedilla" unicode="&#x15e;" horiz-adv-x="1128" 
d="M621 829q21 -12 63 -35t64 -35.5t58.5 -34.5t56 -38t47 -39.5t42 -46t29.5 -50t21 -59.5t6 -67q0 -138 -63.5 -238t-169 -149t-240.5 -49l-35 -56l2 -2q147 -10 147 -131q0 -87 -64.5 -135.5t-168.5 -48.5q-44 0 -90 12l6 88q30 -12 71 -12q58 0 95 25t37 71
q0 63 -142 66l4 61l39 70q-119 18 -218.5 77.5t-160.5 153.5l131 119q55 -95 145.5 -145.5t190.5 -50.5q132 0 216.5 70.5t84.5 180.5q0 23 -7 43.5t-14.5 36.5t-27 34.5t-32 29.5t-43 30.5t-45.5 28t-55 31l-56 31.5q-143 82 -189 115q-144 105 -164 238q-4 24 -4 50
q0 179 129 289t326 110q119 0 227 -51t183 -143l-129 -113q-57 77 -135.5 112.5t-157.5 35.5q-115 0 -188.5 -62.5t-71.5 -156.5q0 -25 7.5 -48t16.5 -40.5t30.5 -38.5t36 -33t48 -33.5t51 -32t60.5 -35.5z" />
    <glyph glyph-name="scedilla" unicode="&#x15f;" horiz-adv-x="849" 
d="M469 567q121 -56 163 -85q112 -77 113 -191q0 -146 -101.5 -224.5t-264.5 -78.5h-4l-35 -56l2 -2q147 -10 147 -131q0 -87 -64.5 -135.5t-168.5 -48.5q-44 0 -90 12l6 88q30 -12 72 -12q58 0 94.5 25t36.5 71q0 63 -142 66l5 61l41 72q-164 32 -252 149l108 109
q103 -125 244 -125q88 0 144.5 37.5t56.5 103.5q0 37 -29 67.5t-56.5 45t-101.5 46.5q-5 3 -8 4t-7.5 3t-8.5 4q-54 24 -94 48t-76 58t-55 78t-19 97q0 127 97 207t233 80q202 0 321 -136l-108 -110q-86 102 -217 102q-69 0 -114.5 -36.5t-45.5 -98.5q0 -50 45 -86.5
t133 -77.5z" />
    <glyph glyph-name="Scaron" unicode="&#x160;" horiz-adv-x="1128" 
d="M418 1855h157l111 -153h6l156 153h160l-252 -253h-160zM532 -12q-147 0 -274.5 63t-200.5 176l131 119q55 -95 145.5 -145.5t190.5 -50.5q132 0 216.5 70.5t84.5 180.5q0 23 -7 43.5t-14.5 36.5t-27 34.5t-32 29.5t-43 30.5t-45.5 28t-55 31l-56 31.5q-143 82 -189 115
q-144 105 -164 238q-4 24 -4 50q0 179 129 289t326 110q119 0 227 -51t183 -143l-129 -113q-57 77 -135.5 112.5t-157.5 35.5q-115 0 -188.5 -62.5t-71.5 -156.5q0 -25 7.5 -48t16.5 -40.5t30.5 -38.5t36 -33t48 -33.5t51 -32t60.5 -35.5q21 -12 63 -35t64 -35.5t58.5 -34.5
t56 -38t47 -39.5t42 -46t29.5 -50t21 -59.5t6 -67q0 -138 -63.5 -238t-170 -149t-242.5 -49z" />
    <glyph glyph-name="scaron" unicode="&#x161;" horiz-adv-x="849" 
d="M248 1421h155l107 -176h6l154 176h157l-247 -284h-160zM379 -12q-108 0 -201.5 42t-150.5 117l108 109q103 -125 244 -125q88 0 144.5 37.5t56.5 103.5q0 37 -29 67.5t-56.5 45t-101.5 46.5q-5 3 -8 4t-7.5 3t-8.5 4q-54 24 -94 48t-76 58t-55 78t-19 97q0 127 97 207
t233 80q202 0 321 -136l-108 -110q-86 102 -217 102q-69 0 -114.5 -36.5t-45.5 -98.5q0 -50 45 -86.5t133 -77.5q121 -56 163 -85q112 -77 113 -191q0 -146 -101.5 -224.5t-264.5 -78.5z" />
    <glyph glyph-name="uni0162" unicode="&#x162;" horiz-adv-x="1083" 
d="M1137 1454l-19 -158h-393l-158 -1296h-63l-41 -68l2 -2q147 -10 147 -131q0 -87 -64.5 -135.5t-168.5 -48.5q-43 0 -90 12l6 88q30 -12 72 -12q58 0 94.5 25t36.5 71q0 63 -142 66l4 61l43 74h-10l158 1296h-389l18 158h957z" />
    <glyph glyph-name="uni0163" unicode="&#x163;" horiz-adv-x="686" 
d="M303 299q-19 -156 84 -156q76 0 164 60l22 -146q-107 -69 -237 -69l-35 -56l2 -2q148 -10 148 -131q0 -87 -65 -135.5t-169 -48.5q-43 0 -90 12l6 88q30 -12 72 -12q58 0 94.5 25t36.5 71q0 63 -141 66l4 61l45 78q-133 53 -107 268l72 584h-111l15 141h112l43 328
l164 31l-43 -359h281l-15 -141h-282z" />
    <glyph glyph-name="Tcaron" unicode="&#x164;" horiz-adv-x="1083" 
d="M416 1855h157l111 -153h6l156 153h160l-252 -253h-160zM551 1296h-389l18 158h957l-19 -158h-393l-158 -1296h-174z" />
    <glyph glyph-name="tcaron" unicode="&#x165;" horiz-adv-x="704" 
d="M653 1581h168l-141 -377h-125zM334 -12q-117 0 -165 75.5t-32 208.5l72 584h-111l15 141h112l43 328l164 31l-43 -359h281l-15 -141h-282l-70 -557q-19 -156 84 -156q76 0 164 60l22 -146q-107 -69 -239 -69z" />
    <glyph glyph-name="Tbar" unicode="&#x166;" horiz-adv-x="1083" 
d="M725 1296l-61 -512h217l-15 -135h-219l-80 -649h-174l80 649h-211l14 135h213l62 512h-389l18 158h957l-19 -158h-393z" />
    <glyph glyph-name="tbar" unicode="&#x167;" horiz-adv-x="686" 
d="M373 856l-31 -240h240l-15 -114h-239l-25 -203q-19 -156 84 -156q76 0 164 60l22 -146q-107 -69 -239 -69q-117 0 -165 75.5t-32 208.5l29 230h-98l14 114h98l29 240h-111l15 141h112l43 328l164 31l-43 -359h281l-15 -141h-282z" />
    <glyph glyph-name="Utilde" unicode="&#x168;" horiz-adv-x="1363" 
d="M987 1599q-32 0 -66 14t-50 25t-44 33q-60 49 -98 49q-73 0 -123 -116l-104 53q86 184 215 184q18 0 34.5 -3t27.5 -6.5t26 -11.5t21 -12t21 -14.5t19 -13.5q23 -19 36 -29t33.5 -19.5t37.5 -9.5q34 0 66 30.5t55 84.5l104 -41q-38 -93 -94 -145t-117 -52zM621 -12
q-255 0 -365 166t-74 452l105 848h174l-105 -846q-17 -134 3.5 -233.5t88.5 -160t181 -60.5q351 0 403 438l107 862h174l-107 -864q-36 -306 -182.5 -454t-402.5 -148z" />
    <glyph glyph-name="utilde" unicode="&#x169;" horiz-adv-x="1093" 
d="M782 1153q-20 0 -38 4t-37.5 14.5t-27.5 15.5t-29.5 21t-22.5 17q-59 49 -99 49q-77 0 -127 -117l-104 53q83 197 217 197q17 0 33.5 -3t27 -6.5t24.5 -11.5t20 -12t20 -14.5l18 -13.5q6 -4 21 -15.5t22.5 -17t19.5 -12.5t22.5 -10t21.5 -3q75 0 125 115l104 -41
q-38 -100 -93.5 -154.5t-117.5 -54.5zM387 -12q-157 0 -224.5 96t-39.5 305l84 608h162l-80 -594q-19 -148 18.5 -207t126.5 -59q51 0 109.5 33t109.5 88t90 135.5t50 167.5l53 436h164l-123 -997h-162l27 225h-4q-62 -109 -156 -173t-205 -64z" />
    <glyph glyph-name="Umacron" unicode="&#x16a;" horiz-adv-x="1363" 
d="M584 1794h536l-16 -137h-537zM621 -12q-255 0 -365 166t-74 452l105 848h174l-105 -846q-17 -134 3.5 -233.5t88.5 -160t181 -60.5q351 0 403 438l107 862h174l-107 -864q-36 -306 -182.5 -454t-402.5 -148z" />
    <glyph glyph-name="umacron" unicode="&#x16b;" horiz-adv-x="1093" 
d="M381 1362h537l-17 -141h-536zM387 -12q-157 0 -224.5 96t-39.5 305l84 608h162l-80 -594q-19 -148 18.5 -207t126.5 -59q51 0 109.5 33t109.5 88t90 135.5t50 167.5l53 436h164l-123 -997h-162l27 225h-4q-62 -109 -156 -173t-205 -64z" />
    <glyph glyph-name="Ubreve" unicode="&#x16c;" horiz-adv-x="1363" 
d="M827 1589q-125 0 -187.5 71t-51.5 195h129q-7 -58 22 -98.5t95 -40.5q65 0 113 42t61 97h129q-25 -121 -108.5 -193.5t-201.5 -72.5zM621 -12q-255 0 -365 166t-74 452l105 848h174l-105 -846q-17 -134 3.5 -233.5t88.5 -160t181 -60.5q351 0 403 438l107 862h174
l-107 -864q-36 -306 -182.5 -454t-402.5 -148z" />
    <glyph glyph-name="ubreve" unicode="&#x16d;" horiz-adv-x="1093" 
d="M625 1133q-126 0 -188 74.5t-52 213.5l129 -2q-6 -72 21.5 -115.5t93.5 -43.5q68 0 115 46t61 115l129 -2q-25 -134 -108 -210t-201 -76zM387 -12q-157 0 -224.5 96t-39.5 305l84 608h162l-80 -594q-19 -148 18.5 -207t126.5 -59q51 0 109.5 33t109.5 88t90 135.5
t50 167.5l53 436h164l-123 -997h-162l27 225h-4q-62 -109 -156 -173t-205 -64z" />
    <glyph glyph-name="Uring" unicode="&#x16e;" horiz-adv-x="1363" 
d="M840 1577q-80 0 -134.5 54.5t-54.5 135.5q0 82 56.5 137.5t140.5 55.5q80 0 134 -54t54 -134q0 -84 -56 -139.5t-140 -55.5zM842 1683q38 0 64 25.5t26 63.5q0 35 -24.5 59t-61.5 24q-38 0 -64 -25.5t-26 -62.5t24.5 -60.5t61.5 -23.5zM621 -12q-255 0 -365 166t-74 452
l105 848h174l-105 -846q-17 -134 3.5 -233.5t88.5 -160t181 -60.5q351 0 403 438l107 862h174l-107 -864q-36 -306 -182.5 -454t-402.5 -148z" />
    <glyph glyph-name="uring" unicode="&#x16f;" horiz-adv-x="1093" 
d="M641 1118q-80 0 -134 54.5t-54 136.5t56 137t140 55q80 0 134.5 -54.5t54.5 -133.5q0 -83 -56 -139t-141 -56zM643 1225q38 0 64 25t26 63q0 35 -24.5 59.5t-61.5 24.5q-38 0 -64 -25.5t-26 -62.5t24.5 -60.5t61.5 -23.5zM387 -12q-157 0 -224.5 96t-39.5 305l84 608h162
l-80 -594q-19 -148 18.5 -207t126.5 -59q51 0 109.5 33t109.5 88t90 135.5t50 167.5l53 436h164l-123 -997h-162l27 225h-4q-62 -109 -156 -173t-205 -64z" />
    <glyph glyph-name="Uhungarumlaut" unicode="&#x170;" horiz-adv-x="1363" 
d="M823 1880l176 2l-264 -291h-162zM1149 1880l176 2l-264 -291h-160zM621 -12q-255 0 -365 166t-74 452l105 848h174l-105 -846q-17 -134 3.5 -233.5t88.5 -160t181 -60.5q351 0 403 438l107 862h174l-107 -864q-36 -306 -182.5 -454t-402.5 -148z" />
    <glyph glyph-name="uhungarumlaut" unicode="&#x171;" horiz-adv-x="1093" 
d="M631 1430l176 2l-264 -291h-162zM956 1430l177 2l-265 -291h-159zM387 -12q-157 0 -224.5 96t-39.5 305l84 608h162l-80 -594q-19 -148 18.5 -207t126.5 -59q51 0 109.5 33t109.5 88t90 135.5t50 167.5l53 436h164l-123 -997h-162l27 225h-4q-62 -109 -156 -173t-205 -64
z" />
    <glyph glyph-name="Uogonek" unicode="&#x172;" horiz-adv-x="1363" 
d="M1313 1454l-107 -864q-60 -503 -426 -586q-86 -36 -142.5 -91.5t-57.5 -109.5q-1 -32 18 -51.5t51 -19.5q48 0 92 20l4 -108q-51 -25 -133 -25q-87 0 -129.5 41t-40.5 109q0 57 35.5 114t95.5 101l-2 6q-153 11 -249 92t-129.5 213.5t-10.5 310.5l105 848h174l-105 -846
q-17 -134 3.5 -233.5t88.5 -160t181 -60.5q351 0 403 438l107 862h174z" />
    <glyph glyph-name="uogonek" unicode="&#x173;" horiz-adv-x="1093" 
d="M1010 997l-123 -997h-4q-81 -32 -131.5 -86.5t-53.5 -110.5q0 -33 18.5 -52t53.5 -19q56 0 92 20l4 -108q-49 -25 -133 -25q-85 0 -129 39t-41 111q1 68 47 133.5t117 113.5l25 209h-4q-62 -109 -156 -173t-205 -64q-157 0 -224.5 96t-39.5 305l84 608h162l-80 -594
q-19 -148 18.5 -207t126.5 -59q51 0 109.5 33t109.5 88t90 135.5t50 167.5l53 436h164z" />
    <glyph glyph-name="Wcircumflex" unicode="&#x174;" horiz-adv-x="1910" 
d="M1049 1855h157l180 -253h-157l-113 153h-4l-156 -153h-159zM188 1454h183l176 -1165h6l420 1165h194l148 -1145h4l453 1145h188l-596 -1454h-176l-152 1169h-4l-430 -1169h-176z" />
    <glyph glyph-name="wcircumflex" unicode="&#x175;" horiz-adv-x="1591" 
d="M844 1432h155l185 -293h-162l-104 184h-5l-149 -184h-168zM373 -12q-147 0 -212 102.5t-36 315.5l78 591h162l-74 -581q-9 -82 -5 -136t25 -85.5t48.5 -44.5t66.5 -13t85 25.5t92.5 74.5t83.5 134.5t50 191.5l54 434h163l-73 -587q-19 -150 15 -211.5t110 -61.5
q96 0 196.5 113t140.5 311q43 206 7 436h166q41 -247 -11 -483q-30 -135 -86.5 -239t-127.5 -165t-147.5 -91.5t-154.5 -30.5q-119 0 -188.5 63.5t-77.5 173.5h-4q-54 -105 -157.5 -171t-188.5 -66z" />
    <glyph glyph-name="Ycircumflex" unicode="&#x176;" horiz-adv-x="1136" 
d="M651 1855h158l180 -253h-158l-112 153h-4l-156 -153h-160zM498 649l-346 805h192l256 -635h6l414 635h203l-549 -805l-82 -649h-174z" />
    <glyph glyph-name="ycircumflex" unicode="&#x177;" horiz-adv-x="1091" 
d="M494 1139h-168l247 293h156l184 -293h-161l-105 184h-4zM1008 997l-105 -868q-16 -131 -53.5 -229t-86 -158t-114 -96.5t-130.5 -50t-142 -13.5q-177 0 -330 90l53 144q141 -84 279 -84q57 0 102 9.5t90 36.5t77.5 72t57.5 118.5t37 172.5l11 82l-4 2
q-65 -110 -160 -173.5t-207 -63.5q-158 0 -225.5 95.5t-38.5 305.5l82 608h161l-77 -594q-19 -148 18 -207t127 -59q115 0 230.5 132.5t136.5 310.5l51 417h160z" />
    <glyph glyph-name="Ydieresis" unicode="&#x178;" horiz-adv-x="1136" 
d="M537 1624q-49 0 -82 33t-33 82q0 51 34.5 85t86.5 34q47 0 79.5 -33t32.5 -82q0 -51 -33.5 -85t-84.5 -34zM887 1624q-51 0 -84 32.5t-33 82.5q0 51 35 85t86 34q48 0 80.5 -33t32.5 -82q0 -51 -33.5 -85t-83.5 -34zM498 649l-346 805h192l256 -635h6l414 635h203
l-549 -805l-82 -649h-174z" />
    <glyph glyph-name="Zacute" unicode="&#x179;" horiz-adv-x="1179" 
d="M791 1866h188l-266 -264h-166zM78 139l837 1151l-2 6h-659l18 158h887l-14 -139l-848 -1149l4 -8h705l-21 -158h-924z" />
    <glyph glyph-name="zacute" unicode="&#x17a;" horiz-adv-x="913" 
d="M633 1430l184 2l-262 -291h-170zM743 -53q-65 20 -138 31.5t-185 16t-176 5t-226 0.5l13 119l602 735v2h-481l16 141h704l-12 -116l-606 -736v-4q189 -4 312.5 -15.5t221.5 -43.5z" />
    <glyph glyph-name="Zdotaccent" unicode="&#x17b;" horiz-adv-x="1179" 
d="M739 1624q-49 0 -81.5 32.5t-32.5 82.5q0 51 33.5 85t84.5 34q49 0 82 -33t33 -82q0 -51 -34 -85t-85 -34zM78 139l837 1151l-2 6h-659l18 158h887l-14 -139l-848 -1149l4 -8h705l-21 -158h-924z" />
    <glyph glyph-name="zdotaccent" unicode="&#x17c;" horiz-adv-x="913" 
d="M557 1182q-50 0 -82.5 32.5t-32.5 81.5q0 51 34 85t85 34q49 0 82 -32.5t33 -82.5q0 -51 -34 -84.5t-85 -33.5zM743 -53q-65 20 -138 31.5t-185 16t-176 5t-226 0.5l13 119l602 735v2h-481l16 141h704l-12 -116l-606 -736v-4q189 -4 312.5 -15.5t221.5 -43.5z" />
    <glyph glyph-name="Zcaron" unicode="&#x17d;" horiz-adv-x="1179" 
d="M463 1855h158l110 -153h6l156 153h160l-252 -253h-160zM78 139l837 1151l-2 6h-659l18 158h887l-14 -139l-848 -1149l4 -8h705l-21 -158h-924z" />
    <glyph glyph-name="zcaron" unicode="&#x17e;" horiz-adv-x="913" 
d="M279 1421h155l107 -176h6l153 176h158l-248 -284h-159zM743 -53q-65 20 -138 31.5t-185 16t-176 5t-226 0.5l13 119l602 735v2h-481l16 141h704l-12 -116l-606 -736v-4q189 -4 312.5 -15.5t221.5 -43.5z" />
    <glyph glyph-name="longs" unicode="&#x17f;" horiz-adv-x="587" 
d="M213 856h-104l16 141h106l27 215q37 310 281 310q118 0 209 -62l-46 -139q-67 49 -141 49q-59 0 -95.5 -41t-49.5 -149l-146 -1180h-161z" />
    <glyph glyph-name="uni018F" unicode="&#x18f;" horiz-adv-x="1470" 
d="M819 1468q260 0 413.5 -160.5t153.5 -447.5q0 -140 -31.5 -270t-94 -239t-148.5 -190.5t-202 -127t-248 -45.5q-255 0 -408.5 159.5t-153.5 436.5q0 45 19 166h1079q6 53 6 104q0 219 -108.5 335t-294.5 116q-105 0 -206 -39t-181 -105l-103 131q223 176 508 176z
M672 152q177 0 307 122.5t188 319.5h-891v-6q0 -207 107 -321.5t289 -114.5z" />
    <glyph glyph-name="florin" unicode="&#x192;" horiz-adv-x="987" 
d="M96 -254q-91 0 -152 24.5t-91 61.5l75 111q61 -47 144 -47q78 0 127.5 48.5t76.5 164.5l170 706h-147l37 143h149l58 244q77 320 325 320q88 0 149.5 -25.5t94.5 -62.5l-76 -113q-60 49 -145 49q-144 0 -193 -211l-45 -201h273l-37 -143h-275l-180 -749
q-39 -166 -122 -243t-216 -77z" />
    <glyph glyph-name="uni019D" unicode="&#x19d;" horiz-adv-x="1445" 
d="M0 -414q-66 0 -133 15l24 145q39 -14 89 -14q68 0 98.5 51t44.5 172l184 1499h174l566 -1157l6 2l147 1155h174l-184 -1454h-178l-563 1147h-5l-151 -1233q-23 -177 -94 -252.5t-199 -75.5z" />
    <glyph glyph-name="Ohorn" unicode="&#x1a0;" horiz-adv-x="1654" 
d="M1702 1585l-25 -194q-39 -291 -233 -320q26 -91 26 -211q0 -175 -52.5 -333t-147.5 -278t-238.5 -190.5t-314.5 -70.5q-263 0 -419.5 161.5t-156.5 446.5q0 171 54.5 329t151 278.5t239 192.5t307.5 72q178 0 310.5 -76t201.5 -218q53 6 78.5 63.5t40.5 177.5l22 170h156
zM729 152q163 0 293 99t199 258.5t69 344.5q0 220 -110 335.5t-306 115.5q-158 0 -286 -101.5t-196 -262t-68 -341.5q0 -216 108 -332t297 -116z" />
    <glyph glyph-name="ohorn" unicode="&#x1a1;" horiz-adv-x="1280" 
d="M1313 1157l-25 -194q-42 -314 -264 -324q2 -12 2 -39q0 -173 -60.5 -310.5t-181.5 -219.5t-284 -82q-190 0 -301 110.5t-111 307.5q0 120 36.5 229t102.5 192.5t166 133t219 49.5q149 0 252.5 -69t141.5 -196q59 1 86.5 59.5t42.5 182.5l22 170h156zM504 137
q157 0 256.5 127.5t99.5 321.5q0 141 -73.5 206.5t-182.5 65.5q-102 0 -183.5 -60.5t-125 -159t-43.5 -214.5q0 -130 67.5 -208.5t184.5 -78.5z" />
    <glyph glyph-name="Uhorn" unicode="&#x1af;" horiz-adv-x="1513" 
d="M1622 1585l-25 -194q-44 -324 -278 -324q-23 0 -53 6l-60 -483q-36 -306 -182.5 -454t-402.5 -148q-255 0 -365 166t-74 452l105 848h174l-105 -846q-17 -134 3.5 -233.5t88.5 -160t181 -60.5q351 0 403 438l107 862h174l-35 -276q12 -4 35 -4q61 0 88.5 57.5t42.5 183.5
l22 170h156z" />
    <glyph glyph-name="uhorn" unicode="&#x1b0;" horiz-adv-x="1267" 
d="M1317 1157l-25 -194q-44 -324 -278 -324q-15 0 -47 4l-80 -643h-162l27 225h-4q-62 -109 -156 -173t-205 -64q-157 0 -224.5 96t-39.5 305l84 608h162l-80 -594q-19 -148 18.5 -207t126.5 -59q51 0 109.5 33t109.5 88t90 135.5t50 167.5l53 436h164l-31 -249q15 -3 29 -3
q61 0 88.5 58t42.5 184l22 170h156z" />
    <glyph glyph-name="uni01CD" unicode="&#x1cd;" horiz-adv-x="1282" 
d="M522 1855h158l111 -153h6l155 153h160l-252 -253h-160zM666 1454h184l317 -1454h-182l-74 356h-575l-160 -356h-182zM881 510l-150 725h-4l-324 -725h478z" />
    <glyph glyph-name="uni01CE" unicode="&#x1ce;" horiz-adv-x="1128" 
d="M424 1421h156l106 -176h6l154 176h158l-248 -284h-160zM428 -12q-165 0 -253.5 112.5t-88.5 288.5q0 121 36 233t100 198t159 138t205 52q84 0 158.5 -28t123.5 -79l4 2l13 90h162l-123 -995h-162l29 227l-7 2q-68 -115 -161 -178t-195 -63zM459 133q133 0 244 148
t139 366l12 103q-46 54 -118.5 81t-139.5 27q-77 0 -143.5 -40t-110 -106.5t-68 -151.5t-24.5 -175q0 -115 55 -183.5t154 -68.5z" />
    <glyph glyph-name="uni01CF" unicode="&#x1cf;" horiz-adv-x="577" 
d="M164 1855h158l110 -153h6l156 153h160l-252 -253h-160zM317 1454h177l-179 -1454h-176z" />
    <glyph glyph-name="uni01D0" unicode="&#x1d0;" horiz-adv-x="491" 
d="M70 1421h155l107 -176h6l154 176h157l-248 -284h-159zM225 997h164l-123 -997h-164z" />
    <glyph glyph-name="uni01D1" unicode="&#x1d1;" horiz-adv-x="1556" 
d="M696 1855h158l111 -153h6l155 153h160l-252 -253h-160zM717 -12q-263 0 -419.5 161.5t-156.5 446.5q0 171 54.5 329t151 278.5t239 192.5t307.5 72q262 0 419.5 -161t157.5 -447q0 -175 -52.5 -333t-147.5 -278t-238.5 -190.5t-314.5 -70.5zM729 152q163 0 293 99
t199 258.5t69 344.5q0 220 -110 335.5t-306 115.5q-158 0 -286 -101.5t-196 -262t-68 -341.5q0 -216 108 -332t297 -116z" />
    <glyph glyph-name="uni01D2" unicode="&#x1d2;" horiz-adv-x="1114" 
d="M391 1421h156l106 -176h6l154 176h158l-248 -284h-160zM500 -12q-190 0 -301 110.5t-111 307.5q0 120 36.5 229t102.5 192.5t166 133t219 49.5q189 0 301.5 -108t112.5 -302q0 -173 -60.5 -310.5t-181.5 -219.5t-284 -82zM504 137q157 0 256.5 127.5t99.5 321.5
q0 141 -73.5 206.5t-182.5 65.5q-102 0 -183.5 -60.5t-125 -159t-43.5 -214.5q0 -130 67.5 -208.5t184.5 -78.5z" />
    <glyph glyph-name="uni01D3" unicode="&#x1d3;" horiz-adv-x="1363" 
d="M565 1855h158l111 -153h6l155 153h160l-252 -253h-160zM621 -12q-255 0 -365 166t-74 452l105 848h174l-105 -846q-17 -134 3.5 -233.5t88.5 -160t181 -60.5q351 0 403 438l107 862h174l-107 -864q-36 -306 -182.5 -454t-402.5 -148z" />
    <glyph glyph-name="uni01D4" unicode="&#x1d4;" horiz-adv-x="1093" 
d="M367 1421h155l107 -176h6l153 176h158l-248 -284h-159zM387 -12q-157 0 -224.5 96t-39.5 305l84 608h162l-80 -594q-19 -148 18.5 -207t126.5 -59q51 0 109.5 33t109.5 88t90 135.5t50 167.5l53 436h164l-123 -997h-162l27 225h-4q-62 -109 -156 -173t-205 -64z" />
    <glyph glyph-name="uni01D5" unicode="&#x1d5;" horiz-adv-x="1363" 
d="M600 2054h537l-17 -117h-536zM655 1614q-46 0 -76 29t-30 73q0 46 31.5 77.5t78.5 31.5q46 0 76.5 -30.5t30.5 -74.5q0 -46 -32 -76t-79 -30zM997 1614q-46 0 -76 29t-30 73q0 46 31.5 77.5t78.5 31.5q46 0 76.5 -30.5t30.5 -74.5q0 -46 -32 -76t-79 -30zM621 -12
q-255 0 -365 166t-74 452l105 848h174l-105 -846q-17 -134 3.5 -233.5t88.5 -160t181 -60.5q351 0 403 438l107 862h174l-107 -864q-36 -306 -182.5 -454t-402.5 -148z" />
    <glyph glyph-name="uni01D6" unicode="&#x1d6;" horiz-adv-x="1093" 
d="M418 1679h536l-18 -127h-537zM463 1186q-49 0 -81 32t-32 80q0 51 33 84t84 33q48 0 79.5 -31.5t31.5 -80.5q0 -50 -33 -83.5t-82 -33.5zM805 1186q-49 0 -81 32t-32 80q0 51 34 84t85 33q47 0 79 -31.5t32 -80.5t-34 -83t-83 -34zM387 -12q-157 0 -224.5 96t-39.5 305
l84 608h162l-80 -594q-19 -148 18.5 -207t126.5 -59q51 0 109.5 33t109.5 88t90 135.5t50 167.5l53 436h164l-123 -997h-162l27 225h-4q-62 -109 -156 -173t-205 -64z" />
    <glyph glyph-name="uni01D7" unicode="&#x1d7;" horiz-adv-x="1363" 
d="M1008 2122l182 2l-289 -264h-129zM655 1614q-46 0 -76 29t-30 73q0 46 31.5 77.5t78.5 31.5q46 0 76.5 -30.5t30.5 -74.5q0 -46 -32 -76t-79 -30zM997 1614q-46 0 -76 29t-30 73q0 46 31.5 77.5t78.5 31.5q46 0 76.5 -30.5t30.5 -74.5q0 -46 -32 -76t-79 -30zM621 -12
q-255 0 -365 166t-74 452l105 848h174l-105 -846q-17 -134 3.5 -233.5t88.5 -160t181 -60.5q351 0 403 438l107 862h174l-107 -864q-36 -306 -182.5 -454t-402.5 -148z" />
    <glyph glyph-name="uni01D8" unicode="&#x1d8;" horiz-adv-x="1093" 
d="M827 1749h183l-295 -291h-129zM463 1186q-49 0 -81 32t-32 80q0 51 33 84t84 33q48 0 79.5 -31.5t31.5 -80.5q0 -50 -33 -83.5t-82 -33.5zM805 1186q-49 0 -81 32t-32 80q0 51 34 84t85 33q47 0 79 -31.5t32 -80.5t-34 -83t-83 -34zM387 -12q-157 0 -224.5 96t-39.5 305
l84 608h162l-80 -594q-19 -148 18.5 -207t126.5 -59q51 0 109.5 33t109.5 88t90 135.5t50 167.5l53 436h164l-123 -997h-162l27 225h-4q-62 -109 -156 -173t-205 -64z" />
    <glyph glyph-name="uni01D9" unicode="&#x1d9;" horiz-adv-x="1363" 
d="M578 2109h157l111 -137h6l156 137h159l-252 -227h-159zM655 1614q-46 0 -76 29t-30 73q0 46 31.5 77.5t78.5 31.5q46 0 76.5 -30.5t30.5 -74.5q0 -46 -32 -76t-79 -30zM997 1614q-46 0 -76 29t-30 73q0 46 31.5 77.5t78.5 31.5q46 0 76.5 -30.5t30.5 -74.5q0 -46 -32 -76
t-79 -30zM621 -12q-255 0 -365 166t-74 452l105 848h174l-105 -846q-17 -134 3.5 -233.5t88.5 -160t181 -60.5q351 0 403 438l107 862h174l-107 -864q-36 -306 -182.5 -454t-402.5 -148z" />
    <glyph glyph-name="uni01DA" unicode="&#x1da;" horiz-adv-x="1093" 
d="M410 1751h155l107 -176h6l153 176h158l-248 -285h-159zM463 1186q-49 0 -81 32t-32 80q0 51 33 84t84 33q48 0 79.5 -31.5t31.5 -80.5q0 -50 -33 -83.5t-82 -33.5zM805 1186q-49 0 -81 32t-32 80q0 51 34 84t85 33q47 0 79 -31.5t32 -80.5t-34 -83t-83 -34zM387 -12
q-157 0 -224.5 96t-39.5 305l84 608h162l-80 -594q-19 -148 18.5 -207t126.5 -59q51 0 109.5 33t109.5 88t90 135.5t50 167.5l53 436h164l-123 -997h-162l27 225h-4q-62 -109 -156 -173t-205 -64z" />
    <glyph glyph-name="uni01DB" unicode="&#x1db;" horiz-adv-x="1363" 
d="M600 2120h170l148 -260h-119zM655 1614q-46 0 -76 29t-30 73q0 46 31.5 77.5t78.5 31.5q46 0 76.5 -30.5t30.5 -74.5q0 -46 -32 -76t-79 -30zM997 1614q-46 0 -76 29t-30 73q0 46 31.5 77.5t78.5 31.5q46 0 76.5 -30.5t30.5 -74.5q0 -46 -32 -76t-79 -30zM621 -12
q-255 0 -365 166t-74 452l105 848h174l-105 -846q-17 -134 3.5 -233.5t88.5 -160t181 -60.5q351 0 403 438l107 862h174l-107 -864q-36 -306 -182.5 -454t-402.5 -148z" />
    <glyph glyph-name="uni01DC" unicode="&#x1dc;" horiz-adv-x="1093" 
d="M365 1749h182l166 -291h-129zM463 1186q-49 0 -81 32t-32 80q0 51 33 84t84 33q48 0 79.5 -31.5t31.5 -80.5q0 -50 -33 -83.5t-82 -33.5zM805 1186q-49 0 -81 32t-32 80q0 51 34 84t85 33q47 0 79 -31.5t32 -80.5t-34 -83t-83 -34zM387 -12q-157 0 -224.5 96t-39.5 305
l84 608h162l-80 -594q-19 -148 18.5 -207t126.5 -59q51 0 109.5 33t109.5 88t90 135.5t50 167.5l53 436h164l-123 -997h-162l27 225h-4q-62 -109 -156 -173t-205 -64z" />
    <glyph glyph-name="Gcaron" unicode="&#x1e6;" horiz-adv-x="1445" 
d="M655 1855h158l111 -153h6l155 153h160l-252 -253h-159zM725 -12q-264 0 -423 159.5t-159 448.5q0 174 55 333.5t151.5 278.5t235.5 189.5t298 70.5q311 0 485 -241l-143 -109q-131 182 -348 182q-157 0 -284.5 -96.5t-197 -256t-69.5 -347.5q0 -212 106.5 -332.5
t300.5 -120.5q195 0 354 123l41 320h-368l22 158h541l-68 -578q-101 -87 -242 -134.5t-288 -47.5z" />
    <glyph glyph-name="gcaron" unicode="&#x1e7;" horiz-adv-x="1134" 
d="M410 1421h155l107 -176h6l153 176h158l-248 -284h-159zM389 -418q-180 0 -330 90l54 144q139 -84 284 -84q80 0 138 16.5t110 59.5t85.5 126t49.5 207l17 125l-4 2q-71 -117 -165 -183.5t-198 -66.5q-165 0 -253.5 113t-88.5 289q0 87 22.5 173t66 160.5t103 132
t139.5 91t169 33.5q83 0 158.5 -27.5t125.5 -79.5l2 2l13 92h162l-107 -868q-16 -130 -53 -227.5t-86.5 -158t-117.5 -97t-138.5 -50.5t-157.5 -14zM459 166q128 0 240.5 134.5t138.5 322.5l16 127q-46 54 -118.5 81t-137.5 27q-103 0 -184 -67.5t-121.5 -167t-40.5 -205.5
q0 -115 54.5 -183.5t152.5 -68.5z" />
    <glyph glyph-name="uni01EA" unicode="&#x1ea;" horiz-adv-x="1556" 
d="M827 -4q-76 -34 -123.5 -86.5t-50.5 -106.5q0 -33 18.5 -52t53.5 -19q56 0 92 20l4 -108q-49 -25 -133 -25q-85 0 -129 39t-41 111q1 59 36 116.5t91 102.5v4q-232 22 -368 180.5t-136 423.5q0 171 54.5 329t151 278.5t239 192.5t307.5 72q262 0 419.5 -161t157.5 -447
q0 -217 -75.5 -401.5t-223.5 -309.5t-344 -153zM324 600q0 -216 108 -332t297 -116q163 0 293 99t199 258.5t69 344.5q0 220 -110 335.5t-306 115.5q-158 0 -286 -101.5t-196 -262t-68 -341.5z" />
    <glyph glyph-name="uni01EB" unicode="&#x1eb;" horiz-adv-x="1114" 
d="M571 -8q-73 -34 -117.5 -85t-47.5 -104q0 -33 18 -52t53 -19q56 0 92 20l4 -108q-49 -25 -133 -25q-85 0 -129 39t-41 111q1 61 37.5 120t95.5 105v2q-148 27 -231.5 133.5t-83.5 276.5q0 120 36.5 229t102.5 192.5t166 133t219 49.5q189 0 301.5 -108t112.5 -302
q0 -245 -121 -413.5t-334 -194.5zM252 424q0 -130 67.5 -208.5t184.5 -78.5q157 0 256.5 127.5t99.5 321.5q0 141 -73.5 206.5t-182.5 65.5q-102 0 -183.5 -60.5t-125 -159t-43.5 -214.5z" />
    <glyph glyph-name="Aringacute" unicode="&#x1fa;" horiz-adv-x="1282" 
d="M797 1577q-80 0 -134.5 54.5t-54.5 135.5q0 82 56.5 137.5t140.5 55.5q86 0 143 -64l137 101h191l-283 -207v-18q0 -84 -55.5 -139.5t-140.5 -55.5zM803 1855q-38 0 -64 -25.5t-26 -62.5t24.5 -60.5t61.5 -23.5q38 0 64 25.5t26 63.5q0 35 -24.5 59t-61.5 24zM850 1454
l317 -1454h-182l-74 356h-575l-160 -356h-182l672 1454h184zM881 510l-150 725h-4l-324 -725h478z" />
    <glyph glyph-name="aringacute" unicode="&#x1fb;" horiz-adv-x="1128" 
d="M698 1118q-80 0 -134 54.5t-54 136.5t56 137t141 55q86 0 141 -61l131 92h192l-278 -197q2 -6 2 -22q0 -83 -56 -139t-141 -56zM705 1397q-38 0 -64.5 -25.5t-26.5 -62.5t24.5 -60.5t61.5 -23.5q39 0 65 25t26 63q0 35 -24.5 59.5t-61.5 24.5zM885 995h162l-123 -995
h-162l29 227l-7 2q-68 -115 -161 -178t-195 -63q-165 0 -253.5 112.5t-88.5 288.5q0 121 36 233t100 198t159 138t205 52q84 0 158.5 -28t123.5 -79l4 2zM854 750q-46 54 -118.5 81t-139.5 27q-77 0 -143.5 -40t-110 -106.5t-68 -151.5t-24.5 -175q0 -115 55 -183.5
t154 -68.5q133 0 244 148t139 366z" />
    <glyph glyph-name="AEacute" unicode="&#x1fc;" horiz-adv-x="1757" 
d="M1149 1866h188l-266 -264h-166zM821 1454h910l-21 -158h-641l-61 -493h534l-20 -158h-533l-59 -487h678l-19 -158h-850l45 356h-428l-213 -356h-190zM803 510l92 758h-4l-449 -758h361z" />
    <glyph glyph-name="aeacute" unicode="&#x1fd;" horiz-adv-x="1419" 
d="M930 1141h-170l248 289l184 2zM995 139q54 0 116.5 29.5t111.5 93.5l129 -92q-70 -87 -164 -133.5t-199 -46.5q-138 0 -229 65t-123 187q-47 -118 -127.5 -187t-179.5 -69q-129 0 -205.5 104t-73.5 266q2 124 39.5 239t104.5 204.5t168 143.5t219 54q154 0 252 -73
q119 86 278 86q122 0 201.5 -68t79.5 -176q0 -113 -85 -198t-227 -132.5t-331 -62.5q7 -113 73.5 -173.5t171.5 -60.5zM1096 860q-123 0 -219.5 -99.5t-120.5 -260.5q214 22 342.5 90.5t128.5 169.5q0 49 -37.5 74.5t-93.5 25.5zM350 133q145 0 244 336q32 213 135 352
q-53 27 -133 27q-89 0 -163 -45.5t-120 -119t-71 -162.5t-25 -181q0 -97 37.5 -152t95.5 -55z" />
    <glyph glyph-name="Oslashacute" unicode="&#x1fe;" horiz-adv-x="1564" 
d="M1006 1602h-166l243 264h189zM1372 1241q103 -153 103 -381q0 -140 -33 -270t-98 -239t-154.5 -190.5t-210.5 -127t-258 -45.5q-237 0 -389 131l-152 -164l-90 90l158 170q-103 153 -103 381q0 171 54.5 329t151 278.5t239 192.5t307.5 72q239 0 391 -133l150 160l88 -88
zM328 600q0 -142 49 -246l792 852q-108 99 -290 99q-119 0 -223.5 -59.5t-175.5 -158t-111.5 -225.5t-40.5 -262zM1294 854q0 146 -51 248l-790 -852q104 -98 280 -98q163 0 293 99t199 258.5t69 344.5z" />
    <glyph glyph-name="oslashacute" unicode="&#x1ff;" horiz-adv-x="1118" 
d="M735 1141h-170l248 289l184 2zM965 840q61 -99 61 -240q0 -173 -60.5 -310.5t-181.5 -219.5t-284 -82q-167 0 -273 86l-110 -115l-78 76l115 119q-66 101 -66 252q0 120 36.5 229t102.5 192.5t166 133t219 49.5q171 0 281 -90l106 110l76 -76zM252 424q0 -80 27 -141
l499 518q-65 57 -174 57q-102 0 -183.5 -60.5t-125 -159t-43.5 -214.5zM860 586q0 67 -20 125l-498 -518q66 -56 162 -56q157 0 256.5 127.5t99.5 321.5z" />
    <glyph glyph-name="uni0218" unicode="&#x218;" horiz-adv-x="1128" 
d="M532 -12q-147 0 -274.5 63t-200.5 176l131 119q55 -95 145.5 -145.5t190.5 -50.5q132 0 216.5 70.5t84.5 180.5q0 23 -7 43.5t-14.5 36.5t-27 34.5t-32 29.5t-43 30.5t-45.5 28t-55 31l-56 31.5q-143 82 -189 115q-144 105 -164 238q-4 24 -4 50q0 179 129 289t326 110
q119 0 227 -51t183 -143l-129 -113q-57 77 -135.5 112.5t-157.5 35.5q-115 0 -188.5 -62.5t-71.5 -156.5q0 -25 7.5 -48t16.5 -40.5t30.5 -38.5t36 -33t48 -33.5t51 -32t60.5 -35.5q21 -12 63 -35t64 -35.5t58.5 -34.5t56 -38t47 -39.5t42 -46t29.5 -50t21 -59.5t6 -67
q0 -138 -63.5 -238t-170 -149t-242.5 -49zM299 -334q70 18 100.5 58t30.5 120q0 8 -1 22.5t-1 22.5h145v-43q0 -123 -62 -196.5t-187 -83.5z" />
    <glyph glyph-name="uni0219" unicode="&#x219;" horiz-adv-x="849" 
d="M379 -12q-108 0 -201.5 42t-150.5 117l108 109q103 -125 244 -125q88 0 144.5 37.5t56.5 103.5q0 37 -29 67.5t-56.5 45t-101.5 46.5q-5 3 -8 4t-7.5 3t-8.5 4q-54 24 -94 48t-76 58t-55 78t-19 97q0 127 97 207t233 80q202 0 321 -136l-108 -110q-86 102 -217 102
q-69 0 -114.5 -36.5t-45.5 -98.5q0 -50 45 -86.5t133 -77.5q121 -56 163 -85q112 -77 113 -191q0 -146 -101.5 -224.5t-264.5 -78.5zM139 -334q70 18 100.5 58t30.5 120q0 8 -1 22.5t-1 22.5h146v-43q0 -123 -62.5 -196.5t-187.5 -83.5z" />
    <glyph glyph-name="uni021A" unicode="&#x21a;" horiz-adv-x="1083" 
d="M551 1296h-389l18 158h957l-19 -158h-393l-158 -1296h-174zM262 -334q70 18 100.5 58t30.5 120q0 8 -1 22.5t-1 22.5h146v-43q0 -123 -62.5 -196.5t-187.5 -83.5z" />
    <glyph glyph-name="uni021B" unicode="&#x21b;" horiz-adv-x="686" 
d="M334 -12q-117 0 -165 75.5t-32 208.5l72 584h-111l15 141h112l43 328l164 31l-43 -359h281l-15 -141h-282l-70 -557q-19 -156 84 -156q76 0 164 60l22 -146q-107 -69 -239 -69zM100 -334q70 18 100.5 58t30.5 120q0 8 -1 22.5t-1 22.5h146v-43q0 -123 -62.5 -196.5
t-187.5 -83.5z" />
    <glyph glyph-name="uni0232" unicode="&#x232;" horiz-adv-x="1136" 
d="M455 1794h536l-16 -137h-537zM498 649l-346 805h192l256 -635h6l414 635h203l-549 -805l-82 -649h-174z" />
    <glyph glyph-name="uni0233" unicode="&#x233;" horiz-adv-x="1091" 
d="M899 1221h-537l17 141h536zM1008 997l-105 -868q-16 -131 -53.5 -229t-86 -158t-114 -96.5t-130.5 -50t-142 -13.5q-177 0 -330 90l53 144q141 -84 279 -84q57 0 102 9.5t90 36.5t77.5 72t57.5 118.5t37 172.5l11 82l-4 2q-65 -110 -160 -173.5t-207 -63.5
q-158 0 -225.5 95.5t-38.5 305.5l82 608h161l-77 -594q-19 -148 18 -207t127 -59q115 0 230.5 132.5t136.5 310.5l51 417h160z" />
    <glyph glyph-name="uni0237" unicode="&#x237;" horiz-adv-x="436" 
d="M-59 -418q-90 0 -158 43l41 131q40 -30 94 -30q58 0 91 43.5t46 156.5l131 1071h164l-135 -1091q-20 -165 -87.5 -244.5t-186.5 -79.5z" />
    <glyph glyph-name="uni0251" unicode="&#x251;" horiz-adv-x="1128" 
d="M428 -12q-165 0 -253.5 112.5t-88.5 288.5q0 121 36 233t100 198t159 138t205 52q84 0 158.5 -28t123.5 -79l4 2l13 90h162l-123 -995h-162l29 227l-7 2q-68 -115 -161 -178t-195 -63zM459 133q133 0 244 148t139 366l12 103q-46 54 -118.5 81t-139.5 27
q-77 0 -143.5 -40t-110 -106.5t-68 -151.5t-24.5 -175q0 -115 55 -183.5t154 -68.5z" />
    <glyph glyph-name="uni0259" unicode="&#x259;" horiz-adv-x="942" 
d="M475 1010q177 0 286 -116t109 -312q0 -169 -59.5 -302t-181 -212.5t-287.5 -79.5q-135 0 -218 72.5t-83 189.5q0 81 39.5 146t103 107.5t153.5 73t180 46t194 22.5q-12 99 -75.5 156t-164.5 57q-57 0 -124.5 -24.5t-119.5 -67.5l-92 117q67 58 158.5 92.5t181.5 34.5z
M354 137q149 0 240.5 102.5t112.5 268.5q-106 -9 -193 -27t-158.5 -47.5t-111 -75t-39.5 -102.5q0 -55 40.5 -87t108.5 -32z" />
    <glyph glyph-name="uni0261" unicode="&#x261;" horiz-adv-x="1134" 
d="M389 -418q-180 0 -330 90l54 144q139 -84 284 -84q80 0 138 16.5t110 59.5t85.5 126t49.5 207l17 125l-4 2q-71 -117 -165 -183.5t-198 -66.5q-165 0 -253.5 113t-88.5 289q0 87 22.5 173t66 160.5t103 132t139.5 91t169 33.5q83 0 158.5 -27.5t125.5 -79.5l2 2l13 92
h162l-107 -868q-16 -130 -53 -227.5t-86.5 -158t-117.5 -97t-138.5 -50.5t-157.5 -14zM459 166q128 0 240.5 134.5t138.5 322.5l16 127q-46 54 -118.5 81t-137.5 27q-103 0 -184 -67.5t-121.5 -167t-40.5 -205.5q0 -115 54.5 -183.5t152.5 -68.5z" />
    <glyph glyph-name="uni0272" unicode="&#x272;" horiz-adv-x="1122" 
d="M752 1010q152 0 212.5 -100.5t32.5 -309.5l-79 -600h-162l78 588q20 143 -13.5 207.5t-120.5 64.5q-114 0 -233.5 -124.5t-153.5 -303.5l-53 -432q-28 -223 -106 -320.5t-232 -97.5q-52 0 -102 17l26 129q35 -9 62 -9q86 0 126 59.5t62 221.5l123 997h164l-29 -225l4 -2
q76 114 180 177t214 63z" />
    <glyph glyph-name="uni02BB" unicode="&#x2bb;" horiz-adv-x="391" 
d="M256 1358h125l-41 -494h-164z" />
    <glyph glyph-name="uni02BC" unicode="&#x2bc;" horiz-adv-x="337" 
d="M223 1452h170l-143 -395h-125z" />
    <glyph glyph-name="uni02BE" unicode="&#x2be;" horiz-adv-x="458" 
d="M215 1520q120 -3 193 -75.5t73 -184.5q0 -139 -92.5 -233t-232.5 -97l-9 121q87 3 141 60t54 142q0 64 -38 102.5t-111 41.5z" />
    <glyph glyph-name="uni02BF" unicode="&#x2bf;" horiz-adv-x="473" 
d="M438 930q-120 3 -193 75.5t-73 184.5q0 138 92.5 232.5t233.5 97.5l8 -121q-87 -3 -141 -60t-54 -143q0 -63 38.5 -101.5t111.5 -41.5z" />
    <glyph glyph-name="circumflex" unicode="&#x2c6;" horiz-adv-x="917" 
d="M485 1399h156l184 -293h-161l-105 184h-4l-149 -184h-168z" />
    <glyph glyph-name="caron" unicode="&#x2c7;" horiz-adv-x="919" 
d="M276 1389h156l107 -177h6l153 177h158l-248 -285h-159z" />
    <glyph glyph-name="uni02C8" unicode="&#x2c8;" horiz-adv-x="358" 
d="M207 1315h133l-61 -535l-132 -2z" />
    <glyph glyph-name="uni02C9" unicode="&#x2c9;" horiz-adv-x="714" 
d="M195 1362h536l-16 -141h-537z" />
    <glyph glyph-name="uni02CA" unicode="&#x2ca;" horiz-adv-x="602" 
d="M469 1430l184 2l-262 -291h-170z" />
    <glyph glyph-name="uni02CB" unicode="&#x2cb;" horiz-adv-x="602" 
d="M193 1432l184 -2l178 -289h-170z" />
    <glyph glyph-name="uni02CC" unicode="&#x2cc;" horiz-adv-x="358" 
d="M76 184h133l-62 -534l-131 -2z" />
    <glyph glyph-name="breve" unicode="&#x2d8;" horiz-adv-x="870" 
d="M510 1100q-126 0 -188 75t-52 214l129 -3q-6 -72 21.5 -115.5t93.5 -43.5q68 0 115 46.5t61 115.5l129 -3q-25 -134 -108 -210t-201 -76z" />
    <glyph glyph-name="dotaccent" unicode="&#x2d9;" horiz-adv-x="944" 
d="M565 1149q-49 0 -81.5 32.5t-32.5 82.5q0 51 33.5 84.5t84.5 33.5q50 0 82.5 -32.5t32.5 -81.5q0 -51 -34 -85t-85 -34z" />
    <glyph glyph-name="ring" unicode="&#x2da;" horiz-adv-x="884" 
d="M532 1071q-80 0 -134 54.5t-54 136.5t56 137t141 55q79 0 133.5 -54t54.5 -134q0 -83 -56 -139t-141 -56zM535 1178q38 0 64 25t26 63q0 35 -24.5 59.5t-61.5 24.5q-38 0 -64 -25.5t-26 -62.5t24.5 -60.5t61.5 -23.5z" />
    <glyph glyph-name="ogonek" unicode="&#x2db;" horiz-adv-x="890" 
d="M408 -381q-85 0 -129 39t-41 111q1 73 53.5 143t130.5 117l135 -29q-81 -32 -131 -86.5t-53 -110.5q0 -33 18 -52t53 -19q57 0 93 20l4 -108q-49 -25 -133 -25z" />
    <glyph glyph-name="tilde" unicode="&#x2dc;" horiz-adv-x="944" 
d="M702 1120q-20 0 -38 4t-37.5 14.5t-27.5 15.5t-29.5 21t-22.5 17q-59 49 -98 49q-77 0 -127 -117l-105 54q83 196 217 196q17 0 33.5 -3t27 -6t25.5 -11.5t20 -12t20.5 -15t17.5 -13.5q7 -5 21 -16t22 -16.5t19.5 -12.5t22 -10t21.5 -3q75 0 125 115l104 -41
q-38 -100 -93.5 -154.5t-117.5 -54.5z" />
    <glyph glyph-name="hungarumlaut" unicode="&#x2dd;" horiz-adv-x="972" 
d="M457 1397l176 2l-264 -291h-162zM782 1397l176 2l-264 -291h-159z" />
    <glyph glyph-name="gravecomb" unicode="&#x300;" horiz-adv-x="0" 
d="M-1135 1399l185 -2l178 -289h-170z" />
    <glyph glyph-name="acutecomb" unicode="&#x301;" horiz-adv-x="0" 
d="M-879 1397l185 2l-262 -291h-170z" />
    <glyph glyph-name="uni0302" unicode="&#x302;" horiz-adv-x="0" 
d="M-997 1399h155l185 -293h-162l-105 184h-4l-149 -184h-168z" />
    <glyph glyph-name="tildecomb" unicode="&#x303;" horiz-adv-x="0" 
d="M-793 1120q-20 0 -38 4t-37.5 14.5t-27.5 15.5t-29.5 21t-22.5 17q-59 49 -99 49q-77 0 -127 -117l-104 54q83 196 217 196q17 0 33.5 -3t27 -6.5t24.5 -11.5t20 -12t20 -14.5l18 -13.5q6 -4 21 -15.5t22.5 -17t19.5 -12.5t22.5 -10t21.5 -3q75 0 125 115l104 -41
q-38 -100 -93.5 -154.5t-117.5 -54.5z" />
    <glyph glyph-name="uni0304" unicode="&#x304;" horiz-adv-x="0" 
d="M-1192 1329h537l-17 -141h-536z" />
    <glyph glyph-name="uni0306" unicode="&#x306;" horiz-adv-x="0" 
d="M-950 1100q-126 0 -188 75t-52 214l129 -3q-6 -72 21.5 -115.5t93.5 -43.5q68 0 115 46.5t61 115.5l129 -3q-25 -134 -108 -210t-201 -76z" />
    <glyph glyph-name="uni0307" unicode="&#x307;" horiz-adv-x="0" 
d="M-928 1149q-49 0 -81.5 32.5t-32.5 82.5q0 51 33.5 84.5t84.5 33.5q50 0 82.5 -32.5t32.5 -81.5q0 -51 -34 -85t-85 -34z" />
    <glyph glyph-name="uni0308" unicode="&#x308;" horiz-adv-x="0" 
d="M-1108 1149q-50 0 -82.5 32.5t-32.5 82.5q0 51 34.5 84.5t86.5 33.5q48 0 80.5 -32.5t32.5 -81.5q0 -51 -34 -85t-85 -34zM-758 1149q-51 0 -83.5 32.5t-32.5 82.5q0 51 34.5 84.5t85.5 33.5q48 0 80.5 -32.5t32.5 -81.5q0 -51 -33.5 -85t-83.5 -34z" />
    <glyph glyph-name="hookabovecomb" unicode="&#x309;" horiz-adv-x="0" 
d="M-1026 1102q174 125 174 205q0 49 -68 49q-81 0 -172 -68l-24 90q107 90 246 90q65 0 106 -31.5t41 -93.5q0 -74 -58 -139t-126 -104z" />
    <glyph glyph-name="uni030A" unicode="&#x30a;" horiz-adv-x="0" 
d="M-932 1085q-80 0 -134 54.5t-54 136.5t56 137t140 55q80 0 134.5 -54.5t54.5 -133.5q0 -83 -56 -139t-141 -56zM-930 1192q38 0 64 25t26 63q0 35 -24.5 59.5t-61.5 24.5q-38 0 -64 -25.5t-26 -62.5t24.5 -60.5t61.5 -23.5z" />
    <glyph glyph-name="uni030B" unicode="&#x30b;" horiz-adv-x="0" 
d="M-942 1397l176 2l-264 -291h-162zM-616 1397l176 2l-265 -291h-159z" />
    <glyph glyph-name="uni030C" unicode="&#x30c;" horiz-adv-x="0" 
d="M-1206 1389h155l107 -177h6l154 177h157l-247 -285h-160z" />
    <glyph glyph-name="uni0312" unicode="&#x312;" horiz-adv-x="0" 
d="M-1004 1106q-2 8 -2 45q0 122 63 195.5t187 85.5l25 -101q-70 -17 -99.5 -58t-29.5 -122q0 -27 2 -45h-146z" />
    <glyph glyph-name="uni0313" unicode="&#x313;" horiz-adv-x="0" 
d="M-1012 1417q2 -8 2 -45q0 -122 -63 -195t-187 -85l-24 100q70 17 99.5 58t29.5 122q0 27 -2 45h145z" />
    <glyph glyph-name="uni031B" unicode="&#x31b;" horiz-adv-x="0" 
d="M-922 936q-40 0 -92 14l27 103q32 -11 59 -11q61 0 88.5 58t42.5 184l23 170h156l-25 -194q-23 -165 -95 -244.5t-184 -79.5z" />
    <glyph glyph-name="dotbelowcomb" unicode="&#x323;" horiz-adv-x="0" 
d="M-1124 -195q50 0 82 -32.5t32 -81.5q0 -51 -33.5 -85t-84.5 -34q-50 0 -82.5 33t-32.5 82q0 51 34 84.5t85 33.5z" />
    <glyph glyph-name="uni0324" unicode="&#x324;" horiz-adv-x="0" 
d="M-1294 -195q51 0 83.5 -32t32.5 -82q0 -51 -34.5 -85t-85.5 -34q-48 0 -80.5 33t-32.5 82q0 51 33.5 84.5t83.5 33.5zM-944 -195q50 0 82.5 -32.5t32.5 -81.5q0 -51 -34.5 -85t-86.5 -34q-48 0 -80.5 33t-32.5 82q0 51 34 84.5t85 33.5z" />
    <glyph glyph-name="uni0326" unicode="&#x326;" horiz-adv-x="0" 
d="M-1315 -334q70 18 100.5 58t30.5 120q0 8 -1 22.5t-1 22.5h146v-43q0 -123 -62.5 -196.5t-187.5 -83.5z" />
    <glyph glyph-name="uni0327" unicode="&#x327;" horiz-adv-x="0" 
d="M-1198 -385q-44 0 -90 12l6 88q30 -12 72 -12q58 0 94.5 25t36.5 71q0 63 -142 66l4 61l50 86h102l-49 -80l2 -2q147 -10 147 -131q0 -87 -64.5 -135.5t-168.5 -48.5z" />
    <glyph glyph-name="uni0328" unicode="&#x328;" horiz-adv-x="0" 
d="M-1239 -381q-85 0 -129 39t-41 111q1 73 53.5 143t130.5 117l135 -29q-81 -32 -131 -86.5t-53 -110.5q0 -33 18.5 -52t53.5 -19q56 0 92 20l4 -108q-49 -25 -133 -25z" />
    <glyph glyph-name="uni032E" unicode="&#x32e;" horiz-adv-x="0" 
d="M-1135 -449q-126 0 -188 74.5t-51 214.5l129 -2q-6 -72 21.5 -116t93.5 -44q68 0 115 46.5t61 115.5l129 -2q-25 -134 -108.5 -210.5t-201.5 -76.5z" />
    <glyph glyph-name="uni0331" unicode="&#x331;" horiz-adv-x="0" 
d="M-1384 -256h536l-16 -141h-537z" />
    <glyph glyph-name="uni0335" unicode="&#x335;" horiz-adv-x="0" 
d="M-1253 616h499l-16 -114h-498z" />
    <glyph glyph-name="uni0374" unicode="&#x374;" horiz-adv-x="487" 
d="M283 1487h178l-176 -504h-146z" />
    <glyph glyph-name="uni0375" unicode="&#x375;" horiz-adv-x="487" 
d="M193 205h178l-176 -506h-146z" />
    <glyph glyph-name="uni037E" unicode="&#x37e;" horiz-adv-x="460" 
d="M281 774q-49 0 -81 32.5t-32 82.5q0 52 34 86.5t85 34.5q49 0 81.5 -32.5t32.5 -82.5q0 -53 -34 -87t-86 -34zM111 225h176l-174 -493h-123z" />
    <glyph glyph-name="tonos" unicode="&#x384;" horiz-adv-x="874" 
d="M543 1444h196l-194 -336h-162z" />
    <glyph glyph-name="dieresistonos" unicode="&#x385;" horiz-adv-x="1067" 
d="M625 1444h157l-153 -336h-129zM317 1149q-49 0 -81.5 32.5t-32.5 82.5q0 51 34 84.5t85 33.5q48 0 80 -32.5t32 -81.5q0 -51 -33 -85t-84 -34zM901 1149q-49 0 -81 32.5t-32 82.5q0 51 34 84.5t85 33.5q50 0 82.5 -32.5t32.5 -81.5q0 -51 -34.5 -85t-86.5 -34z" />
    <glyph glyph-name="Alphatonos" unicode="&#x386;" horiz-adv-x="1282" 
d="M666 1454h184l317 -1454h-182l-74 356h-575l-160 -356h-182zM201 1454h194l-209 -336h-159zM881 510l-150 725h-4l-324 -725h478z" />
    <glyph glyph-name="anoteleia" unicode="&#x387;" horiz-adv-x="489" 
d="M297 774q-49 0 -81 32.5t-32 82.5q0 52 34 86.5t85 34.5q49 0 82 -33t33 -82q0 -53 -34 -87t-87 -34z" />
    <glyph glyph-name="Epsilontonos" unicode="&#x388;" horiz-adv-x="1144" 
d="M-31 1454h195l-209 -336h-160zM307 1454h811l-20 -158h-637l-60 -493h523l-21 -158h-522l-59 -487h675l-18 -158h-850z" />
    <glyph glyph-name="Etatonos" unicode="&#x389;" horiz-adv-x="1398" 
d="M-31 1454h195l-209 -336h-160zM307 1454h174l-84 -684h670l84 684h174l-176 -1454h-176l76 612h-670l-76 -612h-174z" />
    <glyph glyph-name="Iotatonos" unicode="&#x38a;" horiz-adv-x="577" 
d="M-20 1454h194l-209 -336h-160zM317 1454h177l-179 -1454h-176z" />
    <glyph glyph-name="Omicrontonos" unicode="&#x38c;" horiz-adv-x="1556" 
d="M717 -12q-263 0 -419.5 161.5t-156.5 446.5q0 171 54.5 329t151 278.5t239 192.5t307.5 72q262 0 419.5 -161t157.5 -447q0 -175 -52.5 -333t-147.5 -278t-238.5 -190.5t-314.5 -70.5zM82 1454h194l-208 -336h-160zM729 152q163 0 293 99t199 258.5t69 344.5
q0 220 -110 335.5t-306 115.5q-158 0 -286 -101.5t-196 -262t-68 -341.5q0 -216 108 -332t297 -116z" />
    <glyph glyph-name="Upsilontonos" unicode="&#x38e;" horiz-adv-x="1136" 
d="M-133 1454h194l-208 -336h-160zM498 649l-346 805h192l256 -635h6l414 635h203l-549 -805l-82 -649h-174z" />
    <glyph glyph-name="Omegatonos" unicode="&#x38f;" horiz-adv-x="1464" 
d="M96 158h285v2q-107 95 -167 232.5t-60 297.5q0 159 50 301.5t139 247.5t218.5 166t280.5 61q245 0 396 -163t151 -418q0 -223 -100 -411.5t-273 -313.5v-2h270l-20 -158h-496l18 158q195 119 306.5 303.5t111.5 419.5q0 191 -101.5 306.5t-270.5 115.5q-150 0 -266 -88.5
t-175 -227.5t-59 -301q0 -164 68 -299.5t190 -228.5l-19 -158h-497zM70 1454h194l-209 -336h-159z" />
    <glyph glyph-name="iotadieresistonos" unicode="&#x390;" horiz-adv-x="575" 
d="M389 1477h158l-154 -336h-129zM82 1182q-50 0 -82.5 32.5t-32.5 81.5q0 51 34 85t85 34q48 0 80.5 -33t32.5 -82q0 -51 -33 -84.5t-84 -33.5zM666 1182q-49 0 -81 32t-32 82q0 51 34 85t85 34q49 0 81.5 -32.5t32.5 -82.5q0 -51 -34 -84.5t-86 -33.5zM332 -12
q-66 0 -109.5 21t-62 58.5t-24.5 88.5t3 110l92 731h160l-86 -704q-11 -82 9 -120t81 -38q31 0 82 19l27 -129q-92 -37 -172 -37z" />
    <glyph glyph-name="Alpha" unicode="&#x391;" horiz-adv-x="1282" 
d="M666 1454h184l317 -1454h-182l-74 356h-575l-160 -356h-182zM881 510l-150 725h-4l-324 -725h478z" />
    <glyph glyph-name="Beta" unicode="&#x392;" horiz-adv-x="1228" 
d="M307 1454h451q173 0 271.5 -72t98.5 -227q0 -116 -66.5 -224t-182.5 -157v-2q106 -29 167.5 -104t61.5 -195q0 -227 -142.5 -350t-400.5 -123h-436zM664 829q126 0 205 80t79 215q0 89 -56 130.5t-177 41.5h-252l-57 -467h258zM571 158q166 0 261.5 82t95.5 237
q0 102 -65 150.5t-201 48.5h-275l-63 -518h247z" />
    <glyph glyph-name="Gamma" unicode="&#x393;" horiz-adv-x="1083" 
d="M307 1454h834l-21 -158h-657l-160 -1296h-174z" />
    <glyph glyph-name="uni0394" unicode="&#x394;" horiz-adv-x="1230" 
d="M31 137l608 1317h184l289 -1317l-18 -137h-1080zM928 158l-219 1081h-2l-484 -1081h705z" />
    <glyph glyph-name="Epsilon" unicode="&#x395;" horiz-adv-x="1144" 
d="M307 1454h811l-20 -158h-637l-60 -493h523l-21 -158h-522l-59 -487h675l-18 -158h-850z" />
    <glyph glyph-name="Zeta" unicode="&#x396;" horiz-adv-x="1179" 
d="M78 139l837 1151l-2 6h-659l18 158h887l-14 -139l-848 -1149l4 -8h705l-21 -158h-924z" />
    <glyph glyph-name="Eta" unicode="&#x397;" horiz-adv-x="1398" 
d="M307 1454h174l-84 -684h670l84 684h174l-176 -1454h-176l76 612h-670l-76 -612h-174z" />
    <glyph glyph-name="Theta" unicode="&#x398;" horiz-adv-x="1558" 
d="M723 -12q-263 0 -419.5 161.5t-156.5 446.5q0 171 54.5 329t151 278.5t239 192.5t307.5 72q262 0 420 -161t158 -447q0 -140 -33 -270t-98 -239t-154.5 -190.5t-210.5 -127t-258 -45.5zM735 152q163 0 293 99t199 258.5t69 344.5q0 220 -109.5 335.5t-305.5 115.5
q-119 0 -223.5 -59.5t-175.5 -158t-111.5 -225.5t-40.5 -262q0 -216 108 -332t297 -116zM518 799h596l-20 -160h-596z" />
    <glyph glyph-name="Iota" unicode="&#x399;" horiz-adv-x="577" 
d="M317 1454h177l-179 -1454h-176z" />
    <glyph glyph-name="Kappa" unicode="&#x39a;" horiz-adv-x="1236" 
d="M725 801l399 -801h-200l-328 672l-244 -279l-49 -393h-174l178 1454h174l-98 -792l6 -3l684 795h219z" />
    <glyph glyph-name="Lambda" unicode="&#x39b;" horiz-adv-x="1269" 
d="M657 1454h185l305 -1454h-180l-240 1231h-4l-541 -1231h-184z" />
    <glyph glyph-name="Mu" unicode="&#x39c;" horiz-adv-x="1679" 
d="M307 1454h176l359 -940h4l586 940h174l-179 -1454h-174l131 1087l-6 3l-501 -797h-121l-312 821l-4 -2l-137 -1112h-174z" />
    <glyph glyph-name="Nu" unicode="&#x39d;" horiz-adv-x="1452" 
d="M307 1454h174l576 -1157l6 2l141 1155h176l-180 -1454h-176l-575 1147h-5l-141 -1147h-174z" />
    <glyph glyph-name="Xi" unicode="&#x39e;" horiz-adv-x="1204" 
d="M264 1454h912l-21 -162h-909zM274 799h727l-20 -160h-727zM94 162h936l-20 -162h-936z" />
    <glyph glyph-name="Omicron" unicode="&#x39f;" horiz-adv-x="1556" 
d="M717 -12q-263 0 -419.5 161.5t-156.5 446.5q0 171 54.5 329t151 278.5t239 192.5t307.5 72q262 0 419.5 -161t157.5 -447q0 -175 -52.5 -333t-147.5 -278t-238.5 -190.5t-314.5 -70.5zM729 152q163 0 293 99t199 258.5t69 344.5q0 220 -110 335.5t-306 115.5
q-158 0 -286 -101.5t-196 -262t-68 -341.5q0 -216 108 -332t297 -116z" />
    <glyph glyph-name="Pi" unicode="&#x3a0;" horiz-adv-x="1349" 
d="M307 1454h971l-180 -1454h-172l157 1296h-620l-160 -1296h-174z" />
    <glyph glyph-name="Rho" unicode="&#x3a1;" horiz-adv-x="1183" 
d="M307 1454h469q383 0 383 -373q0 -243 -142 -383.5t-401 -140.5h-245l-68 -557h-174zM639 717q159 0 248.5 95t89.5 269q0 103 -65.5 159t-172.5 56h-276l-72 -579h248z" />
    <glyph glyph-name="Sigma" unicode="&#x3a3;" horiz-adv-x="1103" 
d="M70 127l438 602l-289 594l14 131h895l-18 -158h-676v-4l275 -563l-420 -567v-4h682l-21 -158h-897z" />
    <glyph glyph-name="Tau" unicode="&#x3a4;" horiz-adv-x="1083" 
d="M551 1296h-389l18 158h957l-19 -158h-393l-158 -1296h-174z" />
    <glyph glyph-name="Upsilon" unicode="&#x3a5;" horiz-adv-x="1136" 
d="M498 649l-346 805h192l256 -635h6l414 635h203l-549 -805l-82 -649h-174z" />
    <glyph glyph-name="Phi" unicode="&#x3a6;" horiz-adv-x="1619" 
d="M1546 815q0 -138 -45.5 -257t-131 -210t-218.5 -145t-299 -58l-16 -145h-177l19 147q-251 14 -399 149.5t-148 373.5q0 134 47.5 255.5t134.5 216t220 153t294 65.5l15 125h176l-14 -127q243 -18 392.5 -160.5t149.5 -382.5zM313 676q0 -175 101 -269.5t286 -105.5
l113 907q-115 -7 -210.5 -52t-158 -117.5t-97 -165.5t-34.5 -197zM866 299q236 10 367 152t131 358q0 180 -100 283.5t-285 115.5z" />
    <glyph glyph-name="Chi" unicode="&#x3a7;" horiz-adv-x="1224" 
d="M520 731l-344 723h197l280 -592h6l418 592h211l-528 -729l354 -725h-203l-284 592h-6l-431 -592h-202z" />
    <glyph glyph-name="Psi" unicode="&#x3a8;" horiz-adv-x="1495" 
d="M1466 1454l-65 -524q-37 -297 -179 -440t-407 -144l-43 -346h-176l43 346q-255 3 -365 152.5t-75 439.5l65 516h174l-63 -506q-29 -225 34.5 -332.5t247.5 -111.5l117 950h176l-116 -950q180 5 272.5 107.5t122.5 342.5l63 500h174z" />
    <glyph glyph-name="uni03A9" unicode="&#x3a9;" horiz-adv-x="1464" 
d="M96 158h285v2q-107 95 -167 232.5t-60 297.5q0 159 50 301.5t139 247.5t218.5 166t280.5 61q245 0 396 -163t151 -418q0 -223 -100 -411.5t-273 -313.5v-2h270l-20 -158h-496l18 158q195 119 306.5 303.5t111.5 419.5q0 191 -101.5 306.5t-270.5 115.5q-150 0 -266 -88.5
t-175 -227.5t-59 -301q0 -164 68 -299.5t190 -228.5l-19 -158h-497z" />
    <glyph glyph-name="Iotadieresis" unicode="&#x3aa;" horiz-adv-x="577" 
d="M221 1624q-49 0 -82 33t-33 82q0 51 34 85t85 34q49 0 82 -33t33 -82q0 -51 -34 -85t-85 -34zM659 1624q-51 0 -82.5 32.5t-31.5 82.5q0 51 34 85t85 34q49 0 81.5 -32.5t32.5 -82.5q0 -51 -34 -85t-85 -34zM317 1454h177l-179 -1454h-176z" />
    <glyph glyph-name="Upsilondieresis" unicode="&#x3ab;" horiz-adv-x="1136" 
d="M492 1624q-50 0 -82.5 33t-32.5 82q0 51 34 85t85 34q49 0 81.5 -32.5t32.5 -82.5q0 -51 -33.5 -85t-84.5 -34zM930 1624q-51 0 -83 32.5t-32 82.5q0 51 34 85t85 34q50 0 82.5 -33t32.5 -82q0 -51 -34 -85t-85 -34zM498 649l-346 805h192l256 -635h6l414 635h203
l-549 -805l-82 -649h-174z" />
    <glyph glyph-name="alphatonos" unicode="&#x3ac;" horiz-adv-x="1171" 
d="M741 1141h-161l159 336h197zM993 135q31 0 76 10l29 -116q-69 -41 -160 -41q-90 -2 -132.5 61t-43.5 209h-2q-145 -270 -363 -270q-139 0 -228 111.5t-89 297.5q0 158 59 298.5t166.5 227.5t237.5 87q133 0 203.5 -80.5t99.5 -227.5h2l119 314l147 -64l-211 -479l6 -168
q3 -98 18.5 -134t65.5 -36zM426 137q100 0 185 96t139 259q-3 178 -54 271t-143 93t-164 -69t-107.5 -169t-35.5 -206q0 -128 47 -201.5t133 -73.5z" />
    <glyph glyph-name="epsilontonos" unicode="&#x3ad;" horiz-adv-x="921" 
d="M627 1477h196l-194 -336h-162zM403 -12q-161 0 -248 64.5t-89 178.5q-2 94 52 169.5t152 115.5v4q-61 30 -97 83.5t-36 119.5q0 124 112 205.5t273 81.5q222 0 371 -115l-74 -123q-114 85 -276 90q-107 2 -174.5 -42t-67.5 -118q0 -54 43.5 -91.5t130.5 -37.5l156 -2
l-13 -125h-176q-88 0 -150.5 -52.5t-62.5 -123.5q0 -64 51.5 -99.5t147.5 -35.5q99 0 177 25t171 88l60 -127q-112 -74 -210 -103.5t-223 -29.5z" />
    <glyph glyph-name="etatonos" unicode="&#x3ae;" horiz-adv-x="1134" 
d="M731 1141h-162l160 336h197zM748 1010q159 0 223.5 -100.5t36.5 -309.5l-134 -1006h-161l131 994q18 143 -15 207.5t-118 64.5q-51 0 -110.5 -37t-112 -98t-92 -150t-50.5 -184l-49 -391h-162l88 719q10 88 0.5 119.5t-45.5 31.5q-27 0 -51 -8l-6 125q56 23 110 23
q166 0 154 -226v-14h2q69 114 164 177t197 63z" />
    <glyph glyph-name="iotatonos" unicode="&#x3af;" horiz-adv-x="575" 
d="M412 1477h196l-194 -336h-162zM332 -12q-66 0 -109.5 21t-62 58.5t-24.5 88.5t3 110l92 731h160l-86 -704q-11 -82 9 -120t81 -38q31 0 82 19l27 -129q-92 -37 -172 -37z" />
    <glyph glyph-name="upsilondieresistonos" unicode="&#x3b0;" horiz-adv-x="1067" 
d="M684 1477h158l-154 -336h-129zM377 1182q-50 0 -82.5 32.5t-32.5 81.5q0 51 34 85t85 34q48 0 80.5 -33t32.5 -82q0 -51 -33 -84.5t-84 -33.5zM961 1182q-49 0 -81 32t-32 82q0 51 34 85t85 34q49 0 81.5 -32.5t32.5 -82.5q0 -51 -34 -84.5t-86 -33.5zM457 -12
q-156 0 -241 95t-77 251q6 106 39 263t35 196q3 43 -11.5 58t-41.5 15q-25 0 -43 -6l-4 125q70 25 120 25q79 0 114 -41t32 -138q-2 -61 -36 -219t-38 -258q-5 -100 37 -158.5t129 -58.5q109 0 191 92t121.5 235t39.5 312q0 115 -16 211l151 29q29 -128 29 -254
q0 -156 -33 -293.5t-96.5 -246t-166.5 -171.5t-234 -63z" />
    <glyph glyph-name="alpha" unicode="&#x3b1;" horiz-adv-x="1171" 
d="M993 135q31 0 76 10l29 -116q-69 -41 -160 -41q-90 -2 -132.5 61t-43.5 209h-2q-145 -270 -363 -270q-139 0 -228 111.5t-89 297.5q0 158 59 298.5t166.5 227.5t237.5 87q133 0 203.5 -80.5t99.5 -227.5h2l119 314l147 -64l-211 -479l6 -168q3 -98 18.5 -134t65.5 -36z
M426 137q100 0 185 96t139 259q-3 178 -54 271t-143 93t-164 -69t-107.5 -169t-35.5 -206q0 -128 47 -201.5t133 -73.5z" />
    <glyph glyph-name="beta" unicode="&#x3b2;" horiz-adv-x="1112" 
d="M825 805q86 -42 136.5 -132.5t50.5 -209.5q0 -203 -130 -339t-333 -136q-206 0 -317 131t-111 370q0 200 46.5 386t130 330t208.5 230.5t272 86.5q150 0 232 -83.5t82 -211.5q0 -72 -25 -141t-65 -121.5t-85.5 -92.5t-91.5 -65v-2zM768 1374q-147 0 -276 -171.5
t-183 -465.5q277 58 444.5 183t170.5 290q2 73 -37 118.5t-119 45.5zM553 137q127 0 211 97.5t84 236.5q0 85 -41 150.5t-111 93.5q-156 -75 -405 -117q-6 -59 -6 -96q0 -169 69 -267t199 -98z" />
    <glyph glyph-name="gamma" unicode="&#x3b3;" horiz-adv-x="1015" 
d="M303 -406q23 200 24 352t-24 361q-26 224 -49 341.5t-51.5 169.5t-71.5 52q-13 0 -49 -8l-4 125q58 23 104 23q102 0 152.5 -92.5t81.5 -301.5q40 -224 55 -407h4q119 184 206 372.5t138 415.5h170q-62 -284 -184.5 -525.5t-310.5 -491.5q2 -145 -19 -386h-172z" />
    <glyph glyph-name="delta" unicode="&#x3b4;" horiz-adv-x="1103" 
d="M735 1001q144 -71 214.5 -172.5t70.5 -253.5q0 -119 -37 -226t-102.5 -187t-162.5 -127t-212 -47q-199 0 -310.5 113.5t-111.5 295.5t95 335t255 237q-141 83 -141 248q0 131 107.5 218t277.5 87q235 0 383 -119l-88 -131q-134 103 -301 100q-90 0 -153.5 -40t-63.5 -115
q0 -98 141 -156q82 -33 139 -60zM510 137q101 0 181 58.5t121.5 153t41.5 204.5q0 113 -54.5 190.5t-162.5 128.5q-43 24 -64 33q-145 -66 -236.5 -203t-88.5 -294q3 -127 76 -199t186 -72z" />
    <glyph glyph-name="epsilon" unicode="&#x3b5;" horiz-adv-x="921" 
d="M403 -12q-161 0 -248 64.5t-89 178.5q-2 94 52 169.5t152 115.5v4q-61 30 -97 83.5t-36 119.5q0 124 112 205.5t273 81.5q222 0 371 -115l-74 -123q-114 85 -276 90q-107 2 -174.5 -42t-67.5 -118q0 -54 43.5 -91.5t130.5 -37.5l156 -2l-13 -125h-176q-88 0 -150.5 -52.5
t-62.5 -123.5q0 -64 51.5 -99.5t147.5 -35.5q99 0 177 25t171 88l60 -127q-112 -74 -210 -103.5t-223 -29.5z" />
    <glyph glyph-name="zeta" unicode="&#x3b6;" horiz-adv-x="841" 
d="M451 -354q71 80 107 136t36 107q0 41 -33 64.5t-135 66.5q-49 21 -76 33t-69 34.5t-65.5 41t-52.5 48t-43.5 60t-25 72.5t-10.5 90q0 408 651 965l-2 2h-487l14 141h709l-13 -125q-138 -109 -260 -229t-225 -248.5t-163 -257.5t-60 -235q0 -44 12.5 -78.5t33 -58t56 -46
t71.5 -39t90 -39.5q3 -1 5 -2t5 -2t5 -2q129 -56 180.5 -108t51.5 -129q0 -143 -176 -346z" />
    <glyph glyph-name="eta" unicode="&#x3b7;" horiz-adv-x="1134" 
d="M748 1010q159 0 223.5 -100.5t36.5 -309.5l-134 -1006h-161l131 994q18 143 -15 207.5t-118 64.5q-51 0 -110.5 -37t-112 -98t-92 -150t-50.5 -184l-49 -391h-162l88 719q10 88 0.5 119.5t-45.5 31.5q-27 0 -51 -8l-6 125q56 23 110 23q166 0 154 -226v-14h2
q69 114 164 177t197 63z" />
    <glyph glyph-name="theta" unicode="&#x3b8;" horiz-adv-x="1118" 
d="M672 1522q391 0 391 -541q0 -125 -14.5 -244.5t-43.5 -231.5t-75.5 -205.5t-107.5 -163.5t-143.5 -109t-178.5 -39q-66 0 -122 17t-105 57t-83 101t-53.5 153.5t-19.5 209.5q0 122 15.5 241.5t45.5 231t77 206.5t107 166t139.5 111t170.5 40zM668 1372q-85 0 -159 -74
t-123.5 -192.5t-76.5 -267.5h582q6 71 6 139q0 395 -229 395zM504 137q96 0 173.5 78.5t125.5 201.5t74 281h-586q-8 -71 -8 -159q0 -195 57 -298.5t164 -103.5z" />
    <glyph glyph-name="iota" unicode="&#x3b9;" horiz-adv-x="575" 
d="M332 -12q-66 0 -109.5 21t-62 58.5t-24.5 88.5t3 110l92 731h160l-86 -704q-11 -82 9 -120t81 -38q31 0 82 19l27 -129q-92 -37 -172 -37z" />
    <glyph glyph-name="kappa" unicode="&#x3ba;" horiz-adv-x="1091" 
d="M901 135q22 0 88 17l27 -121q-75 -43 -168 -43q-102 0 -153.5 63t-67.5 180q-18 129 -27 279q-206 -217 -334 -363l-18 -147h-156l125 997h162l-64 -518q-4 -28 -18 -106h2q273 350 631 665l117 -106q-159 -137 -320 -295q21 -218 43 -326q19 -86 49.5 -131t81.5 -45z
" />
    <glyph glyph-name="lambda" unicode="&#x3bb;" horiz-adv-x="1003" 
d="M528 981l-49 229q-18 82 -53.5 124t-95.5 42q-36 0 -97 -14l-10 133q89 27 152 27q111 0 173 -73.5t99 -227.5q115 -479 246 -1221h-176q-65 418 -133 762h-4l-398 -762h-186z" />
    <glyph glyph-name="uni03BC" unicode="&#x3bc;" horiz-adv-x="1124" 
d="M1055 25q-61 -37 -150 -37t-130 54t-38 144q-53 -95 -130.5 -146.5t-170.5 -51.5q-136 0 -182 108l-4 -2q4 -124 -10 -219l-37 -281h-160l172 1403h162l-74 -596q-17 -137 28 -200.5t122 -63.5q112 0 203.5 96t113.5 273l61 491h162l-90 -718q-10 -79 2.5 -111.5
t65.5 -32.5q25 0 55 6z" />
    <glyph glyph-name="nu" unicode="&#x3bd;" horiz-adv-x="1024" 
d="M111 997h174l159 -839h2q143 178 234 382t145 457h172q-130 -617 -493 -997h-187z" />
    <glyph glyph-name="xi" unicode="&#x3be;" horiz-adv-x="892" 
d="M469 -352q143 158 143 237q0 45 -38.5 75t-149.5 77q-79 32 -135 64t-106 76.5t-75.5 103t-25.5 131.5q0 145 81 244.5t216 142.5v6q-119 68 -119 203q0 246 307 356v2h-301l17 141h696l-18 -137q-121 -17 -217.5 -46.5t-168.5 -71.5t-110.5 -99.5t-38.5 -126.5
q0 -170 266 -170h121l-16 -141h-162q-83 0 -152.5 -17.5t-122.5 -51.5t-82.5 -88.5t-29.5 -125.5q0 -90 60 -146.5t194 -115.5q67 -30 104 -48.5t75.5 -43t56 -48t29 -55t11.5 -71.5q0 -143 -180 -342z" />
    <glyph glyph-name="omicron" unicode="&#x3bf;" horiz-adv-x="1091" 
d="M489 -12q-185 0 -295 109t-110 304q0 122 35 231.5t99.5 194t165 134t222.5 49.5q182 0 292 -108t110 -298q0 -174 -58.5 -311.5t-178 -221t-282.5 -83.5zM496 137q155 0 251.5 128.5t96.5 324.5q0 137 -71.5 202.5t-176.5 65.5q-100 0 -180.5 -61.5t-124 -161
t-43.5 -215.5q0 -128 68 -205.5t180 -77.5z" />
    <glyph glyph-name="pi" unicode="&#x3c0;" horiz-adv-x="1157" 
d="M883 283q-10 -81 3 -114.5t66 -33.5q12 0 62 8l26 -118q-64 -37 -143 -37q-104 0 -149.5 69.5t-28.5 204.5l72 594h-369l-105 -856h-161l104 856h-172l18 125q118 16 201 16h867l-25 -141h-197z" />
    <glyph glyph-name="rho" unicode="&#x3c1;" horiz-adv-x="1103" 
d="M133 502q31 255 162.5 381.5t327.5 126.5q188 0 294.5 -112.5t106.5 -295.5q0 -269 -140.5 -441.5t-346.5 -172.5q-94 0 -169.5 37t-113.5 96h-6l-64 -527h-161zM520 137q143 0 241.5 129.5t98.5 321.5q0 120 -69 196t-175 76q-126 0 -212 -91.5t-109 -270.5l-21 -179
q27 -92 96 -137t150 -45z" />
    <glyph glyph-name="uni03C2" unicode="&#x3c2;" horiz-adv-x="929" 
d="M451 -354q86 104 111 149q28 51 28 90q0 42 -35 69.5t-135 68.5q-35 14 -55.5 23t-53.5 25t-52.5 28.5t-46.5 32.5t-43 39.5t-34 46.5t-28 56.5t-16.5 66.5t-6.5 79q0 155 62.5 289t181 217.5t268.5 83.5q100 0 191 -42.5t143 -121.5l-129 -96q-36 55 -92.5 81.5
t-114.5 26.5q-148 0 -247 -126t-99 -308q0 -40 6.5 -71t24 -56t34 -42t50.5 -35.5t57 -29.5t71 -31q22 -9 33 -14q128 -57 180 -109t52 -130q0 -76 -46 -156t-132 -188z" />
    <glyph glyph-name="sigma" unicode="&#x3c3;" horiz-adv-x="1120" 
d="M475 -12q-179 0 -285 111.5t-106 308.5q0 119 34 225t96.5 187.5t160 129t217.5 47.5h526l-18 -141h-221l-2 -4q116 -107 116 -285q0 -113 -36.5 -217.5t-101.5 -185t-164 -128.5t-216 -48zM481 137q150 0 248 125t98 318q0 104 -39.5 174.5t-111.5 101.5h-82
q-157 0 -251.5 -124.5t-94.5 -315.5q0 -123 63.5 -201t169.5 -78z" />
    <glyph glyph-name="tau" unicode="&#x3c4;" horiz-adv-x="864" 
d="M463 -12q-231 0 -195 303l70 565h-264l16 141h774l-18 -141h-344l-68 -557q-11 -81 8.5 -121.5t73.5 -40.5q78 0 160 53l26 -133q-107 -69 -239 -69z" />
    <glyph glyph-name="upsilon" unicode="&#x3c5;" horiz-adv-x="1067" 
d="M457 -12q-156 0 -241 95t-77 251q6 106 39 263t35 196q3 43 -11.5 58t-41.5 15q-25 0 -43 -6l-4 125q70 25 120 25q79 0 114 -41t32 -138q-2 -61 -36 -219t-38 -258q-5 -100 37 -158.5t129 -58.5q109 0 191 92t121.5 235t39.5 312q0 115 -16 211l151 29q29 -128 29 -254
q0 -156 -33 -293.5t-96.5 -246t-166.5 -171.5t-234 -63z" />
    <glyph glyph-name="phi" unicode="&#x3c6;" horiz-adv-x="1304" 
d="M915 1008q62 -2 118.5 -27t101.5 -72.5t71 -125t25 -175.5q-1 -140 -47 -256t-124 -193t-178.5 -121.5t-213.5 -49.5l-47 -394h-162l49 394q-181 5 -302.5 123t-121.5 321q0 343 264 594l131 -49q-231 -249 -231 -524q0 -145 76 -229.5t202 -86.5l64 518
q12 95 43.5 165.5t76.5 110.5t96.5 59t108.5 18zM688 137q161 11 270 144t109 333q0 113 -44.5 178.5t-115.5 63.5q-56 0 -100.5 -49.5t-58.5 -161.5z" />
    <glyph glyph-name="chi" unicode="&#x3c7;" horiz-adv-x="974" 
d="M760 -418q-90 0 -133.5 52.5t-83.5 191.5l-99 330h-4l-350 -562h-182l477 740l-135 411q-22 71 -47 97t-58 26q-9 0 -45 -8l-6 125q66 25 99 25q90 0 134.5 -53t82.5 -191l75 -264h4l312 495h184l-440 -671l157 -480q25 -72 49 -97t56 -25q13 0 45 8l6 -125
q-62 -25 -98 -25z" />
    <glyph glyph-name="psi" unicode="&#x3c8;" horiz-adv-x="1343" 
d="M1266 748q-1 -118 -20.5 -225.5t-63 -204.5t-107.5 -168.5t-159 -115t-211 -46.5l-48 -394h-161l47 394h-13q-187 0 -290 104.5t-97 274.5q4 98 36 242t34 184q3 43 -11.5 58t-41.5 15q-25 0 -43 -6l-4 125q70 25 131 25q69 0 103.5 -41.5t31.5 -137.5q-2 -62 -34.5 -209
t-35.5 -237q-5 -116 57 -182t183 -66h14l142 1172l163 10l-143 -1182q97 5 171 59.5t117.5 144.5t65 198.5t21.5 230.5q0 113 -17 221l152 27q31 -148 31 -270z" />
    <glyph glyph-name="omega" unicode="&#x3c9;" horiz-adv-x="1411" 
d="M371 -12q-131 0 -211 99.5t-80 283.5q0 181 67 352t189 301l141 -43q-112 -129 -171.5 -292t-59.5 -306q0 -119 40 -182.5t111 -63.5q87 0 146.5 99t81.5 278l30 231h160l-37 -288q-18 -150 15 -235t116 -85q80 0 138.5 67t85 165.5t26.5 210.5q0 115 -29 223t-69 182
l145 35q119 -207 119 -453q0 -151 -48 -281.5t-143.5 -214t-218.5 -83.5q-206 0 -249 196h-7q-96 -196 -288 -196z" />
    <glyph glyph-name="iotadieresis" unicode="&#x3ca;" horiz-adv-x="575" 
d="M125 1182q-50 0 -82.5 32.5t-32.5 81.5q0 51 34.5 85t86.5 34q48 0 80.5 -33t32.5 -82q0 -51 -34 -84.5t-85 -33.5zM563 1182q-49 0 -81.5 32t-32.5 82q0 51 34.5 85t85.5 34q49 0 81 -32.5t32 -82.5q0 -51 -33.5 -84.5t-85.5 -33.5zM332 -12q-66 0 -109.5 21t-62 58.5
t-24.5 88.5t3 110l92 731h160l-86 -704q-11 -82 9 -120t81 -38q31 0 82 19l27 -129q-92 -37 -172 -37z" />
    <glyph glyph-name="upsilondieresis" unicode="&#x3cb;" horiz-adv-x="1067" 
d="M420 1182q-50 0 -82.5 32.5t-32.5 81.5q0 51 34.5 85t86.5 34q48 0 80.5 -33t32.5 -82q0 -51 -34 -84.5t-85 -33.5zM858 1182q-50 0 -82.5 32.5t-32.5 81.5q0 51 35 85t86 34q49 0 81 -32.5t32 -82.5q0 -51 -33.5 -84.5t-85.5 -33.5zM457 -12q-156 0 -241 95t-77 251
q6 106 39 263t35 196q3 43 -11.5 58t-41.5 15q-25 0 -43 -6l-4 125q70 25 120 25q79 0 114 -41t32 -138q-2 -61 -36 -219t-38 -258q-5 -100 37 -158.5t129 -58.5q109 0 191 92t121.5 235t39.5 312q0 115 -16 211l151 29q29 -128 29 -254q0 -156 -33 -293.5t-96.5 -246
t-166.5 -171.5t-234 -63z" />
    <glyph glyph-name="omicrontonos" unicode="&#x3cc;" horiz-adv-x="1091" 
d="M713 1477h196l-194 -336h-162zM489 -12q-185 0 -295 109t-110 304q0 122 35 231.5t99.5 194t165 134t222.5 49.5q182 0 292 -108t110 -298q0 -174 -58.5 -311.5t-178 -221t-282.5 -83.5zM496 137q155 0 251.5 128.5t96.5 324.5q0 137 -71.5 202.5t-176.5 65.5
q-100 0 -180.5 -61.5t-124 -161t-43.5 -215.5q0 -128 68 -205.5t180 -77.5z" />
    <glyph glyph-name="upsilontonos" unicode="&#x3cd;" horiz-adv-x="1067" 
d="M707 1477h196l-194 -336h-162zM457 -12q-156 0 -241 95t-77 251q6 106 39 263t35 196q3 43 -11.5 58t-41.5 15q-25 0 -43 -6l-4 125q70 25 120 25q79 0 114 -41t32 -138q-2 -61 -36 -219t-38 -258q-5 -100 37 -158.5t129 -58.5q109 0 191 92t121.5 235t39.5 312
q0 115 -16 211l151 29q29 -128 29 -254q0 -156 -33 -293.5t-96.5 -246t-166.5 -171.5t-234 -63z" />
    <glyph glyph-name="omegatonos" unicode="&#x3ce;" horiz-adv-x="1411" 
d="M868 1477h197l-195 -336h-161zM371 -12q-131 0 -211 99.5t-80 283.5q0 181 67 352t189 301l141 -43q-112 -129 -171.5 -292t-59.5 -306q0 -119 40 -182.5t111 -63.5q87 0 146.5 99t81.5 278l30 231h160l-37 -288q-18 -150 15 -235t116 -85q80 0 138.5 67t85 165.5
t26.5 210.5q0 115 -29 223t-69 182l145 35q119 -207 119 -453q0 -151 -48 -281.5t-143.5 -214t-218.5 -83.5q-206 0 -249 196h-7q-96 -196 -288 -196z" />
    <glyph glyph-name="uni03D7" unicode="&#x3d7;" horiz-adv-x="1224" 
d="M883 135q64 -29 215 -29l-13 -88q-233 -248 -409 -354t-385 -106q-236 0 -389 137l80 100q133 -100 297 -100q142 0 280.5 69.5t294.5 219.5v4q-99 9 -158 77.5t-84 202.5l-41 213q-136 -146 -299 -338l-18 -143h-156l123 997h162l-64 -518q-6 -50 -16 -100l4 -2
q260 324 611 653l108 -98q-159 -145 -336 -326l74 -291q33 -142 119 -180z" />
    <glyph glyph-name="uni1E0C" unicode="&#x1e0c;" horiz-adv-x="1394" 
d="M307 1454h410q286 0 438 -158t152 -438q0 -253 -94 -447.5t-270 -302.5t-408 -108h-406zM551 158q171 0 302 90.5t201 248.5t70 359q0 205 -108.5 322.5t-310.5 117.5h-242l-139 -1138h227zM543 -195q49 0 81.5 -32.5t32.5 -81.5q0 -51 -33.5 -85t-84.5 -34q-49 0 -82 33
t-33 82q0 51 34 84.5t85 33.5z" />
    <glyph glyph-name="uni1E0D" unicode="&#x1e0d;" horiz-adv-x="1150" 
d="M430 -12q-165 0 -253.5 112.5t-88.5 288.5q0 95 22.5 186.5t66 170t103.5 137.5t139.5 93t168.5 34q83 0 159.5 -27t129.5 -82l4 2l73 604h164l-186 -1507h-162l29 231l-6 2q-68 -117 -161.5 -181t-201.5 -64zM459 133q137 0 249 147.5t140 366.5l14 103
q-43 57 -116 82.5t-148 25.5q-102 0 -183 -69t-122 -176t-41 -228q0 -115 54 -183.5t153 -68.5zM473 -195q50 0 82.5 -32.5t32.5 -81.5q0 -51 -34 -85t-85 -34q-49 0 -82 33t-33 82q0 51 34 84.5t85 33.5z" />
    <glyph glyph-name="uni1E0E" unicode="&#x1e0e;" horiz-adv-x="1394" 
d="M307 1454h410q286 0 438 -158t152 -438q0 -253 -94 -447.5t-270 -302.5t-408 -108h-406zM551 158q171 0 302 90.5t201 248.5t70 359q0 205 -108.5 322.5t-310.5 117.5h-242l-139 -1138h227zM283 -256h536l-16 -141h-537z" />
    <glyph glyph-name="uni1E0F" unicode="&#x1e0f;" horiz-adv-x="1150" 
d="M430 -12q-165 0 -253.5 112.5t-88.5 288.5q0 95 22.5 186.5t66 170t103.5 137.5t139.5 93t168.5 34q83 0 159.5 -27t129.5 -82l4 2l73 604h164l-186 -1507h-162l29 231l-6 2q-68 -117 -161.5 -181t-201.5 -64zM459 133q137 0 249 147.5t140 366.5l14 103
q-43 57 -116 82.5t-148 25.5q-102 0 -183 -69t-122 -176t-41 -228q0 -115 54 -183.5t153 -68.5zM213 -256h537l-17 -141h-536z" />
    <glyph glyph-name="uni1E20" unicode="&#x1e20;" horiz-adv-x="1445" 
d="M674 1794h536l-16 -137h-537zM725 -12q-264 0 -423 159.5t-159 448.5q0 174 55 333.5t151.5 278.5t235.5 189.5t298 70.5q311 0 485 -241l-143 -109q-131 182 -348 182q-157 0 -284.5 -96.5t-197 -256t-69.5 -347.5q0 -212 106.5 -332.5t300.5 -120.5q195 0 354 123
l41 320h-368l22 158h541l-68 -578q-101 -87 -242 -134.5t-288 -47.5z" />
    <glyph glyph-name="uni1E21" unicode="&#x1e21;" horiz-adv-x="1134" 
d="M424 1362h537l-17 -141h-536zM389 -418q-180 0 -330 90l54 144q139 -84 284 -84q80 0 138 16.5t110 59.5t85.5 126t49.5 207l17 125l-4 2q-71 -117 -165 -183.5t-198 -66.5q-165 0 -253.5 113t-88.5 289q0 87 22.5 173t66 160.5t103 132t139.5 91t169 33.5
q83 0 158.5 -27.5t125.5 -79.5l2 2l13 92h162l-107 -868q-16 -130 -53 -227.5t-86.5 -158t-117.5 -97t-138.5 -50.5t-157.5 -14zM459 166q128 0 240.5 134.5t138.5 322.5l16 127q-46 54 -118.5 81t-137.5 27q-103 0 -184 -67.5t-121.5 -167t-40.5 -205.5q0 -115 54.5 -183.5
t152.5 -68.5z" />
    <glyph glyph-name="uni1E24" unicode="&#x1e24;" horiz-adv-x="1398" 
d="M307 1454h174l-84 -684h670l84 684h174l-176 -1454h-176l76 612h-670l-76 -612h-174zM608 -195q50 0 82.5 -32.5t32.5 -81.5q0 -51 -34 -85t-85 -34q-50 0 -82.5 33t-32.5 82q0 51 34 84.5t85 33.5z" />
    <glyph glyph-name="uni1E25" unicode="&#x1e25;" horiz-adv-x="1122" 
d="M281 1507h161l-90 -739h4q74 115 179.5 178.5t216.5 63.5q152 0 212.5 -100.5t32.5 -309.5l-79 -600h-164l80 588q20 143 -13.5 207.5t-120.5 64.5q-78 0 -163 -61.5t-150 -172t-80 -237.5l-49 -389h-162zM477 -195q50 0 82.5 -32.5t32.5 -81.5q0 -51 -34 -85t-85 -34
q-49 0 -82 33t-33 82q0 51 34 84.5t85 33.5z" />
    <glyph glyph-name="uni1E2A" unicode="&#x1e2a;" horiz-adv-x="1398" 
d="M307 1454h174l-84 -684h670l84 684h174l-176 -1454h-176l76 612h-670l-76 -612h-174zM598 -449q-126 0 -188 75t-52 214l129 -2q-6 -72 21.5 -116t93.5 -44q68 0 115 46.5t61 115.5l129 -2q-25 -134 -108 -210.5t-201 -76.5z" />
    <glyph glyph-name="uni1E2B" unicode="&#x1e2b;" horiz-adv-x="1122" 
d="M281 1507h161l-90 -739h4q74 115 179.5 178.5t216.5 63.5q152 0 212.5 -100.5t32.5 -309.5l-79 -600h-164l80 588q20 143 -13.5 207.5t-120.5 64.5q-78 0 -163 -61.5t-150 -172t-80 -237.5l-49 -389h-162zM467 -449q-126 0 -188 75t-52 214l129 -2q-6 -72 21.5 -116
t93.5 -44q68 0 115 46.5t61 115.5l129 -2q-25 -134 -108 -210.5t-201 -76.5z" />
    <glyph glyph-name="uni1E30" unicode="&#x1e30;" horiz-adv-x="1236" 
d="M776 1602h-166l244 264h188zM725 801l399 -801h-200l-328 672l-244 -279l-49 -393h-174l178 1454h174l-98 -792l6 -3l684 795h219z" />
    <glyph glyph-name="uni1E31" unicode="&#x1e31;" horiz-adv-x="1019" 
d="M860 -10q-24 -3 -47 0q-43 4 -73.5 20.5t-58.5 59t-42.5 72.5t-45.5 105l-9 21l-49 113q-122 -96 -252 -158l-25 -223h-162l185 1507h161l-135 -1104l4 -2q187 110 317 269.5t181 326.5h166q-67 -277 -313 -512l71 -170q45 -110 80 -147.5t94 -50.5zM764 1430l184 2
l-262 -291h-170z" />
    <glyph glyph-name="uni1E36" unicode="&#x1e36;" horiz-adv-x="1077" 
d="M307 1454h174l-157 -1296h641l-19 -158h-817zM504 -195q50 0 82 -32.5t32 -81.5q0 -51 -33.5 -85t-84.5 -34q-50 0 -82.5 33t-32.5 82q0 51 34 84.5t85 33.5z" />
    <glyph glyph-name="uni1E37" unicode="&#x1e37;" horiz-adv-x="483" 
d="M291 1507h162l-185 -1507h-162zM158 -195q50 0 82 -32.5t32 -81.5q0 -51 -33.5 -85t-84.5 -34q-50 0 -82.5 33t-32.5 82q0 51 34 84.5t85 33.5z" />
    <glyph glyph-name="uni1E38" unicode="&#x1e38;" horiz-adv-x="1077" 
d="M467 1794h537l-17 -137h-536zM307 1454h174l-157 -1296h641l-19 -158h-817zM504 -195q50 0 82 -32.5t32 -81.5q0 -51 -33.5 -85t-84.5 -34q-50 0 -82.5 33t-32.5 82q0 51 34 84.5t85 33.5z" />
    <glyph glyph-name="uni1E39" unicode="&#x1e39;" horiz-adv-x="483" 
d="M145 1821h537l-16 -138h-537zM291 1507h162l-185 -1507h-162zM145 -195q50 0 82.5 -32.5t32.5 -81.5q0 -51 -34 -85t-85 -34q-49 0 -81.5 32.5t-32.5 82.5q0 51 33.5 84.5t84.5 33.5z" />
    <glyph glyph-name="uni1E3A" unicode="&#x1e3a;" horiz-adv-x="1077" 
d="M307 1454h174l-157 -1296h641l-19 -158h-817zM244 -256h536l-16 -141h-537z" />
    <glyph glyph-name="uni1E3B" unicode="&#x1e3b;" horiz-adv-x="483" 
d="M291 1507h162l-185 -1507h-162zM-102 -256h536l-16 -141h-537z" />
    <glyph glyph-name="uni1E42" unicode="&#x1e42;" horiz-adv-x="1679" 
d="M307 1454h176l359 -940h4l586 940h174l-179 -1454h-174l131 1087l-6 3l-501 -797h-121l-312 821l-4 -2l-137 -1112h-174zM737 -195q50 0 82.5 -32.5t32.5 -81.5q0 -51 -34 -85t-85 -34q-49 0 -82 33t-33 82q0 51 34 84.5t85 33.5z" />
    <glyph glyph-name="uni1E43" unicode="&#x1e43;" horiz-adv-x="1689" 
d="M221 997h162l-27 -217l4 -2q73 110 167.5 171t189.5 61q213 0 239 -228h7q71 108 166 168t200 60q148 0 208 -101t32 -309l-80 -600h-164l80 588q35 272 -121 272q-47 0 -103.5 -34t-108.5 -92.5t-92.5 -147t-53.5 -187.5l-54 -399h-161l77 588q38 272 -118 272
q-49 0 -107 -37t-110 -98t-92 -149.5t-52 -182.5l-49 -393h-164zM754 -195q50 0 82 -32.5t32 -81.5q0 -51 -33.5 -85t-84.5 -34q-50 0 -82.5 33t-32.5 82q0 51 34 84.5t85 33.5z" />
    <glyph glyph-name="uni1E44" unicode="&#x1e44;" horiz-adv-x="1452" 
d="M897 1661q-49 0 -82 32.5t-33 82.5q0 51 34 84.5t85 33.5q50 0 82.5 -32.5t32.5 -81.5q0 -51 -34 -85t-85 -34zM307 1454h174l576 -1157l6 2l141 1155h176l-180 -1454h-176l-575 1147h-5l-141 -1147h-174z" />
    <glyph glyph-name="uni1E45" unicode="&#x1e45;" horiz-adv-x="1122" 
d="M692 1182q-50 0 -82 32t-32 82q0 51 33.5 85t84.5 34q50 0 82.5 -32.5t32.5 -82.5q0 -51 -34 -84.5t-85 -33.5zM219 997h162l-27 -225l4 -2q76 114 180 177t214 63q152 0 212.5 -100.5t32.5 -309.5l-79 -600h-162l78 588q20 143 -13.5 207.5t-120.5 64.5
q-122 0 -245.5 -138t-147.5 -329l-49 -393h-162z" />
    <glyph glyph-name="uni1E46" unicode="&#x1e46;" horiz-adv-x="1452" 
d="M307 1454h174l576 -1157l6 2l141 1155h176l-180 -1454h-176l-575 1147h-5l-141 -1147h-174zM641 -195q50 0 82.5 -32.5t32.5 -81.5q0 -51 -34 -85t-85 -34q-49 0 -82 33t-33 82q0 51 34 84.5t85 33.5z" />
    <glyph glyph-name="uni1E47" unicode="&#x1e47;" horiz-adv-x="1122" 
d="M219 997h162l-27 -225l4 -2q76 114 180 177t214 63q152 0 212.5 -100.5t32.5 -309.5l-79 -600h-162l78 588q20 143 -13.5 207.5t-120.5 64.5q-122 0 -245.5 -138t-147.5 -329l-49 -393h-162zM479 -195q50 0 82.5 -32.5t32.5 -81.5q0 -51 -34 -85t-85 -34q-49 0 -82 33
t-33 82q0 51 34 84.5t85 33.5z" />
    <glyph glyph-name="uni1E48" unicode="&#x1e48;" horiz-adv-x="1452" 
d="M307 1454h174l576 -1157l6 2l141 1155h176l-180 -1454h-176l-575 1147h-5l-141 -1147h-174zM381 -256h537l-17 -141h-536z" />
    <glyph glyph-name="uni1E49" unicode="&#x1e49;" horiz-adv-x="1122" 
d="M219 997h162l-27 -225l4 -2q76 114 180 177t214 63q152 0 212.5 -100.5t32.5 -309.5l-79 -600h-162l78 588q20 143 -13.5 207.5t-120.5 64.5q-122 0 -245.5 -138t-147.5 -329l-49 -393h-162zM219 -256h537l-17 -141h-536z" />
    <glyph glyph-name="uni1E5A" unicode="&#x1e5a;" horiz-adv-x="1247" 
d="M307 1454h475q383 0 383 -373q0 -194 -94.5 -325.5t-271.5 -173.5l280 -582h-196l-260 557h-252l-68 -557h-174zM645 717q158 0 249 97.5t91 266.5q0 103 -66 159t-174 56h-282l-72 -579h254zM537 -195q49 0 81.5 -32.5t32.5 -81.5q0 -51 -34 -85t-85 -34
q-49 0 -81.5 32.5t-32.5 82.5q0 51 34 84.5t85 33.5z" />
    <glyph glyph-name="uni1E5B" unicode="&#x1e5b;" horiz-adv-x="669" 
d="M221 997h162l-29 -223h4q134 211 338 236l-20 -191q-148 7 -245.5 -110.5t-121.5 -313.5l-49 -395h-164zM152 -195q50 0 82 -32.5t32 -81.5q0 -51 -34 -85t-85 -34q-49 0 -81.5 32.5t-32.5 82.5q0 51 34 84.5t85 33.5z" />
    <glyph glyph-name="uni1E5C" unicode="&#x1e5c;" horiz-adv-x="1247" 
d="M512 1794h537l-17 -137h-536zM307 1454h475q383 0 383 -373q0 -194 -94.5 -325.5t-271.5 -173.5l280 -582h-196l-260 557h-252l-68 -557h-174zM645 717q158 0 249 97.5t91 266.5q0 103 -66 159t-174 56h-282l-72 -579h254zM537 -195q49 0 81.5 -32.5t32.5 -81.5
q0 -51 -34 -85t-85 -34q-49 0 -81.5 32.5t-32.5 82.5q0 51 34 84.5t85 33.5z" />
    <glyph glyph-name="uni1E5D" unicode="&#x1e5d;" horiz-adv-x="669" 
d="M256 1362h537l-17 -141h-536zM221 997h162l-29 -223h4q134 211 338 236l-20 -191q-148 7 -245.5 -110.5t-121.5 -313.5l-49 -395h-164zM152 -195q50 0 82 -32.5t32 -81.5q0 -51 -34 -85t-85 -34q-49 0 -81.5 32.5t-32.5 82.5q0 51 34 84.5t85 33.5z" />
    <glyph glyph-name="uni1E5E" unicode="&#x1e5e;" horiz-adv-x="1247" 
d="M307 1454h475q383 0 383 -373q0 -194 -94.5 -325.5t-271.5 -173.5l280 -582h-196l-260 557h-252l-68 -557h-174zM645 717q158 0 249 97.5t91 266.5q0 103 -66 159t-174 56h-282l-72 -579h254zM276 -256h537l-16 -141h-537z" />
    <glyph glyph-name="uni1E5F" unicode="&#x1e5f;" horiz-adv-x="669" 
d="M221 997h162l-29 -223h4q134 211 338 236l-20 -191q-148 7 -245.5 -110.5t-121.5 -313.5l-49 -395h-164zM-109 -256h537l-16 -141h-537z" />
    <glyph glyph-name="uni1E60" unicode="&#x1e60;" horiz-adv-x="1128" 
d="M702 1661q-49 0 -81.5 32.5t-32.5 82.5q0 51 34 84.5t85 33.5q49 0 81.5 -32t32.5 -82q0 -51 -34 -85t-85 -34zM532 -12q-147 0 -274.5 63t-200.5 176l131 119q55 -95 145.5 -145.5t190.5 -50.5q132 0 216.5 70.5t84.5 180.5q0 23 -7 43.5t-14.5 36.5t-27 34.5t-32 29.5
t-43 30.5t-45.5 28t-55 31l-56 31.5q-143 82 -189 115q-144 105 -164 238q-4 24 -4 50q0 179 129 289t326 110q119 0 227 -51t183 -143l-129 -113q-57 77 -135.5 112.5t-157.5 35.5q-115 0 -188.5 -62.5t-71.5 -156.5q0 -25 7.5 -48t16.5 -40.5t30.5 -38.5t36 -33t48 -33.5
t51 -32t60.5 -35.5q21 -12 63 -35t64 -35.5t58.5 -34.5t56 -38t47 -39.5t42 -46t29.5 -50t21 -59.5t6 -67q0 -138 -63.5 -238t-170 -149t-242.5 -49z" />
    <glyph glyph-name="uni1E61" unicode="&#x1e61;" horiz-adv-x="849" 
d="M526 1182q-50 0 -82 32t-32 82q0 51 33.5 85t84.5 34q50 0 82.5 -32.5t32.5 -82.5q0 -51 -34 -84.5t-85 -33.5zM379 -12q-108 0 -201.5 42t-150.5 117l108 109q103 -125 244 -125q88 0 144.5 37.5t56.5 103.5q0 37 -29 67.5t-56.5 45t-101.5 46.5q-5 3 -8 4t-7.5 3
t-8.5 4q-54 24 -94 48t-76 58t-55 78t-19 97q0 127 97 207t233 80q202 0 321 -136l-108 -110q-86 102 -217 102q-69 0 -114.5 -36.5t-45.5 -98.5q0 -50 45 -86.5t133 -77.5q121 -56 163 -85q112 -77 113 -191q0 -146 -101.5 -224.5t-264.5 -78.5z" />
    <glyph glyph-name="uni1E62" unicode="&#x1e62;" horiz-adv-x="1128" 
d="M532 -12q-147 0 -274.5 63t-200.5 176l131 119q55 -95 145.5 -145.5t190.5 -50.5q132 0 216.5 70.5t84.5 180.5q0 23 -7 43.5t-14.5 36.5t-27 34.5t-32 29.5t-43 30.5t-45.5 28t-55 31l-56 31.5q-143 82 -189 115q-144 105 -164 238q-4 24 -4 50q0 179 129 289t326 110
q119 0 227 -51t183 -143l-129 -113q-57 77 -135.5 112.5t-157.5 35.5q-115 0 -188.5 -62.5t-71.5 -156.5q0 -25 7.5 -48t16.5 -40.5t30.5 -38.5t36 -33t48 -33.5t51 -32t60.5 -35.5q21 -12 63 -35t64 -35.5t58.5 -34.5t56 -38t47 -39.5t42 -46t29.5 -50t21 -59.5t6 -67
q0 -138 -63.5 -238t-170 -149t-242.5 -49zM489 -195q50 0 82.5 -32.5t32.5 -81.5q0 -51 -34 -85t-85 -34q-49 0 -81.5 32.5t-32.5 82.5q0 51 33.5 84.5t84.5 33.5z" />
    <glyph glyph-name="uni1E63" unicode="&#x1e63;" horiz-adv-x="849" 
d="M379 -12q-108 0 -201.5 42t-150.5 117l108 109q103 -125 244 -125q88 0 144.5 37.5t56.5 103.5q0 37 -29 67.5t-56.5 45t-101.5 46.5q-5 3 -8 4t-7.5 3t-8.5 4q-54 24 -94 48t-76 58t-55 78t-19 97q0 127 97 207t233 80q202 0 321 -136l-108 -110q-86 102 -217 102
q-69 0 -114.5 -36.5t-45.5 -98.5q0 -50 45 -86.5t133 -77.5q121 -56 163 -85q112 -77 113 -191q0 -146 -101.5 -224.5t-264.5 -78.5zM330 -195q50 0 82 -32.5t32 -81.5q0 -51 -33.5 -85t-84.5 -34q-50 0 -82.5 33t-32.5 82q0 51 34 84.5t85 33.5z" />
    <glyph glyph-name="uni1E6C" unicode="&#x1e6c;" horiz-adv-x="1083" 
d="M551 1296h-389l18 158h957l-19 -158h-393l-158 -1296h-174zM446 -195q50 0 82.5 -32.5t32.5 -81.5q0 -51 -34 -85t-85 -34q-49 0 -81.5 32.5t-32.5 82.5q0 51 33.5 84.5t84.5 33.5z" />
    <glyph glyph-name="uni1E6D" unicode="&#x1e6d;" horiz-adv-x="686" 
d="M334 -12q-117 0 -165 75.5t-32 208.5l72 584h-111l15 141h112l43 328l164 31l-43 -359h281l-15 -141h-282l-70 -557q-19 -156 84 -156q76 0 164 60l22 -146q-107 -69 -239 -69zM291 -195q50 0 82.5 -32.5t32.5 -81.5q0 -51 -34 -85t-85 -34q-49 0 -82 33t-33 82
q0 51 34 84.5t85 33.5z" />
    <glyph glyph-name="uni1E6E" unicode="&#x1e6e;" horiz-adv-x="1083" 
d="M551 1296h-389l18 158h957l-19 -158h-393l-158 -1296h-174zM184 -256h537l-16 -141h-537z" />
    <glyph glyph-name="uni1E6F" unicode="&#x1e6f;" horiz-adv-x="686" 
d="M334 -12q-117 0 -165 75.5t-32 208.5l72 584h-111l15 141h112l43 328l164 31l-43 -359h281l-15 -141h-282l-70 -557q-19 -156 84 -156q76 0 164 60l22 -146q-107 -69 -239 -69zM31 -256h536l-16 -141h-537z" />
    <glyph glyph-name="Wgrave" unicode="&#x1e80;" horiz-adv-x="1910" 
d="M799 1864h182l184 -265h-166zM188 1454h183l176 -1165h6l420 1165h194l148 -1145h4l453 1145h188l-596 -1454h-176l-152 1169h-4l-430 -1169h-176z" />
    <glyph glyph-name="wgrave" unicode="&#x1e81;" horiz-adv-x="1591" 
d="M610 1432l185 -2l178 -289h-170zM373 -12q-147 0 -212 102.5t-36 315.5l78 591h162l-74 -581q-9 -82 -5 -136t25 -85.5t48.5 -44.5t66.5 -13t85 25.5t92.5 74.5t83.5 134.5t50 191.5l54 434h163l-73 -587q-19 -150 15 -211.5t110 -61.5q96 0 196.5 113t140.5 311
q43 206 7 436h166q41 -247 -11 -483q-30 -135 -86.5 -239t-127.5 -165t-147.5 -91.5t-154.5 -30.5q-119 0 -188.5 63.5t-77.5 173.5h-4q-54 -105 -157.5 -171t-188.5 -66z" />
    <glyph glyph-name="Wacute" unicode="&#x1e82;" horiz-adv-x="1910" 
d="M1253 1866h189l-266 -264h-166zM188 1454h183l176 -1165h6l420 1165h194l148 -1145h4l453 1145h188l-596 -1454h-176l-152 1169h-4l-430 -1169h-176z" />
    <glyph glyph-name="wacute" unicode="&#x1e83;" horiz-adv-x="1591" 
d="M1055 1430l184 2l-262 -291h-170zM373 -12q-147 0 -212 102.5t-36 315.5l78 591h162l-74 -581q-9 -82 -5 -136t25 -85.5t48.5 -44.5t66.5 -13t85 25.5t92.5 74.5t83.5 134.5t50 191.5l54 434h163l-73 -587q-19 -150 15 -211.5t110 -61.5q96 0 196.5 113t140.5 311
q43 206 7 436h166q41 -247 -11 -483q-30 -135 -86.5 -239t-127.5 -165t-147.5 -91.5t-154.5 -30.5q-119 0 -188.5 63.5t-77.5 173.5h-4q-54 -105 -157.5 -171t-188.5 -66z" />
    <glyph glyph-name="Wdieresis" unicode="&#x1e84;" horiz-adv-x="1910" 
d="M934 1624q-50 0 -82.5 33t-32.5 82q0 51 34.5 85t86.5 34q48 0 80.5 -33t32.5 -82q0 -51 -34 -85t-85 -34zM1284 1624q-51 0 -84 32.5t-33 82.5q0 51 35 85t86 34q48 0 80.5 -33t32.5 -82q0 -51 -33.5 -85t-83.5 -34zM188 1454h183l176 -1165h6l420 1165h194l148 -1145h4
l453 1145h188l-596 -1454h-176l-152 1169h-4l-430 -1169h-176z" />
    <glyph glyph-name="wdieresis" unicode="&#x1e85;" horiz-adv-x="1591" 
d="M733 1182q-50 0 -82.5 32.5t-32.5 81.5q0 51 34.5 85t86.5 34q48 0 80.5 -33t32.5 -82q0 -51 -34 -84.5t-85 -33.5zM1083 1182q-51 0 -83.5 32t-32.5 82q0 51 34.5 85t85.5 34q48 0 80.5 -33t32.5 -82q0 -51 -33.5 -84.5t-83.5 -33.5zM373 -12q-147 0 -212 102.5
t-36 315.5l78 591h162l-74 -581q-9 -82 -5 -136t25 -85.5t48.5 -44.5t66.5 -13t85 25.5t92.5 74.5t83.5 134.5t50 191.5l54 434h163l-73 -587q-19 -150 15 -211.5t110 -61.5q96 0 196.5 113t140.5 311q43 206 7 436h166q41 -247 -11 -483q-30 -135 -86.5 -239t-127.5 -165
t-147.5 -91.5t-154.5 -30.5q-119 0 -188.5 63.5t-77.5 173.5h-4q-54 -105 -157.5 -171t-188.5 -66z" />
    <glyph glyph-name="uni1E8E" unicode="&#x1e8e;" horiz-adv-x="1136" 
d="M721 1661q-49 0 -82 32.5t-33 82.5q0 51 34 84.5t85 33.5q50 0 82.5 -32.5t32.5 -81.5q0 -51 -34 -85t-85 -34zM498 649l-346 805h192l256 -635h6l414 635h203l-549 -805l-82 -649h-174z" />
    <glyph glyph-name="uni1E8F" unicode="&#x1e8f;" horiz-adv-x="1091" 
d="M643 1182q-50 0 -82.5 32.5t-32.5 81.5q0 51 34 85t85 34q49 0 82 -32.5t33 -82.5q0 -51 -34 -84.5t-85 -33.5zM1008 997l-105 -868q-16 -131 -53.5 -229t-86 -158t-114 -96.5t-130.5 -50t-142 -13.5q-177 0 -330 90l53 144q141 -84 279 -84q57 0 102 9.5t90 36.5
t77.5 72t57.5 118.5t37 172.5l11 82l-4 2q-65 -110 -160 -173.5t-207 -63.5q-158 0 -225.5 95.5t-38.5 305.5l82 608h161l-77 -594q-19 -148 18 -207t127 -59q115 0 230.5 132.5t136.5 310.5l51 417h160z" />
    <glyph glyph-name="uni1E92" unicode="&#x1e92;" horiz-adv-x="1179" 
d="M78 139l837 1151l-2 6h-659l18 158h887l-14 -139l-848 -1149l4 -8h705l-21 -158h-924zM522 -195q50 0 82.5 -32.5t32.5 -81.5q0 -51 -34 -85t-85 -34q-50 0 -82.5 33t-32.5 82q0 51 34 84.5t85 33.5z" />
    <glyph glyph-name="uni1E93" unicode="&#x1e93;" horiz-adv-x="913" 
d="M743 -53q-65 20 -138 31.5t-185 16t-176 5t-226 0.5l13 119l602 735v2h-481l16 141h704l-12 -116l-606 -736v-4q189 -4 312.5 -15.5t221.5 -43.5zM365 -195q49 0 81.5 -32.5t32.5 -81.5q0 -51 -34 -85t-85 -34q-49 0 -81.5 32.5t-32.5 82.5q0 51 34 84.5t85 33.5z" />
    <glyph glyph-name="uni1E97" unicode="&#x1e97;" horiz-adv-x="686" 
d="M264 1477q-50 0 -82 32.5t-32 81.5q0 51 34 85t86 34q48 0 80.5 -33t32.5 -82q0 -51 -34 -84.5t-85 -33.5zM614 1477q-51 0 -83.5 32t-32.5 82q0 51 34.5 85t85.5 34q48 0 80.5 -33t32.5 -82q0 -51 -33.5 -84.5t-83.5 -33.5zM334 -12q-117 0 -165 75.5t-32 208.5l72 584
h-111l15 141h112l43 328l164 31l-43 -359h281l-15 -141h-282l-70 -557q-19 -156 84 -156q76 0 164 60l22 -146q-107 -69 -239 -69z" />
    <glyph glyph-name="uni1E9E" unicode="&#x1e9e;" horiz-adv-x="1464" 
d="M1030 817q25 -15 70 -40.5t70.5 -40t63.5 -39t60 -43.5t48 -47t40 -55t23.5 -62t9.5 -74q0 -132 -62.5 -231t-163 -148t-222.5 -49q-123 0 -238.5 49.5t-189.5 136.5l96 154q53 -89 140.5 -135t182.5 -46q116 0 194.5 72t78.5 182q1 44 -16.5 80t-62 70t-72.5 50.5
t-96 51.5q-7 4 -11 6q-116 61 -185 105l322 502l-2 8q-178 31 -324 31q-178 0 -270.5 -72t-112.5 -236l-122 -997h-175l125 1008q56 460 555 460q104 0 266.5 -24t317.5 -62l-358 -553q12 -8 20 -12z" />
    <glyph glyph-name="uni1EA0" unicode="&#x1ea0;" horiz-adv-x="1282" 
d="M666 1454h184l317 -1454h-182l-74 356h-575l-160 -356h-182zM881 510l-150 725h-4l-324 -725h478zM551 -195q50 0 82.5 -32.5t32.5 -81.5q0 -51 -34 -85t-85 -34q-49 0 -82 33t-33 82q0 51 34 84.5t85 33.5z" />
    <glyph glyph-name="uni1EA1" unicode="&#x1ea1;" horiz-adv-x="1128" 
d="M428 -12q-165 0 -253.5 112.5t-88.5 288.5q0 121 36 233t100 198t159 138t205 52q84 0 158.5 -28t123.5 -79l4 2l13 90h162l-123 -995h-162l29 227l-7 2q-68 -115 -161 -178t-195 -63zM459 133q133 0 244 148t139 366l12 103q-46 54 -118.5 81t-139.5 27
q-77 0 -143.5 -40t-110 -106.5t-68 -151.5t-24.5 -175q0 -115 55 -183.5t154 -68.5zM473 -195q50 0 82.5 -32.5t32.5 -81.5q0 -51 -34 -85t-85 -34q-49 0 -82 33t-33 82q0 51 34 84.5t85 33.5z" />
    <glyph glyph-name="uni1EA2" unicode="&#x1ea2;" horiz-adv-x="1282" 
d="M709 1614q174 125 174 205q0 49 -68 49q-81 0 -172 -68l-25 90q107 90 246 90q65 0 106.5 -31.5t41.5 -93.5q0 -74 -58.5 -139t-126.5 -104zM666 1454h184l317 -1454h-182l-74 356h-575l-160 -356h-182zM881 510l-150 725h-4l-324 -725h478z" />
    <glyph glyph-name="uni1EA3" unicode="&#x1ea3;" horiz-adv-x="1128" 
d="M604 1135q174 125 174 204q0 50 -67 50q-81 0 -172 -68l-25 90q107 90 246 90q65 0 106 -31.5t41 -93.5q0 -74 -58 -139t-126 -104zM428 -12q-165 0 -253.5 112.5t-88.5 288.5q0 121 36 233t100 198t159 138t205 52q84 0 158.5 -28t123.5 -79l4 2l13 90h162l-123 -995
h-162l29 227l-7 2q-68 -115 -161 -178t-195 -63zM459 133q133 0 244 148t139 366l12 103q-46 54 -118.5 81t-139.5 27q-77 0 -143.5 -40t-110 -106.5t-68 -151.5t-24.5 -175q0 -115 55 -183.5t154 -68.5z" />
    <glyph glyph-name="uni1EA4" unicode="&#x1ea4;" horiz-adv-x="1282" 
d="M1300 1995l181 2l-289 -277h-127zM739 1855h158l180 -253h-157l-113 153h-4l-156 -153h-160zM666 1454h184l317 -1454h-182l-74 356h-575l-160 -356h-182zM881 510l-150 725h-4l-324 -725h478z" />
    <glyph glyph-name="uni1EA5" unicode="&#x1ea5;" horiz-adv-x="1128" 
d="M1149 1606h182l-295 -291h-127zM635 1432h156l184 -293h-162l-104 184h-4l-150 -184h-168zM428 -12q-165 0 -253.5 112.5t-88.5 288.5q0 121 36 233t100 198t159 138t205 52q84 0 158.5 -28t123.5 -79l4 2l13 90h162l-123 -995h-162l29 227l-7 2q-68 -115 -161 -178
t-195 -63zM459 133q133 0 244 148t139 366l12 103q-46 54 -118.5 81t-139.5 27q-77 0 -143.5 -40t-110 -106.5t-68 -151.5t-24.5 -175q0 -115 55 -183.5t154 -68.5z" />
    <glyph glyph-name="uni1EA6" unicode="&#x1ea6;" horiz-adv-x="1282" 
d="M930 1993h168l147 -277h-121zM739 1855h158l180 -253h-157l-113 153h-4l-156 -153h-160zM666 1454h184l317 -1454h-182l-74 356h-575l-160 -356h-182zM881 510l-150 725h-4l-324 -725h478z" />
    <glyph glyph-name="uni1EA7" unicode="&#x1ea7;" horiz-adv-x="1128" 
d="M788 1608h170l146 -291h-121zM635 1432h156l184 -293h-162l-104 184h-4l-150 -184h-168zM428 -12q-165 0 -253.5 112.5t-88.5 288.5q0 121 36 233t100 198t159 138t205 52q84 0 158.5 -28t123.5 -79l4 2l13 90h162l-123 -995h-162l29 227l-7 2q-68 -115 -161 -178
t-195 -63zM459 133q133 0 244 148t139 366l12 103q-46 54 -118.5 81t-139.5 27q-77 0 -143.5 -40t-110 -106.5t-68 -151.5t-24.5 -175q0 -115 55 -183.5t154 -68.5z" />
    <glyph glyph-name="uni1EA8" unicode="&#x1ea8;" horiz-adv-x="1282" 
d="M1069 1733l22.5 15t24 16.5t22.5 16t22.5 17.5t19.5 17t18 18t12.5 18t9.5 19.5t3 19.5q0 45 -62 45q-75 0 -160 -61l-22 82q107 80 225 80q62 0 99.5 -29t37.5 -86q0 -35 -16 -66.5t-45 -55.5t-50.5 -38t-51.5 -30zM739 1855h158l180 -253h-157l-113 153h-4l-156 -153
h-160zM666 1454h184l317 -1454h-182l-74 356h-575l-160 -356h-182zM881 510l-150 725h-4l-324 -725h478z" />
    <glyph glyph-name="uni1EA9" unicode="&#x1ea9;" horiz-adv-x="1128" 
d="M954 1327q166 121 166 195q0 47 -63 47q-80 0 -164 -64l-25 86q103 86 236 86q62 0 100.5 -30.5t38.5 -90.5q0 -70 -56 -132.5t-120 -98.5zM635 1432h156l184 -293h-162l-104 184h-4l-150 -184h-168zM428 -12q-165 0 -253.5 112.5t-88.5 288.5q0 121 36 233t100 198
t159 138t205 52q84 0 158.5 -28t123.5 -79l4 2l13 90h162l-123 -995h-162l29 227l-7 2q-68 -115 -161 -178t-195 -63zM459 133q133 0 244 148t139 366l12 103q-46 54 -118.5 81t-139.5 27q-77 0 -143.5 -40t-110 -106.5t-68 -151.5t-24.5 -175q0 -115 55 -183.5t154 -68.5z
" />
    <glyph glyph-name="uni1EAA" unicode="&#x1eaa;" horiz-adv-x="1282" 
d="M979 1896q-31 0 -64 13t-48 23.5t-42 31.5q-62 47 -94 47q-72 0 -119 -110l-100 49q83 176 207 176q17 0 33 -3t26.5 -6t24.5 -11t20.5 -11.5t20.5 -13.5t18 -13q63 -55 103 -55q66 0 116 109l101 -39q-38 -88 -91.5 -137.5t-111.5 -49.5zM739 1855h158l180 -253h-157
l-113 153h-4l-156 -153h-160zM666 1454h184l317 -1454h-182l-74 356h-575l-160 -356h-182zM881 510l-150 725h-4l-324 -725h478z" />
    <glyph glyph-name="uni1EAB" unicode="&#x1eab;" horiz-adv-x="1128" 
d="M872 1518q-16 0 -31.5 3.5t-25.5 7t-25 13.5t-19.5 13.5t-20.5 17t-17 14.5q-58 51 -96 51q-68 0 -121 -116l-96 51q82 188 207 188q15 0 28.5 -1.5t26.5 -6t20 -6.5t20 -11t15.5 -10.5t17.5 -13.5l15 -12q6 -5 19.5 -16t21 -16.5t18.5 -12.5t21 -10t20 -3q32 0 63 30
t54 85l98 -41q-38 -94 -94.5 -146t-118.5 -52zM637 1432h156l184 -293h-162l-104 184h-4l-150 -184h-168zM428 -12q-165 0 -253.5 112.5t-88.5 288.5q0 121 36 233t100 198t159 138t205 52q84 0 158.5 -28t123.5 -79l4 2l13 90h162l-123 -995h-162l29 227l-7 2
q-68 -115 -161 -178t-195 -63zM459 133q133 0 244 148t139 366l12 103q-46 54 -118.5 81t-139.5 27q-77 0 -143.5 -40t-110 -106.5t-68 -151.5t-24.5 -175q0 -115 55 -183.5t154 -68.5z" />
    <glyph glyph-name="uni1EAC" unicode="&#x1eac;" horiz-adv-x="1282" 
d="M737 1855h158l180 -253h-157l-113 153h-4l-156 -153h-160zM666 1454h184l317 -1454h-182l-74 356h-575l-160 -356h-182zM881 510l-150 725h-4l-324 -725h478zM551 -195q50 0 82.5 -32.5t32.5 -81.5q0 -51 -34 -85t-85 -34q-49 0 -82 33t-33 82q0 51 34 84.5t85 33.5z" />
    <glyph glyph-name="uni1EAD" unicode="&#x1ead;" horiz-adv-x="1128" 
d="M633 1432h155l185 -293h-162l-104 184h-5l-149 -184h-168zM428 -12q-165 0 -253.5 112.5t-88.5 288.5q0 121 36 233t100 198t159 138t205 52q84 0 158.5 -28t123.5 -79l4 2l13 90h162l-123 -995h-162l29 227l-7 2q-68 -115 -161 -178t-195 -63zM459 133q133 0 244 148
t139 366l12 103q-46 54 -118.5 81t-139.5 27q-77 0 -143.5 -40t-110 -106.5t-68 -151.5t-24.5 -175q0 -115 55 -183.5t154 -68.5zM473 -195q50 0 82.5 -32.5t32.5 -81.5q0 -51 -34 -85t-85 -34q-49 0 -82 33t-33 82q0 51 34 84.5t85 33.5z" />
    <glyph glyph-name="uni1EAE" unicode="&#x1eae;" horiz-adv-x="1282" 
d="M985 2103h182l-288 -276h-129zM786 1583q-132 0 -198.5 65t-55.5 179h138q-7 -52 23.5 -89.5t99.5 -37.5t120 38.5t64 88.5h137q-27 -110 -115 -177t-213 -67zM666 1454h184l317 -1454h-182l-74 356h-575l-160 -356h-182zM881 510l-150 725h-4l-324 -725h478z" />
    <glyph glyph-name="uni1EAF" unicode="&#x1eaf;" horiz-adv-x="1128" 
d="M887 1731h182l-295 -291h-127zM680 1133q-126 0 -188 74.5t-52 213.5l129 -2q-6 -72 21.5 -115.5t93.5 -43.5q68 0 115 46t61 115l129 -2q-25 -134 -108 -210t-201 -76zM428 -12q-165 0 -253.5 112.5t-88.5 288.5q0 121 36 233t100 198t159 138t205 52q84 0 158.5 -28
t123.5 -79l4 2l13 90h162l-123 -995h-162l29 227l-7 2q-68 -115 -161 -178t-195 -63zM459 133q133 0 244 148t139 366l12 103q-46 54 -118.5 81t-139.5 27q-77 0 -143.5 -40t-110 -106.5t-68 -151.5t-24.5 -175q0 -115 55 -183.5t154 -68.5z" />
    <glyph glyph-name="uni1EB0" unicode="&#x1eb0;" horiz-adv-x="1282" 
d="M567 2103h168l146 -276h-119zM786 1583q-132 0 -198.5 65t-55.5 179h138q-7 -52 23.5 -89.5t99.5 -37.5t120 38.5t64 88.5h137q-27 -110 -115 -177t-213 -67zM666 1454h184l317 -1454h-182l-74 356h-575l-160 -356h-182zM881 510l-150 725h-4l-324 -725h478z" />
    <glyph glyph-name="uni1EB1" unicode="&#x1eb1;" horiz-adv-x="1128" 
d="M471 1731h170l145 -291h-120zM680 1133q-126 0 -188 74.5t-52 213.5l129 -2q-6 -72 21.5 -115.5t93.5 -43.5q68 0 115 46t61 115l129 -2q-25 -134 -108 -210t-201 -76zM428 -12q-165 0 -253.5 112.5t-88.5 288.5q0 121 36 233t100 198t159 138t205 52q84 0 158.5 -28
t123.5 -79l4 2l13 90h162l-123 -995h-162l29 227l-7 2q-68 -115 -161 -178t-195 -63zM459 133q133 0 244 148t139 366l12 103q-46 54 -118.5 81t-139.5 27q-77 0 -143.5 -40t-110 -106.5t-68 -151.5t-24.5 -175q0 -115 55 -183.5t154 -68.5z" />
    <glyph glyph-name="uni1EB2" unicode="&#x1eb2;" horiz-adv-x="1282" 
d="M750 1825q87 59 112 84q37 37 37 71q0 43 -59 43q-70 0 -156 -59l-22 80q100 78 221 78q61 0 97 -28t36 -85q0 -35 -15.5 -65t-44.5 -54t-50.5 -37.5t-51.5 -29.5zM786 1583q-132 0 -198.5 65t-55.5 179h138q-7 -52 23.5 -89.5t99.5 -37.5t120 38.5t64 88.5h137
q-27 -110 -115 -177t-213 -67zM666 1454h184l317 -1454h-182l-74 356h-575l-160 -356h-182zM881 510l-150 725h-4l-324 -725h478z" />
    <glyph glyph-name="uni1EB3" unicode="&#x1eb3;" horiz-adv-x="1128" 
d="M643 1411q166 121 166 195q0 47 -64 47q-79 0 -163 -64l-25 86q103 86 236 86q62 0 100.5 -30.5t38.5 -90.5q0 -70 -56 -132.5t-120 -98.5zM684 1090q-129 0 -192.5 71.5t-53.5 204.5l133 -2q-8 -69 21 -111.5t96 -42.5q69 0 117.5 45t62.5 111l133 -2
q-26 -128 -111 -201t-206 -73zM428 -12q-165 0 -253.5 112.5t-88.5 288.5q0 121 36 233t100 198t159 138t205 52q84 0 158.5 -28t123.5 -79l4 2l13 90h162l-123 -995h-162l29 227l-7 2q-68 -115 -161 -178t-195 -63zM459 133q133 0 244 148t139 366l12 103q-46 54 -118.5 81
t-139.5 27q-77 0 -143.5 -40t-110 -106.5t-68 -151.5t-24.5 -175q0 -115 55 -183.5t154 -68.5z" />
    <glyph glyph-name="uni1EB4" unicode="&#x1eb4;" horiz-adv-x="1282" 
d="M975 1870q-31 0 -63.5 12.5t-48.5 23.5t-42 31q-63 48 -94 48q-72 0 -119 -111l-100 49q83 176 207 176q17 0 33 -3t26.5 -6t25 -11t20 -11t21 -13.5t17.5 -12.5q63 -55 103 -55q32 0 62.5 28.5t53.5 79.5l101 -39q-38 -88 -91.5 -137t-111.5 -49zM788 1583
q-132 0 -198 65t-55 179h137q-7 -52 23.5 -89.5t99.5 -37.5t120 38.5t64 88.5h137q-27 -110 -115 -177t-213 -67zM666 1454h184l317 -1454h-182l-74 356h-575l-160 -356h-182zM881 510l-150 725h-4l-324 -725h478z" />
    <glyph glyph-name="uni1EB5" unicode="&#x1eb5;" horiz-adv-x="1128" 
d="M870 1518q-16 0 -31.5 3.5t-25.5 7t-25 13.5t-19.5 13.5t-20.5 17t-17 14.5q-58 51 -96 51q-68 0 -121 -116l-96 51q82 188 207 188q15 0 28.5 -1.5t26.5 -6t20 -6.5t20 -11t15.5 -10.5t17.5 -13.5l15 -12q6 -5 19.5 -16t21 -16.5t18.5 -12.5t21 -10t20 -3q32 0 63 30
t54 85l98 -41q-38 -94 -94.5 -146t-118.5 -52zM678 1133q-126 0 -188 74.5t-52 213.5l129 -2q-6 -72 21.5 -115.5t93.5 -43.5q68 0 115 46t61 115l129 -2q-25 -134 -108 -210t-201 -76zM428 -12q-165 0 -253.5 112.5t-88.5 288.5q0 121 36 233t100 198t159 138t205 52
q84 0 158.5 -28t123.5 -79l4 2l13 90h162l-123 -995h-162l29 227l-7 2q-68 -115 -161 -178t-195 -63zM459 133q133 0 244 148t139 366l12 103q-46 54 -118.5 81t-139.5 27q-77 0 -143.5 -40t-110 -106.5t-68 -151.5t-24.5 -175q0 -115 55 -183.5t154 -68.5z" />
    <glyph glyph-name="uni1EB6" unicode="&#x1eb6;" horiz-adv-x="1282" 
d="M784 1589q-125 0 -187.5 71t-51.5 195h129q-7 -58 22 -98.5t95 -40.5q65 0 113 42t61 97h129q-25 -121 -108.5 -193.5t-201.5 -72.5zM666 1454h184l317 -1454h-182l-74 356h-575l-160 -356h-182zM881 510l-150 725h-4l-324 -725h478zM551 -195q50 0 82.5 -32.5
t32.5 -81.5q0 -51 -34 -85t-85 -34q-49 0 -82 33t-33 82q0 51 34 84.5t85 33.5z" />
    <glyph glyph-name="uni1EB7" unicode="&#x1eb7;" horiz-adv-x="1128" 
d="M682 1133q-126 0 -188 74.5t-52 213.5l129 -2q-6 -72 21.5 -115.5t93.5 -43.5q68 0 115 46t61 115l129 -2q-25 -134 -108 -210t-201 -76zM428 -12q-165 0 -253.5 112.5t-88.5 288.5q0 121 36 233t100 198t159 138t205 52q84 0 158.5 -28t123.5 -79l4 2l13 90h162
l-123 -995h-162l29 227l-7 2q-68 -115 -161 -178t-195 -63zM459 133q133 0 244 148t139 366l12 103q-46 54 -118.5 81t-139.5 27q-77 0 -143.5 -40t-110 -106.5t-68 -151.5t-24.5 -175q0 -115 55 -183.5t154 -68.5zM473 -195q50 0 82.5 -32.5t32.5 -81.5q0 -51 -34 -85
t-85 -34q-49 0 -82 33t-33 82q0 51 34 84.5t85 33.5z" />
    <glyph glyph-name="uni1EB8" unicode="&#x1eb8;" horiz-adv-x="1144" 
d="M307 1454h811l-20 -158h-637l-60 -493h523l-21 -158h-522l-59 -487h675l-18 -158h-850zM530 -195q50 0 82.5 -32.5t32.5 -81.5q0 -51 -34 -85t-85 -34q-49 0 -81.5 32.5t-32.5 82.5q0 51 33.5 84.5t84.5 33.5z" />
    <glyph glyph-name="uni1EB9" unicode="&#x1eb9;" horiz-adv-x="966" 
d="M492 137q140 0 256 125l129 -92q-84 -92 -175.5 -137t-216.5 -45q-183 0 -290 110.5t-107 302.5q0 122 36.5 232.5t102 194t164.5 133t217 49.5q44 0 86.5 -9t82.5 -29.5t70.5 -50t49 -74t18.5 -97.5q0 -63 -27 -116t-77 -91t-112 -67.5t-140 -49.5t-152 -32.5
t-157 -20.5q7 -112 75 -174t167 -62zM600 860q-121 0 -219 -94t-125 -258q494 43 494 233q0 62 -44 90.5t-106 28.5zM449 -195q49 0 81.5 -32.5t32.5 -81.5q0 -51 -34 -85t-85 -34q-49 0 -81.5 32.5t-32.5 82.5q0 51 34 84.5t85 33.5z" />
    <glyph glyph-name="uni1EBA" unicode="&#x1eba;" horiz-adv-x="1144" 
d="M670 1597q5 3 24.5 16t26 18t24 17.5t25 19t20.5 18.5t19 20.5t13.5 19.5t10.5 21.5t3 21.5q0 50 -66 50q-79 0 -174 -68l-25 90q112 86 246 86q67 0 107.5 -31t40.5 -94q0 -118 -179 -207zM307 1454h811l-20 -158h-637l-60 -493h523l-21 -158h-522l-59 -487h675
l-18 -158h-850z" />
    <glyph glyph-name="uni1EBB" unicode="&#x1ebb;" horiz-adv-x="966" 
d="M625 1389q-81 0 -172 -68l-25 90q107 90 246 90q65 0 106 -31.5t41 -93.5q0 -74 -58 -139t-126 -104l-119 2q174 125 174 204q0 50 -67 50zM492 137q140 0 256 125l129 -92q-84 -92 -175.5 -137t-216.5 -45q-183 0 -290 110.5t-107 302.5q0 122 36.5 232.5t102 194
t164.5 133t217 49.5q44 0 86.5 -9t82.5 -29.5t70.5 -50t49 -74t18.5 -97.5q0 -63 -27 -116t-77 -91t-112 -67.5t-140 -49.5t-152 -32.5t-157 -20.5q7 -112 75 -174t167 -62zM600 860q-121 0 -219 -94t-125 -258q494 43 494 233q0 62 -44 90.5t-106 28.5z" />
    <glyph glyph-name="uni1EBC" unicode="&#x1ebc;" horiz-adv-x="1144" 
d="M905 1602q-32 0 -65.5 13.5t-50.5 25t-44 32.5q-60 49 -98 49q-73 0 -123 -116l-104 53q86 184 215 184q18 0 34.5 -3t27.5 -6.5t26 -11.5t21 -12t21 -14.5t19 -13.5q23 -19 36 -29t33.5 -19.5t37.5 -9.5q34 0 66 30.5t55 84.5l104 -41q-38 -92 -94 -144t-117 -52z
M307 1454h811l-20 -158h-637l-60 -493h523l-21 -158h-522l-59 -487h675l-18 -158h-850z" />
    <glyph glyph-name="uni1EBD" unicode="&#x1ebd;" horiz-adv-x="966" 
d="M500 1274q-77 0 -127 -117l-105 53q83 197 217 197q17 0 33.5 -3t27 -6t25.5 -11.5t20 -12t20.5 -15t17.5 -13.5q7 -5 21 -16t22 -16.5t19.5 -12.5t22 -10t21.5 -3q75 0 125 115l105 -41q-38 -100 -93.5 -154.5t-117.5 -54.5q-17 0 -34 4t-29 8.5t-28 14t-23 14.5
t-23 16.5t-19 14.5q-59 49 -98 49zM915 750q0 -63 -27 -116t-77 -91t-112 -67.5t-140 -49.5t-152 -32.5t-157 -20.5q7 -112 75 -174t167 -62q140 0 256 125l129 -92q-84 -92 -175.5 -137t-216.5 -45q-183 0 -290 110.5t-107 302.5q0 122 36.5 232.5t102 194t164.5 133
t217 49.5q44 0 86.5 -9t82.5 -29.5t70.5 -50t49 -74t18.5 -97.5zM256 508q494 43 494 233q0 62 -44 90.5t-106 28.5q-121 0 -219 -94t-125 -258z" />
    <glyph glyph-name="uni1EBE" unicode="&#x1ebe;" horiz-adv-x="1144" 
d="M1262 1997l180 2l-289 -277h-127zM700 1858h158l180 -254h-157l-113 153h-4l-156 -153h-159zM307 1454h811l-20 -158h-637l-60 -493h523l-21 -158h-522l-59 -487h675l-18 -158h-850z" />
    <glyph glyph-name="uni1EBF" unicode="&#x1ebf;" horiz-adv-x="966" 
d="M1245 1606l-295 -291h-127l240 291h182zM469 1139h-168l248 293h156l184 -293h-162l-104 184h-5zM915 750q0 -63 -27 -116t-77 -91t-112 -67.5t-140 -49.5t-152 -32.5t-157 -20.5q7 -112 75 -174t167 -62q140 0 256 125l129 -92q-84 -92 -175.5 -137t-216.5 -45
q-183 0 -290 110.5t-107 302.5q0 122 36.5 232.5t102 194t164.5 133t217 49.5q44 0 86.5 -9t82.5 -29.5t70.5 -50t49 -74t18.5 -97.5zM256 508q494 43 494 233q0 62 -44 90.5t-106 28.5q-121 0 -219 -94t-125 -258z" />
    <glyph glyph-name="uni1EC0" unicode="&#x1ec0;" horiz-adv-x="1144" 
d="M891 1995h168l147 -277h-121zM700 1858h158l180 -254h-157l-113 153h-4l-156 -153h-159zM307 1454h811l-20 -158h-637l-60 -493h523l-21 -158h-522l-59 -487h675l-18 -158h-850z" />
    <glyph glyph-name="uni1EC1" unicode="&#x1ec1;" horiz-adv-x="966" 
d="M897 1317l-195 291h170l146 -291h-121zM469 1139h-168l248 293h156l184 -293h-162l-104 184h-5zM915 750q0 -63 -27 -116t-77 -91t-112 -67.5t-140 -49.5t-152 -32.5t-157 -20.5q7 -112 75 -174t167 -62q140 0 256 125l129 -92q-84 -92 -175.5 -137t-216.5 -45
q-183 0 -290 110.5t-107 302.5q0 122 36.5 232.5t102 194t164.5 133t217 49.5q44 0 86.5 -9t82.5 -29.5t70.5 -50t49 -74t18.5 -97.5zM256 508q494 43 494 233q0 62 -44 90.5t-106 28.5q-121 0 -219 -94t-125 -258z" />
    <glyph glyph-name="uni1EC2" unicode="&#x1ec2;" horiz-adv-x="1144" 
d="M1030 1735l22.5 15t24 16.5t22.5 16t22.5 17.5t19.5 17t18 18t12.5 18t9.5 19.5t3 19.5q0 45 -62 45q-74 0 -159 -61l-23 82q107 80 225 80q62 0 100 -29t38 -86q0 -35 -16 -66.5t-45 -55.5t-51 -38t-52 -30zM700 1858h158l180 -254h-157l-113 153h-4l-156 -153h-159z
M307 1454h811l-20 -158h-637l-60 -493h523l-21 -158h-522l-59 -487h675l-18 -158h-850z" />
    <glyph glyph-name="uni1EC3" unicode="&#x1ec3;" horiz-adv-x="966" 
d="M1018 1677q62 0 100.5 -30.5t38.5 -90.5q0 -70 -56 -132.5t-120 -98.5l-113 2q166 121 166 195q0 47 -63 47q-80 0 -164 -64l-25 86q103 86 236 86zM469 1139h-168l248 293h156l184 -293h-162l-104 184h-5zM915 750q0 -63 -27 -116t-77 -91t-112 -67.5t-140 -49.5
t-152 -32.5t-157 -20.5q7 -112 75 -174t167 -62q140 0 256 125l129 -92q-84 -92 -175.5 -137t-216.5 -45q-183 0 -290 110.5t-107 302.5q0 122 36.5 232.5t102 194t164.5 133t217 49.5q44 0 86.5 -9t82.5 -29.5t70.5 -50t49 -74t18.5 -97.5zM256 508q494 43 494 233
q0 62 -44 90.5t-106 28.5q-121 0 -219 -94t-125 -258z" />
    <glyph glyph-name="uni1EC4" unicode="&#x1ec4;" horiz-adv-x="1144" 
d="M940 1898q-31 0 -64 13t-48 23.5t-42 31.5q-62 47 -94 47q-72 0 -119 -110l-100 49q83 176 207 176q17 0 33 -3t26.5 -6t25 -11t20 -11t21 -13.5t17.5 -12.5q64 -56 103 -56q66 0 116 109l101 -39q-38 -88 -91.5 -137.5t-111.5 -49.5zM700 1858h158l180 -254h-157
l-113 153h-4l-156 -153h-159zM307 1454h811l-20 -158h-637l-60 -493h523l-21 -158h-522l-59 -487h675l-18 -158h-850z" />
    <glyph glyph-name="uni1EC5" unicode="&#x1ec5;" horiz-adv-x="966" 
d="M551 1638q-68 0 -121 -116l-96 51q82 188 207 188q15 0 28.5 -1.5t26.5 -6t20 -6.5t20 -11t15.5 -10.5t17.5 -13.5l15 -12q6 -5 19.5 -16t21 -16.5t18.5 -12.5t21 -10t20 -3q32 0 63 30t54 85l98 -41q-38 -94 -94.5 -146t-118.5 -52q-16 0 -31.5 3.5t-25.5 7t-25 13.5
t-19.5 13.5t-20.5 17t-17 14.5q-58 51 -96 51zM471 1139h-168l248 293h156l184 -293h-162l-104 184h-4zM915 750q0 -63 -27 -116t-77 -91t-112 -67.5t-140 -49.5t-152 -32.5t-157 -20.5q7 -112 75 -174t167 -62q140 0 256 125l129 -92q-84 -92 -175.5 -137t-216.5 -45
q-183 0 -290 110.5t-107 302.5q0 122 36.5 232.5t102 194t164.5 133t217 49.5q44 0 86.5 -9t82.5 -29.5t70.5 -50t49 -74t18.5 -97.5zM256 508q494 43 494 233q0 62 -44 90.5t-106 28.5q-121 0 -219 -94t-125 -258z" />
    <glyph glyph-name="uni1EC6" unicode="&#x1ec6;" horiz-adv-x="1144" 
d="M698 1858h158l180 -254h-157l-113 153h-4l-156 -153h-160zM307 1454h811l-20 -158h-637l-60 -493h523l-21 -158h-522l-59 -487h675l-18 -158h-850zM530 -195q50 0 82.5 -32.5t32.5 -81.5q0 -51 -34 -85t-85 -34q-49 0 -81.5 32.5t-32.5 82.5q0 51 33.5 84.5t84.5 33.5z
" />
    <glyph glyph-name="uni1EC7" unicode="&#x1ec7;" horiz-adv-x="966" 
d="M467 1139h-168l248 293h155l185 -293h-162l-104 184h-5zM492 137q140 0 256 125l129 -92q-84 -92 -175.5 -137t-216.5 -45q-183 0 -290 110.5t-107 302.5q0 122 36.5 232.5t102 194t164.5 133t217 49.5q44 0 86.5 -9t82.5 -29.5t70.5 -50t49 -74t18.5 -97.5
q0 -63 -27 -116t-77 -91t-112 -67.5t-140 -49.5t-152 -32.5t-157 -20.5q7 -112 75 -174t167 -62zM600 860q-121 0 -219 -94t-125 -258q494 43 494 233q0 62 -44 90.5t-106 28.5zM449 -195q49 0 81.5 -32.5t32.5 -81.5q0 -51 -34 -85t-85 -34q-49 0 -81.5 32.5t-32.5 82.5
q0 51 34 84.5t85 33.5z" />
    <glyph glyph-name="uni1EC8" unicode="&#x1ec8;" horiz-adv-x="577" 
d="M350 1595q5 3 24.5 16t26 18t24 17.5t25 19t20.5 18.5t19 20.5t13.5 19.5t10.5 21.5t3 21.5q0 50 -65 50q-80 0 -175 -68l-24 90q112 86 246 86q67 0 107 -31t40 -94q0 -118 -178 -207zM317 1454h177l-179 -1454h-176z" />
    <glyph glyph-name="uni1EC9" unicode="&#x1ec9;" horiz-adv-x="491" 
d="M250 1135q174 125 174 204q0 50 -68 50q-81 0 -172 -68l-24 90q107 90 246 90q65 0 106 -31.5t41 -93.5q0 -74 -58 -139t-126 -104zM225 997h164l-123 -997h-164z" />
    <glyph glyph-name="uni1ECA" unicode="&#x1eca;" horiz-adv-x="577" 
d="M317 1454h177l-179 -1454h-176zM190 -195q50 0 82.5 -32.5t32.5 -81.5q0 -51 -34 -85t-85 -34q-49 0 -81.5 32.5t-32.5 82.5q0 51 33.5 84.5t84.5 33.5z" />
    <glyph glyph-name="uni1ECB" unicode="&#x1ecb;" horiz-adv-x="491" 
d="M348 1182q-50 0 -82.5 32.5t-32.5 81.5q0 51 34 85t85 34q50 0 82.5 -32.5t32.5 -82.5q0 -51 -34 -84.5t-85 -33.5zM225 997h164l-123 -997h-164zM147 -195q50 0 82.5 -32.5t32.5 -81.5q0 -51 -34 -85t-85 -34q-49 0 -81.5 32.5t-32.5 82.5q0 51 33.5 84.5t84.5 33.5z
" />
    <glyph glyph-name="uni1ECC" unicode="&#x1ecc;" horiz-adv-x="1556" 
d="M717 -12q-263 0 -419.5 161.5t-156.5 446.5q0 171 54.5 329t151 278.5t239 192.5t307.5 72q262 0 419.5 -161t157.5 -447q0 -175 -52.5 -333t-147.5 -278t-238.5 -190.5t-314.5 -70.5zM729 152q163 0 293 99t199 258.5t69 344.5q0 220 -110 335.5t-306 115.5
q-158 0 -286 -101.5t-196 -262t-68 -341.5q0 -216 108 -332t297 -116zM678 -195q50 0 82.5 -32.5t32.5 -81.5q0 -51 -34 -85t-85 -34q-50 0 -82.5 33t-32.5 82q0 51 34 84.5t85 33.5z" />
    <glyph glyph-name="uni1ECD" unicode="&#x1ecd;" horiz-adv-x="1114" 
d="M500 -12q-190 0 -301 110.5t-111 307.5q0 120 36.5 229t102.5 192.5t166 133t219 49.5q189 0 301.5 -108t112.5 -302q0 -173 -60.5 -310.5t-181.5 -219.5t-284 -82zM504 137q157 0 256.5 127.5t99.5 321.5q0 141 -73.5 206.5t-182.5 65.5q-102 0 -183.5 -60.5t-125 -159
t-43.5 -214.5q0 -130 67.5 -208.5t184.5 -78.5zM457 -195q49 0 81.5 -32.5t32.5 -81.5q0 -51 -33.5 -85t-84.5 -34q-49 0 -82 33t-33 82q0 51 34 84.5t85 33.5z" />
    <glyph glyph-name="uni1ECE" unicode="&#x1ece;" horiz-adv-x="1556" 
d="M883 1595q5 3 24.5 16t26 18t24 17.5t25 19t20.5 18.5t19 20.5t13.5 19.5t10.5 21.5t3 21.5q0 50 -66 50q-79 0 -174 -68l-25 90q112 86 246 86q67 0 107.5 -31t40.5 -94q0 -118 -179 -207zM717 -12q-263 0 -419.5 161.5t-156.5 446.5q0 171 54.5 329t151 278.5
t239 192.5t307.5 72q262 0 419.5 -161t157.5 -447q0 -175 -52.5 -333t-147.5 -278t-238.5 -190.5t-314.5 -70.5zM729 152q163 0 293 99t199 258.5t69 344.5q0 220 -110 335.5t-306 115.5q-158 0 -286 -101.5t-196 -262t-68 -341.5q0 -216 108 -332t297 -116z" />
    <glyph glyph-name="uni1ECF" unicode="&#x1ecf;" horiz-adv-x="1114" 
d="M571 1135q174 125 174 204q0 50 -67 50q-81 0 -172 -68l-25 90q107 90 246 90q65 0 106 -31.5t41 -93.5q0 -74 -58 -139t-126 -104zM500 -12q-190 0 -301 110.5t-111 307.5q0 120 36.5 229t102.5 192.5t166 133t219 49.5q189 0 301.5 -108t112.5 -302
q0 -173 -60.5 -310.5t-181.5 -219.5t-284 -82zM504 137q157 0 256.5 127.5t99.5 321.5q0 141 -73.5 206.5t-182.5 65.5q-102 0 -183.5 -60.5t-125 -159t-43.5 -214.5q0 -130 67.5 -208.5t184.5 -78.5z" />
    <glyph glyph-name="uni1ED0" unicode="&#x1ed0;" horiz-adv-x="1556" 
d="M1475 1995l180 2l-289 -277h-127zM913 1855h158l180 -253h-157l-113 153h-4l-156 -153h-159zM717 -12q-263 0 -419.5 161.5t-156.5 446.5q0 171 54.5 329t151 278.5t239 192.5t307.5 72q262 0 419.5 -161t157.5 -447q0 -175 -52.5 -333t-147.5 -278t-238.5 -190.5
t-314.5 -70.5zM729 152q163 0 293 99t199 258.5t69 344.5q0 220 -110 335.5t-306 115.5q-158 0 -286 -101.5t-196 -262t-68 -341.5q0 -216 108 -332t297 -116z" />
    <glyph glyph-name="uni1ED1" unicode="&#x1ed1;" horiz-adv-x="1114" 
d="M1116 1606h182l-294 -291h-127zM602 1432h156l184 -293h-162l-104 184h-4l-150 -184h-168zM500 -12q-190 0 -301 110.5t-111 307.5q0 120 36.5 229t102.5 192.5t166 133t219 49.5q189 0 301.5 -108t112.5 -302q0 -173 -60.5 -310.5t-181.5 -219.5t-284 -82zM504 137
q157 0 256.5 127.5t99.5 321.5q0 141 -73.5 206.5t-182.5 65.5q-102 0 -183.5 -60.5t-125 -159t-43.5 -214.5q0 -130 67.5 -208.5t184.5 -78.5z" />
    <glyph glyph-name="uni1ED2" unicode="&#x1ed2;" horiz-adv-x="1556" 
d="M1104 1993h168l147 -277h-121zM913 1855h158l180 -253h-157l-113 153h-4l-156 -153h-159zM717 -12q-263 0 -419.5 161.5t-156.5 446.5q0 171 54.5 329t151 278.5t239 192.5t307.5 72q262 0 419.5 -161t157.5 -447q0 -175 -52.5 -333t-147.5 -278t-238.5 -190.5
t-314.5 -70.5zM729 152q163 0 293 99t199 258.5t69 344.5q0 220 -110 335.5t-306 115.5q-158 0 -286 -101.5t-196 -262t-68 -341.5q0 -216 108 -332t297 -116z" />
    <glyph glyph-name="uni1ED3" unicode="&#x1ed3;" horiz-adv-x="1114" 
d="M756 1608h170l145 -291h-121zM602 1432h156l184 -293h-162l-104 184h-4l-150 -184h-168zM500 -12q-190 0 -301 110.5t-111 307.5q0 120 36.5 229t102.5 192.5t166 133t219 49.5q189 0 301.5 -108t112.5 -302q0 -173 -60.5 -310.5t-181.5 -219.5t-284 -82zM504 137
q157 0 256.5 127.5t99.5 321.5q0 141 -73.5 206.5t-182.5 65.5q-102 0 -183.5 -60.5t-125 -159t-43.5 -214.5q0 -130 67.5 -208.5t184.5 -78.5z" />
    <glyph glyph-name="uni1ED4" unicode="&#x1ed4;" horiz-adv-x="1556" 
d="M1243 1733l22.5 15t24 16.5t22.5 16t22.5 17.5t19.5 17t18 18t12.5 18t9.5 19.5t3 19.5q0 45 -62 45q-74 0 -159 -61l-23 82q107 80 225 80q62 0 100 -29t38 -86q0 -35 -16 -66.5t-45 -55.5t-51 -38t-52 -30zM913 1855h158l180 -253h-157l-113 153h-4l-156 -153h-159z
M717 -12q-263 0 -419.5 161.5t-156.5 446.5q0 171 54.5 329t151 278.5t239 192.5t307.5 72q262 0 419.5 -161t157.5 -447q0 -175 -52.5 -333t-147.5 -278t-238.5 -190.5t-314.5 -70.5zM729 152q163 0 293 99t199 258.5t69 344.5q0 220 -110 335.5t-306 115.5
q-158 0 -286 -101.5t-196 -262t-68 -341.5q0 -216 108 -332t297 -116z" />
    <glyph glyph-name="uni1ED5" unicode="&#x1ed5;" horiz-adv-x="1114" 
d="M922 1327q66 48 115.5 101t49.5 94q0 47 -63 47q-80 0 -164 -64l-24 86q103 86 235 86q62 0 100.5 -30.5t38.5 -90.5q0 -70 -56 -132.5t-120 -98.5zM602 1432h156l184 -293h-162l-104 184h-4l-150 -184h-168zM500 -12q-190 0 -301 110.5t-111 307.5q0 120 36.5 229
t102.5 192.5t166 133t219 49.5q189 0 301.5 -108t112.5 -302q0 -173 -60.5 -310.5t-181.5 -219.5t-284 -82zM504 137q157 0 256.5 127.5t99.5 321.5q0 141 -73.5 206.5t-182.5 65.5q-102 0 -183.5 -60.5t-125 -159t-43.5 -214.5q0 -130 67.5 -208.5t184.5 -78.5z" />
    <glyph glyph-name="uni1ED6" unicode="&#x1ed6;" horiz-adv-x="1556" 
d="M1153 1896q-31 0 -64 13t-48 23.5t-42 31.5q-62 47 -94 47q-72 0 -119 -110l-100 49q83 176 207 176q17 0 33 -3t26.5 -6t24.5 -11t20.5 -11.5t20.5 -13.5t18 -13q63 -55 103 -55q66 0 116 109l101 -39q-38 -88 -91.5 -137.5t-111.5 -49.5zM913 1855h158l180 -253h-157
l-113 153h-4l-156 -153h-159zM717 -12q-263 0 -419.5 161.5t-156.5 446.5q0 171 54.5 329t151 278.5t239 192.5t307.5 72q262 0 419.5 -161t157.5 -447q0 -175 -52.5 -333t-147.5 -278t-238.5 -190.5t-314.5 -70.5zM729 152q163 0 293 99t199 258.5t69 344.5
q0 220 -110 335.5t-306 115.5q-158 0 -286 -101.5t-196 -262t-68 -341.5q0 -216 108 -332t297 -116z" />
    <glyph glyph-name="uni1ED7" unicode="&#x1ed7;" horiz-adv-x="1114" 
d="M840 1518q-14 0 -26.5 2t-24.5 7t-20.5 8.5t-20 12.5t-16.5 12.5t-17 14t-15 12.5q-58 51 -96 51q-68 0 -121 -116l-96 51q82 188 207 188q15 0 28.5 -1.5t26.5 -6t20 -6.5t20 -11t15.5 -10.5t17.5 -13.5l15 -12q6 -4 20 -15.5t21 -17t18.5 -12.5t21.5 -10t20 -3
q32 0 62.5 30t53.5 85l99 -41q-38 -94 -94.5 -146t-118.5 -52zM604 1432h156l184 -293h-162l-104 184h-4l-150 -184h-168zM500 -12q-190 0 -301 110.5t-111 307.5q0 120 36.5 229t102.5 192.5t166 133t219 49.5q189 0 301.5 -108t112.5 -302q0 -173 -60.5 -310.5
t-181.5 -219.5t-284 -82zM504 137q157 0 256.5 127.5t99.5 321.5q0 141 -73.5 206.5t-182.5 65.5q-102 0 -183.5 -60.5t-125 -159t-43.5 -214.5q0 -130 67.5 -208.5t184.5 -78.5z" />
    <glyph glyph-name="uni1ED8" unicode="&#x1ed8;" horiz-adv-x="1556" 
d="M911 1855h158l180 -253h-157l-113 153h-4l-156 -153h-160zM717 -12q-263 0 -419.5 161.5t-156.5 446.5q0 171 54.5 329t151 278.5t239 192.5t307.5 72q262 0 419.5 -161t157.5 -447q0 -175 -52.5 -333t-147.5 -278t-238.5 -190.5t-314.5 -70.5zM729 152q163 0 293 99
t199 258.5t69 344.5q0 220 -110 335.5t-306 115.5q-158 0 -286 -101.5t-196 -262t-68 -341.5q0 -216 108 -332t297 -116zM678 -195q50 0 82.5 -32.5t32.5 -81.5q0 -51 -34 -85t-85 -34q-50 0 -82.5 33t-32.5 82q0 51 34 84.5t85 33.5z" />
    <glyph glyph-name="uni1ED9" unicode="&#x1ed9;" horiz-adv-x="1114" 
d="M600 1432h156l184 -293h-162l-104 184h-4l-150 -184h-168zM500 -12q-190 0 -301 110.5t-111 307.5q0 120 36.5 229t102.5 192.5t166 133t219 49.5q189 0 301.5 -108t112.5 -302q0 -173 -60.5 -310.5t-181.5 -219.5t-284 -82zM504 137q157 0 256.5 127.5t99.5 321.5
q0 141 -73.5 206.5t-182.5 65.5q-102 0 -183.5 -60.5t-125 -159t-43.5 -214.5q0 -130 67.5 -208.5t184.5 -78.5zM457 -195q49 0 81.5 -32.5t32.5 -81.5q0 -51 -33.5 -85t-84.5 -34q-49 0 -82 33t-33 82q0 51 34 84.5t85 33.5z" />
    <glyph glyph-name="uni1EDA" unicode="&#x1eda;" horiz-adv-x="1654" 
d="M1020 1602h-166l244 264h188zM1702 1585l-25 -194q-39 -291 -233 -320q26 -91 26 -211q0 -175 -52.5 -333t-147.5 -278t-238.5 -190.5t-314.5 -70.5q-263 0 -419.5 161.5t-156.5 446.5q0 171 54.5 329t151 278.5t239 192.5t307.5 72q178 0 310.5 -76t201.5 -218
q53 6 78.5 63.5t40.5 177.5l22 170h156zM729 152q163 0 293 99t199 258.5t69 344.5q0 220 -110 335.5t-306 115.5q-158 0 -286 -101.5t-196 -262t-68 -341.5q0 -216 108 -332t297 -116z" />
    </font>
</defs>
</svg>
