<svg width="174" height="31" viewBox="0 0 174 31" fill="none" xmlns="http://www.w3.org/2000/svg">
<g clip-path="url(#clip0)">
<path d="M161.584 30.9999H64.3032L66.2319 26.6613L76.6239 4.3606H174L161.584 30.9999Z" fill="white"/>
<path d="M71.7355 26.6425H0L12.4191 0H84.1546L71.7355 26.6425Z" fill="#FF632C"/>
<path d="M80.0848 8.73706H74.6001L66.2446 26.6233H79.7232L81.7597 22.2625H73.769L80.0848 8.73706Z" fill="#141414"/>
<path d="M152.153 22.1707L158.469 8.64209H152.984L144.629 26.5283H158.107L160.144 22.1707H152.153Z" fill="#141414"/>
<path d="M101.944 19.7671L103.981 15.4064H93.0655L94.1884 13.0028H105.234L107.27 8.64209H90.7815H90.7371L82.3848 26.5283H98.8705L100.907 22.1707H89.906L91.0289 19.7671H101.944Z" fill="#141414"/>
<path d="M147.23 13.0028L147.668 12.0654C148.413 10.4725 147.246 8.64526 145.486 8.64526H135.036C133.108 8.64526 131.35 9.75682 130.526 11.4986L123.42 26.5315H128.908L131.56 20.8502H138.075L135.423 26.5315H140.911L147.23 13.0028ZM140.115 16.4895H133.599L135.227 13.0028H141.742L140.115 16.4895Z" fill="#141414"/>
<path d="M125.041 15.4064H115.781L113.745 19.7671H117.507L116.371 22.1707H109.948L114.23 13.0028H126.157L128.194 8.64209H113.957C112.019 8.64209 110.255 9.76314 109.437 11.5176L104.079 22.9878C103.308 24.6377 104.514 26.5283 106.338 26.5283H119.8H119.816L125.041 15.4064Z" fill="#141414"/>
<path d="M10.3857 4.3606L12.5682 8.72131H13.8307L7.51172 22.2468H22.3733L26.1926 19.8178L31.3696 8.73714L29.1047 4.3606H10.3857ZM15.0361 17.8861L19.3185 8.71814H25.8913L21.6089 17.8861H15.0361Z" fill="white"/>
<path d="M36.4292 4.3606L28.0737 22.2468H33.5616L41.9139 4.3606H36.4292Z" fill="white"/>
<path d="M84.5039 4.3606H61.9307L64.2083 8.72131H69.0903L62.7713 22.2468L66.2321 26.6613L74.5749 8.72131H82.4673L84.5039 4.3606Z" fill="white"/>
<path d="M51.6396 16.7682H54.5771L58.409 14.3139L60.9753 8.72131L58.6977 4.3606H45.4507L37.0952 22.2468H42.5831L45.143 16.7682H45.9107L53.7206 26.6423H59.4527L51.6396 16.7682ZM47.1764 12.4075L48.8989 8.71814H55.5477L53.8253 12.4075H47.1764Z" fill="white"/>
</g>
<defs>
<clipPath id="clip0">
<rect width="174" height="31" fill="white"/>
</clipPath>
</defs>
</svg>
