<svg width="36" height="36" viewBox="0 0 36 36" fill="none" xmlns="http://www.w3.org/2000/svg">
<g clip-path="url(#clip0)">
<path d="M35.1655 15.3653H34.6091C34.4291 14.1872 34.1182 13.0581 33.7091 11.9781L34.1836 11.6999C34.5927 11.4708 34.7236 10.9472 34.4945 10.5544L32.7109 7.44533C32.4818 7.03624 31.9582 6.90533 31.5655 7.13442L31.0909 7.41261C30.3545 6.49624 29.52 5.6617 28.6036 4.92533L28.8818 4.45079C29.1109 4.0417 28.98 3.53442 28.5709 3.30533L25.4618 1.5217C25.0527 1.29261 24.5455 1.42351 24.3164 1.83261L24.0382 2.30715C22.9582 1.89806 21.8291 1.58715 20.6509 1.40715V0.834423C20.6509 0.376242 20.2745 -0.00012207 19.8164 -0.00012207H16.2164C15.7418 -0.00012207 15.3655 0.376242 15.3655 0.834423V1.39079C14.1873 1.57079 13.0582 1.8817 11.9782 2.29079L11.7 1.81624C11.4709 1.40715 10.9473 1.27624 10.5545 1.50533L7.44545 3.28897C7.03636 3.51806 6.90545 4.0417 7.13455 4.43442L7.41273 4.90897C6.49636 5.6617 5.66182 6.49624 4.92545 7.41261L4.45091 7.13442C4.04182 6.90533 3.53455 7.03624 3.30545 7.44533L1.52182 10.5544C1.29273 10.9635 1.42364 11.4708 1.83273 11.6999L2.30727 11.9781C1.88182 13.0581 1.58727 14.1872 1.40727 15.3653H0.834545C0.376364 15.3653 0 15.7417 0 16.2162V19.7999C0 20.2581 0.376364 20.6344 0.834545 20.6344H1.39091C1.57091 21.8126 1.88182 22.9417 2.29091 24.0217L1.81636 24.2999C1.40727 24.529 1.27636 25.0526 1.50545 25.4453L3.28909 28.5544C3.51818 28.9635 4.04182 29.0944 4.43455 28.8653L4.90909 28.5871C5.64545 29.5035 6.48 30.3381 7.39636 31.0744L7.11818 31.549C6.88909 31.9581 7.02 32.4653 7.42909 32.6944L10.5382 34.4781C10.9473 34.7071 11.4545 34.5762 11.6836 34.1671L11.9618 33.6926C13.0418 34.1017 14.1709 34.4126 15.3491 34.5926V35.149C15.3491 35.6072 15.7255 35.9835 16.1836 35.9835H19.7673C20.2255 35.9835 20.6018 35.6072 20.6018 35.149V34.5926C21.78 34.4126 22.9091 34.1017 23.9891 33.6926L24.2673 34.1671C24.4964 34.5762 25.02 34.7071 25.4127 34.4781L28.5218 32.6944C28.9309 32.4653 29.0618 31.9417 28.8327 31.549L28.5545 31.0744C29.4709 30.3381 30.3055 29.5035 31.0418 28.5871L31.5164 28.8653C31.9255 29.0944 32.4327 28.9635 32.6618 28.5544L34.4455 25.4453C34.6745 25.0362 34.5436 24.529 34.1345 24.2999L33.66 24.0217C34.0691 22.9417 34.38 21.8126 34.56 20.6344H35.1164C35.5745 20.6344 35.9509 20.2581 35.9509 19.7999V16.2162C36 15.7417 35.6236 15.3653 35.1655 15.3653ZM18 31.4671C10.5709 31.4671 4.53273 25.4453 4.53273 17.9999C4.53273 10.5544 10.5709 4.53261 18 4.53261C25.4291 4.53261 31.4673 10.5544 31.4673 17.9999C31.4673 25.4453 25.4291 31.4671 18 31.4671Z" fill="white"/>
<path d="M17.1817 22.909H18.8181C19.2763 22.909 19.6363 22.549 19.6363 22.0908V10.6362C19.6363 10.1781 19.2763 9.81805 18.8181 9.81805H17.1817C16.7235 9.81805 16.3635 10.1781 16.3635 10.6362V22.0908C16.3635 22.549 16.7235 22.909 17.1817 22.909Z" fill="white"/>
<path d="M17.9999 27.8181C18.9036 27.8181 19.6363 27.0855 19.6363 26.1817C19.6363 25.278 18.9036 24.5453 17.9999 24.5453C17.0962 24.5453 16.3635 25.278 16.3635 26.1817C16.3635 27.0855 17.0962 27.8181 17.9999 27.8181Z" fill="white"/>
</g>
<defs>
<clipPath id="clip0">
<rect y="-0.00012207" width="36" height="36" fill="white"/>
</clipPath>
</defs>
</svg>
