<svg width="24" height="24" viewBox="0 0 24 24" fill="none" xmlns="http://www.w3.org/2000/svg">
<circle cx="12" cy="12" r="12" fill="#69E6ED"/>
<path fill-rule="evenodd" clip-rule="evenodd" d="M6.36765 14.4582C5.70245 13.7214 6.24081 13.0995 6.24081 13.0995C6.24081 13.0995 6.88552 12.5003 7.60988 13.1529C8.33424 13.8056 9.69355 15.0322 10.1049 15.0327C10.5163 15.0332 11.5285 13.6568 11.5285 13.6568C11.5285 13.6568 15.5725 8.353 16.098 7.78463C16.6234 7.21627 17.2298 6.83458 17.6165 7.07138C18.0032 7.30818 18.239 7.72457 17.6165 8.66838C16.994 9.61219 12.0492 16.6034 11.3061 17.4828C10.563 18.3622 9.68845 17.9528 9.29254 17.4828C8.89663 17.0128 7.03284 15.1951 6.36765 14.4582Z" fill="#005358"/>
</svg>
